{
classes = (
{
automatic = 1;
code = "A B C D E F G H I J K L M N O P Q R S T U V W X Y Z Agrave Aacute Acircumflex Atilde Adieresis Aring AE Ccedilla Egrave Eacute Ecircumflex Edieresis Igrave Iacute Icircumflex Idieresis Eth Ntilde Ograve Oacute Ocircumflex Otilde Odieresis Oslash Ugrave Uacute Ucircumflex Udieresis Yacute Thorn Cacute Ccaron Gbreve Idotaccent Lslash OE Scedilla Scaron Ydieresis Zcaron Omega Delta Abreve Abreveacute Abrevedotbelow Abrevegrave Abrevehookabove Abrevetilde Acaron Acircumflexacute Acircumflexdotbelow Acircumflexgrave Acircumflexhookabove Acircumflextilde Adieresismacron Adotbelow Ahookabove Amacron Aogonek Bdotbelow Cdotaccent Dcaron Dcircumflexbelow Dcroat Ddotbelow Dlinebelow Ecaron Ecedilla Ecircumflexacute Ecircumflexdotbelow Ecircumflexgrave Ecircumflexhookabove Ecircumflextilde Edotaccent Edotbelow Ehookabove Emacron Eogonek Etilde Gcaron Gcommaaccent Gdotaccent Hbar Hdotbelow IJ Icaron Idieresisacute Idotbelow Ihookabove Imacron Iogonek Itilde Kcommaaccent Lacute Lcaron Lcircumflexbelow Lcommaaccent Ldot Ldotbelow Macute Nacute Ncaron Ncircumflexbelow Ncommaaccent Ndotaccent Ndotbelow Eng Ocaron Ocircumflexacute Ocircumflexdotbelow Ocircumflexgrave Ocircumflexhookabove Ocircumflextilde Odiaeresismacron Odotbelow Ohookabove Ohorn Ohornacute Ohorndotbelow Ohorngrave Ohornhookabove Ohorntilde Ohungarumlaut Omacron Omacronacute Omacrongrave Oslashacute Otildeacute Racute Rcaron Rcommaaccent Sacute Scommaaccent Sdotbelow Tbar Tcaron Tcedilla Tcircumflexbelow Tcommaaccent Tdotbelow Tlinebelow Ucaron Udieresisacute Udieresiscaron Udieresisgrave Udieresismacron Udotbelow Uhookabove Uhorn Uhornacute Uhorndotbelow Uhorngrave Uhornhookabove Uhorntilde Uhungarumlaut Umacron Uogonek Uring Utilde Wacute Wcircumflex Wdieresis Wgrave Ycircumflex Ydotbelow Ygrave Yhookabove Ytilde Zacute Zdotaccent Zdotbelow";
name = Uppercase;
}
);

glyphs = (
{
glyphname = .notdef;
lastChange = "2012-10-19 18:18:31 -0500";
layers = (
{
layerId = "6B6936E6-7670-4A82-900D-EAF583C971AF";
name = Regular;
paths = (
{
closed = 1;
nodes = (
"150 -362 LINE",
"150 1444 LINE",
"1174 1444 LINE",
"1174 -362 LINE"
);
},
{
closed = 1;
nodes = (
"265 -68 LINE",
"1060 -68 LINE",
"1060 1329 LINE",
"265 1329 LINE"
);
}
);
width = 1324;
}
);
},
{
glyphname = exclam;
lastChange = "2012-10-19 18:18:49 -0500";
layers = (
{
layerId = "6B6936E6-7670-4A82-900D-EAF583C971AF";
name = Regular;
paths = (
{
closed = 1;
nodes = (
"179 254 LINE",
"392 254 LINE",
"412 0 LINE",
"159 0 LINE"
);
},
{
closed = 1;
nodes = (
"189 1493 LINE",
"382 1493 LINE",
"392 838 LINE",
"422 481 LINE",
"150 481 LINE",
"169 838 LINE"
);
}
);
width = 572;
}
);
unicode = 0021;
},
{
glyphname = quotedbl;
lastChange = "2012-10-19 18:18:57 -0500";
layers = (
{
layerId = "6B6936E6-7670-4A82-900D-EAF583C971AF";
name = Regular;
paths = (
{
closed = 1;
nodes = (
"340 1493 LINE",
"351 906 LINE",
"150 906 LINE",
"161 1493 LINE"
);
},
{
closed = 1;
nodes = (
"740 1493 LINE",
"751 906 LINE",
"550 906 LINE",
"560 1493 LINE"
);
}
);
width = 901;
}
);
unicode = 0022;
},
{
glyphname = numbersign;
lastChange = "2012-10-19 18:19:04 -0500";
layers = (
{
layerId = "6B6936E6-7670-4A82-900D-EAF583C971AF";
name = Regular;
paths = (
{
closed = 1;
nodes = (
"1039 901 LINE",
"748 901 LINE",
"664 567 LINE",
"957 567 LINE"
);
},
{
closed = 1;
nodes = (
"889 1470 LINE",
"785 1055 LINE",
"1077 1055 LINE",
"1182 1470 LINE",
"1342 1470 LINE",
"1239 1055 LINE",
"1551 1055 LINE",
"1551 901 LINE",
"1200 901 LINE",
"1118 567 LINE",
"1436 567 LINE",
"1436 414 LINE",
"1079 414 LINE",
"975 0 LINE",
"815 0 LINE",
"918 414 LINE",
"625 414 LINE",
"522 0 LINE",
"361 0 LINE",
"465 414 LINE",
"150 414 LINE",
"150 567 LINE",
"502 567 LINE",
"586 901 LINE",
"264 901 LINE",
"264 1055 LINE",
"625 1055 LINE",
"727 1470 LINE"
);
}
);
width = 1701;
}
);
unicode = 0023;
},
{
glyphname = dollar;
lastChange = "2012-10-19 18:19:10 -0500";
layers = (
{
layerId = "6B6936E6-7670-4A82-900D-EAF583C971AF";
name = Regular;
paths = (
{
closed = 1;
nodes = (
"715 -294 LINE",
"535 -291 LINE",
"559 10 LINE",
"432 14 OFFCURVE",
"290 46 OFFCURVE",
"150 109 CURVE",
"154 349 LINE",
"289 261 OFFCURVE",
"429 215 OFFCURVE",
"564 212 CURVE",
"571 607 LINE",
"290 660 OFFCURVE",
"174 773 OFFCURVE",
"165 973 CURVE",
"169 1190 OFFCURVE",
"321 1317 OFFCURVE",
"593 1330 CURVE",
"597 1565 LINE",
"697 1563 LINE",
"693 1331 LINE",
"817 1324 OFFCURVE",
"933 1302 OFFCURVE",
"1042 1263 CURVE",
"1039 1108 LINE",
"930 1167 OFFCURVE",
"814 1199 OFFCURVE",
"691 1206 CURVE",
"683 740 LINE",
"986 688 OFFCURVE",
"1109 589 OFFCURVE",
"1118 381 CURVE",
"1114 156 OFFCURVE",
"947 25 OFFCURVE",
"700 9 CURVE"
);
},
{
closed = 1;
nodes = (
"575 1200 LINE",
"407 1183 OFFCURVE",
"307 1090 OFFCURVE",
"307 973 CURVE SMOOTH",
"307 858 OFFCURVE",
"398 778 OFFCURVE",
"565 750 CURVE"
);
},
{
closed = 1;
nodes = (
"685 205 LINE",
"828 228 OFFCURVE",
"921 242 OFFCURVE",
"921 362 CURVE SMOOTH",
"921 479 OFFCURVE",
"839 546 OFFCURVE",
"675 578 CURVE"
);
}
);
width = 1268;
}
);
unicode = 0024;
},
{
glyphname = percent;
lastChange = "2012-10-19 18:25:42 -0500";
layers = (
{
layerId = "6B6936E6-7670-4A82-900D-EAF583C971AF";
name = Regular;
paths = (
{
closed = 1;
nodes = (
"1410 657 OFFCURVE",
"1340 560 OFFCURVE",
"1340 397 CURVE SMOOTH",
"1340 236 OFFCURVE",
"1410 137 OFFCURVE",
"1526 137 CURVE SMOOTH",
"1639 137 OFFCURVE",
"1710 236 OFFCURVE",
"1710 397 CURVE SMOOTH",
"1710 558 OFFCURVE",
"1639 657 OFFCURVE",
"1526 657 CURVE SMOOTH"
);
},
{
closed = 1;
nodes = (
"1737 784 OFFCURVE",
"1870 626 OFFCURVE",
"1870 377 CURVE SMOOTH",
"1870 128 OFFCURVE",
"1735 -29 OFFCURVE",
"1526 -29 CURVE SMOOTH",
"1313 -29 OFFCURVE",
"1180 128 OFFCURVE",
"1180 377 CURVE SMOOTH",
"1180 628 OFFCURVE",
"1314 784 OFFCURVE",
"1526 784 CURVE SMOOTH"
);
},
{
closed = 1;
nodes = (
"379 1393 OFFCURVE",
"309 1289 OFFCURVE",
"309 1120 CURVE SMOOTH",
"309 948 OFFCURVE",
"378 846 OFFCURVE",
"494 846 CURVE SMOOTH",
"610 846 OFFCURVE",
"680 948 OFFCURVE",
"680 1120 CURVE SMOOTH",
"680 1288 OFFCURVE",
"609 1393 OFFCURVE",
"494 1393 CURVE SMOOTH"
);
},
{
closed = 1;
nodes = (
"1406 1520 LINE",
"1567 1520 LINE",
"624 -29 LINE",
"463 -29 LINE"
);
},
{
closed = 1;
nodes = (
"705 1520 OFFCURVE",
"840 1363 OFFCURVE",
"840 1114 CURVE SMOOTH",
"840 862 OFFCURVE",
"706 707 OFFCURVE",
"494 707 CURVE SMOOTH",
"282 707 OFFCURVE",
"150 863 OFFCURVE",
"150 1114 CURVE SMOOTH",
"150 1362 OFFCURVE",
"283 1520 OFFCURVE",
"494 1520 CURVE SMOOTH"
);
}
);
width = 2020;
}
);
unicode = 0025;
},
{
glyphname = ampersand;
lastChange = "2012-10-19 18:21:06 -0500";
layers = (
{
layerId = "6B6936E6-7670-4A82-900D-EAF583C971AF";
name = Regular;
paths = (
{
closed = 1;
nodes = (
"471 843 LINE",
"348 734 OFFCURVE",
"293 629 OFFCURVE",
"293 510 CURVE SMOOTH",
"293 314 OFFCURVE",
"453 167 OFFCURVE",
"668 167 CURVE SMOOTH",
"796 167 OFFCURVE",
"908 210 OFFCURVE",
"1005 295 CURVE"
);
},
{
closed = 1;
nodes = (
"1138 415 LINE",
"1217 534 OFFCURVE",
"1231 649 OFFCURVE",
"1239 801 CURVE",
"1425 801 LINE",
"1409 625 OFFCURVE",
"1400 453 OFFCURVE",
"1276 285 CURVE",
"1555 0 LINE",
"1303 0 LINE",
"1160 147 LINE",
"1021 28 OFFCURVE",
"872 -29 OFFCURVE",
"697 -29 CURVE SMOOTH",
"376 -29 OFFCURVE",
"150 174 OFFCURVE",
"150 461 CURVE SMOOTH",
"150 632 OFFCURVE",
"239 781 OFFCURVE",
"418 913 CURVE",
"354 997 OFFCURVE",
"320 1081 OFFCURVE",
"320 1161 CURVE SMOOTH",
"320 1377 OFFCURVE",
"481 1520 OFFCURVE",
"726 1520 CURVE SMOOTH",
"837 1520 OFFCURVE",
"946 1496 OFFCURVE",
"1059 1448 CURVE",
"989 1306 LINE",
"873 1369 OFFCURVE",
"767 1402 OFFCURVE",
"676 1402 CURVE SMOOTH",
"536 1402 OFFCURVE",
"440 1320 OFFCURVE",
"440 1203 CURVE SMOOTH",
"440 1169 OFFCURVE",
"450 1135 OFFCURVE",
"470 1101 CURVE SMOOTH",
"489 1066 OFFCURVE",
"529 1018 OFFCURVE",
"590 955 CURVE SMOOTH"
);
}
);
width = 1705;
}
);
unicode = 0026;
},
{
glyphname = quotesingle;
lastChange = "2012-10-19 18:25:50 -0500";
layers = (
{
layerId = "6B6936E6-7670-4A82-900D-EAF583C971AF";
name = Regular;
paths = (
{
closed = 1;
nodes = (
"320 1493 LINE",
"320 938 LINE",
"150 938 LINE",
"150 1493 LINE"
);
}
);
width = 470;
}
);
unicode = 0027;
},
{
glyphname = parenleft;
lastChange = "2012-10-19 18:25:55 -0500";
layers = (
{
layerId = "6B6936E6-7670-4A82-900D-EAF583C971AF";
name = Regular;
paths = (
{
closed = 1;
nodes = (
"687 1547 LINE",
"482 1258 OFFCURVE",
"367 970 OFFCURVE",
"354 663 CURVE",
"367 355 OFFCURVE",
"397 50 OFFCURVE",
"548 -270 CURVE",
"338 -256 LINE",
"206 73 OFFCURVE",
"150 381 OFFCURVE",
"150 680 CURVE",
"175 976 OFFCURVE",
"299 1265 OFFCURVE",
"527 1561 CURVE"
);
}
);
width = 724;
}
);
unicode = 0028;
},
{
glyphname = parenright;
lastChange = "2012-10-19 18:26:08 -0500";
layers = (
{
layerId = "6B6936E6-7670-4A82-900D-EAF583C971AF";
name = Regular;
paths = (
{
closed = 1;
nodes = (
"355 1573 LINE",
"527 1242 OFFCURVE",
"573 936 OFFCURVE",
"574 640 CURVE SMOOTH",
"574 341 OFFCURVE",
"426 51 OFFCURVE",
"266 -244 CURVE",
"37 -230 LINE",
"240 59 OFFCURVE",
"352 349 OFFCURVE",
"380 657 CURVE",
"380 964 OFFCURVE",
"345 1266 OFFCURVE",
"196 1587 CURVE"
);
}
);
width = 724;
}
);
unicode = 0029;
},
{
glyphname = asterisk;
lastChange = "2012-10-19 18:26:13 -0500";
layers = (
{
layerId = "6B6936E6-7670-4A82-900D-EAF583C971AF";
name = Regular;
paths = (
{
closed = 1;
nodes = (
"1082 1247 LINE",
"723 1053 LINE",
"1122 898 LINE",
"1024 760 LINE",
"688 963 LINE",
"728 616 LINE",
"574 586 LINE",
"574 963 LINE",
"278 720 LINE",
"180 858 LINE",
"539 1053 LINE",
"150 1207 LINE",
"238 1346 LINE",
"574 1143 LINE",
"534 1480 LINE",
"688 1520 LINE",
"688 1143 LINE",
"1064 1386 LINE"
);
}
);
width = 1272;
}
);
unicode = 002A;
},
{
glyphname = plus;
lastChange = "2012-10-19 18:26:18 -0500";
layers = (
{
layerId = "6B6936E6-7670-4A82-900D-EAF583C971AF";
name = Regular;
paths = (
{
closed = 1;
nodes = (
"875 1284 LINE",
"875 727 LINE",
"1432 727 LINE",
"1432 557 LINE",
"875 557 LINE",
"875 0 LINE",
"707 0 LINE",
"707 557 LINE",
"150 557 LINE",
"150 727 LINE",
"707 727 LINE",
"707 1284 LINE"
);
}
);
width = 1582;
}
);
unicode = 002B;
},
{
glyphname = comma;
lastChange = "2012-12-05 11:01:13 -0500";
layers = (
{
anchors = (
{
name = _comma;
position = "{380, 244}";
}
);
layerId = "6B6936E6-7670-4A82-900D-EAF583C971AF";
name = Regular;
paths = (
{
closed = 1;
nodes = (
"252 244 LINE",
"503 244 LINE",
"503 32 LINE",
"279 -288 LINE",
"150 -288 LINE",
"252 32 LINE"
);
}
);
width = 653;
}
);
unicode = 002C;
},
{
glyphname = hyphen;
lastChange = "2012-10-19 18:26:35 -0500";
layers = (
{
layerId = "6B6936E6-7670-4A82-900D-EAF583C971AF";
name = Regular;
paths = (
{
closed = 1;
nodes = (
"157 643 LINE",
"696 653 LINE",
"689 488 LINE",
"150 479 LINE"
);
}
);
width = 846;
}
);
unicode = 002D;
},
{
glyphname = period;
lastChange = "2012-12-04 09:58:56 -0500";
layers = (
{
layerId = "6B6936E6-7670-4A82-900D-EAF583C971AF";
name = Regular;
paths = (
{
closed = 1;
nodes = (
"150 323 LINE",
"449 323 LINE",
"449 0 LINE",
"150 0 LINE"
);
}
);
width = 599;
}
);
unicode = 002E;
},
{
glyphname = slash;
lastChange = "2012-10-19 18:26:48 -0500";
layers = (
{
layerId = "6B6936E6-7670-4A82-900D-EAF583C971AF";
name = Regular;
paths = (
{
closed = 1;
nodes = (
"728 1474 LINE",
"878 1469 LINE",
"380 -198 LINE",
"150 -190 LINE"
);
}
);
width = 1028;
}
);
unicode = 002F;
},
{
color = 6;
glyphname = zero;
lastChange = "2013-12-11 17:14:17 -0500";
layers = (
{
layerId = "6B6936E6-7670-4A82-900D-EAF583C971AF";
name = Regular;
paths = (
{
closed = 1;
nodes = (
"468 1440 OFFCURVE",
"363 1257 OFFCURVE",
"363 890 CURVE SMOOTH",
"363 511 OFFCURVE",
"448 341 OFFCURVE",
"656 341 CURVE SMOOTH",
"865 341 OFFCURVE",
"963 525 OFFCURVE",
"990 890 CURVE",
"990 1257 OFFCURVE",
"885 1440 OFFCURVE",
"676 1440 CURVE SMOOTH"
);
},
{
closed = 1;
nodes = (
"1011 1520 OFFCURVE",
"1182 1249 OFFCURVE",
"1182 745 CURVE SMOOTH",
"1169 242 OFFCURVE",
"991 -29 OFFCURVE",
"656 -29 CURVE SMOOTH",
"321 -29 OFFCURVE",
"150 242 OFFCURVE",
"150 745 CURVE SMOOTH",
"163 1249 OFFCURVE",
"341 1520 OFFCURVE",
"676 1520 CURVE SMOOTH"
);
},
{
closed = 1;
nodes = (
"754 663 OFFCURVE",
"774 764 OFFCURVE",
"774 839 CURVE SMOOTH",
"774 984 OFFCURVE",
"754 1072 OFFCURVE",
"669 1072 CURVE SMOOTH",
"575 1072 OFFCURVE",
"563 956 OFFCURVE",
"563 839 CURVE SMOOTH",
"563 764 OFFCURVE",
"584 663 OFFCURVE",
"669 663 CURVE SMOOTH"
);
}
);
width = 1332;
}
);
unicode = 0030;
},
{
color = 6;
glyphname = one;
lastChange = "2012-10-19 22:29:47 -0500";
layers = (
{
layerId = "6B6936E6-7670-4A82-900D-EAF583C971AF";
name = Regular;
paths = (
{
closed = 1;
nodes = (
"179 280 LINE",
"509 280 LINE",
"509 1309 LINE",
"150 1237 LINE",
"150 1421 LINE",
"507 1493 LINE",
"709 1493 LINE",
"709 280 LINE",
"1039 280 LINE",
"1039 0 LINE",
"179 0 LINE"
);
}
);
width = 1189;
}
);
unicode = 0031;
},
{
color = 6;
glyphname = two;
lastChange = "2012-10-19 22:29:47 -0500";
layers = (
{
layerId = "6B6936E6-7670-4A82-900D-EAF583C971AF";
name = Regular;
paths = (
{
closed = 1;
nodes = (
"1098 290 LINE",
"1098 0 LINE",
"150 0 LINE",
"150 290 LINE",
"255 377 OFFCURVE",
"366 465 OFFCURVE",
"485 555 CURVE SMOOTH",
"721 735 OFFCURVE",
"797 832 OFFCURVE",
"849 933 CURVE SMOOTH",
"874 983 OFFCURVE",
"887 1032 OFFCURVE",
"887 1081 CURVE SMOOTH",
"887 1240 OFFCURVE",
"765 1350 OFFCURVE",
"586 1350 CURVE SMOOTH",
"459 1350 OFFCURVE",
"320 1306 OFFCURVE",
"160 1217 CURVE",
"160 1421 LINE",
"323 1486 OFFCURVE",
"465 1520 OFFCURVE",
"582 1520 CURVE SMOOTH",
"891 1520 OFFCURVE",
"1090 1353 OFFCURVE",
"1090 1094 CURVE SMOOTH",
"1090 971 OFFCURVE",
"1051 874 OFFCURVE",
"930 725 CURVE",
"913 706 OFFCURVE",
"860 650 OFFCURVE",
"771 558 CURVE SMOOTH",
"682 465 OFFCURVE",
"626 376 OFFCURVE",
"603 290 CURVE"
);
}
);
width = 1248;
}
);
unicode = 0032;
},
{
color = 6;
glyphname = three;
lastChange = "2012-10-19 22:29:47 -0500";
layers = (
{
layerId = "6B6936E6-7670-4A82-900D-EAF583C971AF";
name = Regular;
paths = (
{
closed = 1;
nodes = (
"1018 790 OFFCURVE",
"1133 646 OFFCURVE",
"1133 454 CURVE SMOOTH",
"1133 133 OFFCURVE",
"922 -29 OFFCURVE",
"549 -29 CURVE SMOOTH",
"424 -29 OFFCURVE",
"291 -4 OFFCURVE",
"150 45 CURVE",
"150 360 LINE",
"262 295 OFFCURVE",
"398 261 OFFCURVE",
"543 261 CURVE SMOOTH",
"670 261 OFFCURVE",
"766 289 OFFCURVE",
"833 346 CURVE SMOOTH",
"899 403 OFFCURVE",
"932 449 OFFCURVE",
"932 484 CURVE SMOOTH",
"932 620 OFFCURVE",
"802 735 OFFCURVE",
"582 735 CURVE SMOOTH",
"408 735 LINE",
"408 901 LINE",
"590 901 LINE SMOOTH",
"789 901 OFFCURVE",
"897 983 OFFCURVE",
"897 1132 CURVE SMOOTH",
"897 1285 OFFCURVE",
"785 1370 OFFCURVE",
"582 1370 CURVE SMOOTH",
"471 1370 OFFCURVE",
"347 1347 OFFCURVE",
"195 1296 CURVE",
"195 1456 LINE",
"348 1499 OFFCURVE",
"481 1520 OFFCURVE",
"600 1520 CURVE SMOOTH",
"907 1520 OFFCURVE",
"1098 1370 OFFCURVE",
"1098 1133 CURVE SMOOTH",
"1098 968 OFFCURVE",
"1000 849 OFFCURVE",
"825 805 CURVE"
);
}
);
width = 1283;
}
);
unicode = 0033;
},
{
color = 6;
glyphname = four;
lastChange = "2012-10-19 22:29:47 -0500";
layers = (
{
layerId = "6B6936E6-7670-4A82-900D-EAF583C971AF";
name = Regular;
paths = (
{
closed = 1;
nodes = (
"824 1387 LINE",
"314 590 LINE",
"814 590 LINE"
);
},
{
closed = 1;
nodes = (
"771 1493 LINE",
"1025 1493 LINE",
"1035 590 LINE",
"1238 590 LINE",
"1238 422 LINE",
"1035 422 LINE",
"1055 0 LINE",
"784 0 LINE",
"804 422 LINE",
"150 422 LINE",
"150 547 LINE"
);
}
);
width = 1388;
}
);
unicode = 0034;
},
{
color = 6;
glyphname = five;
lastChange = "2012-10-19 22:29:47 -0500";
layers = (
{
layerId = "6B6936E6-7670-4A82-900D-EAF583C971AF";
name = Regular;
paths = (
{
closed = 1;
nodes = (
"213 1493 LINE",
"1006 1493 LINE",
"1006 1343 LINE",
"378 1343 LINE",
"378 957 LINE",
"463 977 OFFCURVE",
"515 987 OFFCURVE",
"574 987 CURVE SMOOTH",
"907 987 OFFCURVE",
"1116 791 OFFCURVE",
"1116 479 CURVE SMOOTH",
"1116 158 OFFCURVE",
"907 -29 OFFCURVE",
"543 -29 CURVE SMOOTH",
"418 -29 OFFCURVE",
"289 -8 OFFCURVE",
"150 35 CURVE",
"150 348 LINE",
"270 283 OFFCURVE",
"396 251 OFFCURVE",
"539 251 CURVE SMOOTH",
"770 251 OFFCURVE",
"904 408 OFFCURVE",
"904 509 CURVE SMOOTH",
"904 717 OFFCURVE",
"770 817 OFFCURVE",
"539 817 CURVE SMOOTH",
"431 817 OFFCURVE",
"325 794 OFFCURVE",
"213 743 CURVE"
);
}
);
width = 1266;
}
);
unicode = 0035;
},
{
color = 6;
glyphname = six;
lastChange = "2012-10-19 22:29:47 -0500";
layers = (
{
layerId = "6B6936E6-7670-4A82-900D-EAF583C971AF";
name = Regular;
paths = (
{
closed = 1;
nodes = (
"502 827 OFFCURVE",
"388 695 OFFCURVE",
"388 479 CURVE SMOOTH",
"388 344 OFFCURVE",
"502 261 OFFCURVE",
"683 261 CURVE SMOOTH",
"864 261 OFFCURVE",
"978 344 OFFCURVE",
"978 479 CURVE SMOOTH",
"978 695 OFFCURVE",
"864 827 OFFCURVE",
"683 827 CURVE SMOOTH"
);
},
{
closed = 1;
nodes = (
"1084 1276 LINE",
"983 1324 OFFCURVE",
"878 1350 OFFCURVE",
"777 1350 CURVE SMOOTH",
"510 1350 OFFCURVE",
"371 1171 OFFCURVE",
"351 807 CURVE",
"430 923 OFFCURVE",
"552 987 OFFCURVE",
"695 987 CURVE SMOOTH",
"995 987 OFFCURVE",
"1181 792 OFFCURVE",
"1181 479 CURVE SMOOTH",
"1181 172 OFFCURVE",
"984 -29 OFFCURVE",
"683 -29 CURVE SMOOTH",
"338 -29 OFFCURVE",
"150 242 OFFCURVE",
"150 745 CURVE SMOOTH",
"150 1217 OFFCURVE",
"392 1520 OFFCURVE",
"769 1520 CURVE SMOOTH",
"870 1520 OFFCURVE",
"972 1500 OFFCURVE",
"1084 1460 CURVE"
);
}
);
width = 1331;
}
);
unicode = 0036;
},
{
color = 6;
glyphname = seven;
lastChange = "2012-10-19 22:29:47 -0500";
layers = (
{
layerId = "6B6936E6-7670-4A82-900D-EAF583C971AF";
name = Regular;
paths = (
{
closed = 1;
nodes = (
"150 1493 LINE",
"1100 1493 LINE",
"1100 1407 LINE",
"728 0 LINE",
"367 0 LINE",
"917 1343 LINE",
"150 1343 LINE"
);
}
);
width = 1250;
}
);
unicode = 0037;
},
{
color = 6;
glyphname = eight;
lastChange = "2012-10-19 22:29:47 -0500";
layers = (
{
layerId = "6B6936E6-7670-4A82-900D-EAF583C971AF";
name = Regular;
paths = (
{
closed = 1;
nodes = (
"490 729 OFFCURVE",
"373 620 OFFCURVE",
"373 440 CURVE SMOOTH",
"373 340 OFFCURVE",
"490 221 OFFCURVE",
"682 221 CURVE SMOOTH",
"874 221 OFFCURVE",
"992 341 OFFCURVE",
"992 440 CURVE SMOOTH",
"992 620 OFFCURVE",
"875 729 OFFCURVE",
"682 729 CURVE SMOOTH"
);
},
{
closed = 1;
nodes = (
"307 838 OFFCURVE",
"225 962 OFFCURVE",
"225 1133 CURVE SMOOTH",
"225 1345 OFFCURVE",
"386 1500 OFFCURVE",
"682 1500 CURVE SMOOTH",
"979 1500 OFFCURVE",
"1139 1345 OFFCURVE",
"1139 1133 CURVE SMOOTH",
"1139 962 OFFCURVE",
"1057 838 OFFCURVE",
"885 795 CURVE",
"1080 750 OFFCURVE",
"1214 611 OFFCURVE",
"1214 420 CURVE SMOOTH",
"1214 131 OFFCURVE",
"1011 -29 OFFCURVE",
"682 -29 CURVE SMOOTH",
"353 -29 OFFCURVE",
"150 131 OFFCURVE",
"150 420 CURVE SMOOTH",
"150 611 OFFCURVE",
"285 750 OFFCURVE",
"480 795 CURVE"
);
},
{
closed = 1;
nodes = (
"406 1019 OFFCURVE",
"507 928 OFFCURVE",
"682 928 CURVE SMOOTH",
"855 928 OFFCURVE",
"959 1019 OFFCURVE",
"959 1174 CURVE SMOOTH",
"959 1302 OFFCURVE",
"855 1400 OFFCURVE",
"682 1400 CURVE SMOOTH",
"507 1400 OFFCURVE",
"406 1302 OFFCURVE",
"406 1174 CURVE SMOOTH"
);
}
);
width = 1364;
}
);
unicode = 0038;
},
{
color = 6;
glyphname = nine;
lastChange = "2013-05-17 14:41:24 -0500";
layers = (
{
layerId = "6B6936E6-7670-4A82-900D-EAF583C971AF";
name = Regular;
paths = (
{
closed = 1;
nodes = (
"246 335 LINE",
"347 287 OFFCURVE",
"453 261 OFFCURVE",
"553 261 CURVE SMOOTH",
"820 261 OFFCURVE",
"959 319 OFFCURVE",
"979 684 CURVE",
"902 569 OFFCURVE",
"779 506 OFFCURVE",
"635 506 CURVE SMOOTH",
"336 506 OFFCURVE",
"150 699 OFFCURVE",
"150 1012 CURVE SMOOTH",
"150 1319 OFFCURVE",
"347 1520 OFFCURVE",
"648 1520 CURVE SMOOTH",
"993 1520 OFFCURVE",
"1180 1249 OFFCURVE",
"1180 745 CURVE SMOOTH",
"1180 274 OFFCURVE",
"939 -29 OFFCURVE",
"562 -29 CURVE SMOOTH",
"461 -29 OFFCURVE",
"358 -9 OFFCURVE",
"246 31 CURVE"
);
},
{
closed = 1;
nodes = (
"851 806 OFFCURVE",
"990 828 OFFCURVE",
"990 1044 CURVE SMOOTH",
"990 1259 OFFCURVE",
"851 1392 OFFCURVE",
"631 1392 CURVE SMOOTH",
"410 1392 OFFCURVE",
"271 1259 OFFCURVE",
"271 1044 CURVE SMOOTH",
"271 828 OFFCURVE",
"410 806 OFFCURVE",
"631 806 CURVE SMOOTH"
);
}
);
width = 1330;
}
);
unicode = 0039;
},
{
glyphname = colon;
lastChange = "2012-10-19 18:29:18 -0500";
layers = (
{
layerId = "6B6936E6-7670-4A82-900D-EAF583C971AF";
name = Regular;
paths = (
{
closed = 1;
nodes = (
"150 306 LINE",
"411 306 LINE",
"411 0 LINE",
"150 0 LINE"
);
},
{
closed = 1;
nodes = (
"150 1101 LINE",
"411 1101 LINE",
"411 816 LINE",
"150 816 LINE"
);
}
);
width = 561;
}
);
unicode = 003A;
},
{
glyphname = semicolon;
lastChange = "2012-10-19 18:29:24 -0500";
layers = (
{
layerId = "6B6936E6-7670-4A82-900D-EAF583C971AF";
name = Regular;
paths = (
{
closed = 1;
nodes = (
"236 1096 LINE",
"479 1096 LINE",
"479 803 LINE",
"236 803 LINE"
);
},
{
closed = 1;
nodes = (
"241 218 LINE",
"475 218 LINE",
"475 27 LINE",
"293 -328 LINE",
"150 -328 LINE",
"241 27 LINE"
);
}
);
width = 629;
}
);
unicode = 003B;
},
{
glyphname = less;
lastChange = "2012-10-19 18:29:30 -0500";
layers = (
{
layerId = "6B6936E6-7670-4A82-900D-EAF583C971AF";
name = Regular;
paths = (
{
closed = 1;
nodes = (
"1471 987 LINE",
"411 711 LINE",
"1408 258 LINE",
"1387 17 LINE",
"150 591 LINE",
"170 817 LINE",
"1487 1168 LINE"
);
}
);
width = 1637;
}
);
unicode = 003C;
},
{
glyphname = equal;
lastChange = "2012-10-19 18:29:35 -0500";
layers = (
{
layerId = "6B6936E6-7670-4A82-900D-EAF583C971AF";
name = Regular;
paths = (
{
closed = 1;
nodes = (
"150 930 LINE",
"1432 930 LINE",
"1432 762 LINE",
"150 762 LINE"
);
},
{
closed = 1;
nodes = (
"150 552 LINE",
"1432 552 LINE",
"1432 352 LINE",
"150 352 LINE"
);
}
);
width = 1582;
}
);
unicode = 003D;
},
{
glyphname = greater;
lastChange = "2012-10-19 18:29:44 -0500";
layers = (
{
layerId = "6B6936E6-7670-4A82-900D-EAF583C971AF";
name = Regular;
paths = (
{
closed = 1;
nodes = (
"235 1107 LINE",
"251 1289 LINE",
"1487 714 LINE",
"1468 488 LINE",
"150 137 LINE",
"171 378 LINE",
"1229 652 LINE"
);
}
);
width = 1637;
}
);
unicode = 003E;
},
{
glyphname = question;
lastChange = "2012-10-19 18:29:50 -0500";
layers = (
{
layerId = "6B6936E6-7670-4A82-900D-EAF583C971AF";
name = Regular;
paths = (
{
closed = 1;
nodes = (
"334 274 LINE",
"597 274 LINE",
"597 -10 LINE",
"334 -10 LINE"
);
},
{
closed = 1;
nodes = (
"601 401 LINE",
"340 401 LINE",
"340 555 LINE SMOOTH",
"340 690 OFFCURVE",
"366 767 OFFCURVE",
"486 882 CURVE",
"586 971 LINE",
"689 1055 OFFCURVE",
"731 1092 OFFCURVE",
"744 1157 CURVE",
"744 1276 OFFCURVE",
"649 1386 OFFCURVE",
"505 1386 CURVE SMOOTH",
"400 1386 OFFCURVE",
"279 1338 OFFCURVE",
"150 1249 CURVE",
"150 1407 LINE",
"275 1483 OFFCURVE",
"403 1520 OFFCURVE",
"540 1520 CURVE SMOOTH",
"785 1520 OFFCURVE",
"937 1379 OFFCURVE",
"937 1167 CURVE SMOOTH",
"937 1066 OFFCURVE",
"872 983 OFFCURVE",
"765 868 CURVE SMOOTH",
"687 782 LINE",
"669 751 OFFCURVE",
"654 726 OFFCURVE",
"641 709 CURVE SMOOTH",
"615 673 OFFCURVE",
"608 646 OFFCURVE",
"604 606 CURVE SMOOTH",
"602 586 OFFCURVE",
"601 559 OFFCURVE",
"601 524 CURVE SMOOTH"
);
}
);
width = 1087;
}
);
unicode = 003F;
},
{
glyphname = at;
lastChange = "2012-10-19 18:29:57 -0500";
layers = (
{
layerId = "6B6936E6-7670-4A82-900D-EAF583C971AF";
name = Regular;
paths = (
{
closed = 1;
nodes = (
"747 448 OFFCURVE",
"848 345 OFFCURVE",
"1013 345 CURVE SMOOTH",
"1177 345 OFFCURVE",
"1277 450 OFFCURVE",
"1277 619 CURVE SMOOTH",
"1277 786 OFFCURVE",
"1174 892 OFFCURVE",
"1011 892 CURVE SMOOTH",
"850 892 OFFCURVE",
"747 787 OFFCURVE",
"747 619 CURVE SMOOTH"
);
},
{
closed = 1;
nodes = (
"1322 238 LINE",
"1242 135 OFFCURVE",
"1141 88 OFFCURVE",
"1004 88 CURVE SMOOTH",
"775 88 OFFCURVE",
"617 270 OFFCURVE",
"617 537 CURVE SMOOTH",
"617 804 OFFCURVE",
"776 987 OFFCURVE",
"1004 987 CURVE SMOOTH",
"1141 987 OFFCURVE",
"1243 937 OFFCURVE",
"1322 836 CURVE",
"1322 967 LINE",
"1465 967 LINE",
"1465 231 LINE",
"1660 260 OFFCURVE",
"1776 417 OFFCURVE",
"1776 653 CURVE SMOOTH",
"1776 796 OFFCURVE",
"1734 921 OFFCURVE",
"1649 1028 CURVE SMOOTH",
"1510 1203 OFFCURVE",
"1305 1298 OFFCURVE",
"1070 1298 CURVE SMOOTH",
"906 1298 OFFCURVE",
"753 1254 OFFCURVE",
"625 1169 CURVE SMOOTH",
"416 1033 OFFCURVE",
"291 800 OFFCURVE",
"291 543 CURVE SMOOTH",
"291 331 OFFCURVE",
"363 231 OFFCURVE",
"535 50 CURVE SMOOTH",
"675 -89 OFFCURVE",
"844 -133 OFFCURVE",
"1053 -133 CURVE SMOOTH",
"1225 -133 OFFCURVE",
"1396 -83 OFFCURVE",
"1535 25 CURVE",
"1625 -156 LINE",
"1458 -285 OFFCURVE",
"1256 -356 OFFCURVE",
"1053 -356 CURVE SMOOTH",
"806 -356 OFFCURVE",
"583 -267 OFFCURVE",
"412 -100 CURVE SMOOTH",
"241 67 OFFCURVE",
"150 291 OFFCURVE",
"150 543 CURVE SMOOTH",
"150 786 OFFCURVE",
"244 1013 OFFCURVE",
"412 1180 CURVE SMOOTH",
"584 1349 OFFCURVE",
"816 1442 OFFCURVE",
"1068 1442 CURVE SMOOTH",
"1351 1442 OFFCURVE",
"1602 1321 OFFCURVE",
"1766 1108 CURVE SMOOTH",
"1866 977 OFFCURVE",
"1920 821 OFFCURVE",
"1920 657 CURVE SMOOTH",
"1920 306 OFFCURVE",
"1695 92 OFFCURVE",
"1322 84 CURVE"
);
}
);
width = 2070;
}
);
unicode = 0040;
},
{
color = 6;
glyphname = A;
lastChange = "2013-03-08 11:22:27 -0500";
layers = (
{
anchors = (
{
name = dotbelowcomb;
position = "{847.427, 14.6616}";
},
{
name = ogonek;
position = "{1303, 0}";
},
{
name = top;
position = "{845, 1395}";
}
);
layerId = "6B6936E6-7670-4A82-900D-EAF583C971AF";
name = Regular;
paths = (
{
closed = 1;
nodes = (
"834 1309 LINE",
"560 481 LINE",
"1109 481 LINE"
);
},
{
closed = 1;
nodes = (
"740 1493 LINE",
"929 1493 LINE",
"1518 0 LINE",
"1228 0 LINE",
"1172 243 LINE",
"499 243 LINE",
"423 0 LINE",
"150 0 LINE"
);
}
);
width = 1668;
}
);
unicode = 0041;
},
{
color = 6;
glyphname = B;
lastChange = "2012-11-09 12:32:30 -0500";
layers = (
{
layerId = "6B6936E6-7670-4A82-900D-EAF583C971AF";
name = Regular;
paths = (
{
closed = 1;
nodes = (
"352 713 LINE",
"352 296 LINE",
"676 296 LINE SMOOTH",
"893 296 OFFCURVE",
"996 345 OFFCURVE",
"996 530 CURVE SMOOTH",
"996 563 OFFCURVE",
"970 602 OFFCURVE",
"918 647 CURVE SMOOTH",
"865 691 OFFCURVE",
"785 713 OFFCURVE",
"676 713 CURVE SMOOTH"
);
},
{
closed = 1;
nodes = (
"352 1357 LINE",
"352 877 LINE",
"651 877 LINE SMOOTH",
"848 877 OFFCURVE",
"944 950 OFFCURVE",
"944 1102 CURVE SMOOTH",
"944 1253 OFFCURVE",
"848 1357 OFFCURVE",
"651 1357 CURVE SMOOTH"
);
},
{
closed = 1;
nodes = (
"150 1493 LINE",
"616 1493 LINE SMOOTH",
"924 1493 OFFCURVE",
"1097 1360 OFFCURVE",
"1097 1124 CURVE SMOOTH",
"1097 941 OFFCURVE",
"1010 832 OFFCURVE",
"845 805 CURVE",
"1110 762 OFFCURVE",
"1229 621 OFFCURVE",
"1229 418 CURVE SMOOTH",
"1229 151 OFFCURVE",
"1021 0 OFFCURVE",
"686 0 CURVE SMOOTH",
"150 0 LINE"
);
}
);
width = 1379;
}
);
unicode = 0042;
},
{
color = 6;
glyphname = C;
lastChange = "2012-11-09 12:32:30 -0500";
layers = (
{
anchors = (
{
name = bottom;
position = "{783, 0}";
},
{
name = top;
position = "{783, 1493}";
}
);
layerId = "6B6936E6-7670-4A82-900D-EAF583C971AF";
name = Regular;
paths = (
{
closed = 1;
nodes = (
"1354 1165 LINE",
"1218 1292 OFFCURVE",
"1064 1354 OFFCURVE",
"891 1354 CURVE SMOOTH",
"550 1354 OFFCURVE",
"363 1140 OFFCURVE",
"363 745 CURVE SMOOTH",
"368 396 OFFCURVE",
"550 277 OFFCURVE",
"891 277 CURVE SMOOTH",
"1064 277 OFFCURVE",
"1218 339 OFFCURVE",
"1354 466 CURVE",
"1354 115 LINE",
"1213 19 OFFCURVE",
"1055 -29 OFFCURVE",
"879 -29 CURVE SMOOTH",
"427 -29 OFFCURVE",
"150 266 OFFCURVE",
"150 745 CURVE SMOOTH",
"150 1225 OFFCURVE",
"427 1520 OFFCURVE",
"879 1520 CURVE SMOOTH",
"1058 1520 OFFCURVE",
"1215 1473 OFFCURVE",
"1354 1378 CURVE"
);
}
);
width = 1504;
}
);
unicode = 0043;
},
{
color = 6;
glyphname = D;
lastChange = "2013-07-07 14:09:27 -0500";
layers = (
{
anchors = (
{
name = center;
position = "{724, 747}";
},
{
name = top;
position = "{724, 1493}";
}
);
layerId = "6B6936E6-7670-4A82-900D-EAF583C971AF";
name = Regular;
paths = (
{
closed = 1;
nodes = (
"362 1327 LINE",
"362 376 LINE",
"606 376 LINE SMOOTH",
"1018 376 OFFCURVE",
"1168 463 OFFCURVE",
"1199 768 CURVE",
"1199 1141 OFFCURVE",
"1018 1327 OFFCURVE",
"606 1327 CURVE SMOOTH"
);
},
{
closed = 1;
nodes = (
"150 1493 LINE",
"565 1493 LINE SMOOTH",
"1144 1493 OFFCURVE",
"1405 1260 OFFCURVE",
"1405 748 CURVE SMOOTH",
"1405 233 OFFCURVE",
"1141 0 OFFCURVE",
"565 0 CURVE SMOOTH",
"150 0 LINE"
);
}
);
width = 1555;
}
);
unicode = 0044;
},
{
color = 6;
glyphname = E;
lastChange = "2012-12-05 10:44:53 -0500";
layers = (
{
anchors = (
{
name = bottom;
position = "{679, 0}";
},
{
name = ogonek;
position = "{678, 0}";
},
{
name = top;
position = "{599, 1443}";
}
);
layerId = "6B6936E6-7670-4A82-900D-EAF583C971AF";
name = Regular;
paths = (
{
closed = 1;
nodes = (
"150 1493 LINE",
"1094 1493 LINE",
"1094 1323 LINE",
"352 1323 LINE",
"352 881 LINE",
"1063 881 LINE",
"1063 711 LINE",
"352 711 LINE",
"352 310 LINE",
"1112 310 LINE",
"1112 0 LINE",
"150 0 LINE"
);
}
);
width = 1262;
}
);
unicode = 0045;
},
{
color = 6;
glyphname = F;
lastChange = "2012-11-09 12:32:30 -0500";
layers = (
{
layerId = "6B6936E6-7670-4A82-900D-EAF583C971AF";
name = Regular;
paths = (
{
closed = 1;
nodes = (
"190 1493 LINE",
"1008 1493 LINE",
"1008 1313 LINE",
"392 1313 LINE",
"372 883 LINE",
"954 883 LINE",
"954 673 LINE",
"382 673 LINE",
"402 0 LINE",
"150 0 LINE"
);
}
);
width = 1158;
}
);
unicode = 0046;
},
{
color = 6;
glyphname = G;
lastChange = "2012-11-09 12:32:30 -0500";
layers = (
{
anchors = (
{
name = bottom;
position = "{827, 0}";
},
{
name = top;
position = "{827, 1493}";
}
);
layerId = "6B6936E6-7670-4A82-900D-EAF583C971AF";
name = Regular;
paths = (
{
closed = 1;
nodes = (
"1224 534 LINE",
"904 534 LINE",
"904 750 LINE",
"1454 750 LINE",
"1454 139 LINE",
"1298 28 OFFCURVE",
"1108 -29 OFFCURVE",
"895 -29 CURVE SMOOTH",
"428 -29 OFFCURVE",
"150 258 OFFCURVE",
"150 745 CURVE SMOOTH",
"150 1233 OFFCURVE",
"428 1520 OFFCURVE",
"895 1520 CURVE SMOOTH",
"1090 1520 OFFCURVE",
"1267 1471 OFFCURVE",
"1415 1378 CURVE",
"1415 1183 LINE",
"1266 1310 OFFCURVE",
"1097 1374 OFFCURVE",
"912 1374 CURVE SMOOTH",
"547 1374 OFFCURVE",
"363 1169 OFFCURVE",
"363 765 CURVE",
"376 397 OFFCURVE",
"547 297 OFFCURVE",
"912 297 CURVE SMOOTH",
"1055 297 OFFCURVE",
"1175 321 OFFCURVE",
"1224 373 CURVE"
);
}
);
width = 1604;
}
);
unicode = 0047;
},
{
color = 6;
glyphname = H;
lastChange = "2012-11-09 12:32:30 -0500";
layers = (
{
anchors = (
{
name = center;
position = "{729, 747}";
},
{
name = top;
position = "{729, 1493}";
}
);
layerId = "6B6936E6-7670-4A82-900D-EAF583C971AF";
name = Regular;
paths = (
{
closed = 1;
nodes = (
"170 1493 LINE",
"382 1493 LINE",
"382 781 LINE",
"1076 781 LINE",
"1076 1493 LINE",
"1288 1493 LINE",
"1308 0 LINE",
"1076 0 LINE",
"1076 501 LINE",
"382 501 LINE",
"382 0 LINE",
"150 0 LINE"
);
}
);
width = 1458;
}
);
unicode = 0048;
},
{
color = 6;
glyphname = I;
lastChange = "2012-12-05 10:44:41 -0500";
layers = (
{
anchors = (
{
name = ogonek;
position = "{273, 0}";
},
{
name = top;
position = "{281, 1493}";
}
);
layerId = "6B6936E6-7670-4A82-900D-EAF583C971AF";
name = Regular;
paths = (
{
closed = 1;
nodes = (
"180 498 OFFCURVE",
"180 995 OFFCURVE",
"190 1493 CURVE",
"362 1493 LINE",
"369 995 OFFCURVE",
"365 498 OFFCURVE",
"392 0 CURVE",
"150 0 LINE"
);
}
);
width = 542;
}
);
unicode = 0049;
},
{
color = 6;
glyphname = J;
lastChange = "2012-11-09 12:32:30 -0500";
layers = (
{
anchors = (
{
name = top;
position = "{549, 1493}";
}
);
layerId = "6B6936E6-7670-4A82-900D-EAF583C971AF";
name = Regular;
paths = (
{
closed = 1;
nodes = (
"564 1495 LINE",
"776 1481 LINE",
"722 63 LINE SMOOTH",
"715 -297 OFFCURVE",
"587 -427 OFFCURVE",
"271 -432 CURVE",
"154 -420 LINE",
"150 -90 LINE",
"252 -112 LINE",
"431 -104 OFFCURVE",
"507 -9 OFFCURVE",
"510 76 CURVE SMOOTH"
);
}
);
width = 926;
}
);
unicode = 004A;
},
{
color = 6;
glyphname = K;
lastChange = "2012-11-09 12:32:30 -0500";
layers = (
{
anchors = (
{
name = bottom;
position = "{695, 0}";
},
{
name = top;
position = "{695, 1493}";
}
);
layerId = "6B6936E6-7670-4A82-900D-EAF583C971AF";
name = Regular;
paths = (
{
closed = 1;
nodes = (
"190 1493 LINE",
"392 1493 LINE",
"372 862 LINE",
"1042 1493 LINE",
"1302 1493 LINE",
"561 797 LINE",
"1355 0 LINE",
"879 0 LINE",
"372 719 LINE",
"412 0 LINE",
"150 0 LINE"
);
}
);
width = 1505;
}
);
unicode = 004B;
},
{
color = 6;
glyphname = L;
lastChange = "2013-04-21 00:40:52 -0500";
layers = (
{
anchors = (
{
name = "_ circumflexbelowcomb";
position = "{594, 0}";
},
{
name = top;
position = "{307, 1493}";
}
);
layerId = "6B6936E6-7670-4A82-900D-EAF583C971AF";
name = Regular;
paths = (
{
closed = 1;
nodes = (
"170 1493 LINE",
"372 1493 LINE",
"362 310 LINE",
"1089 310 LINE",
"1069 0 LINE",
"150 0 LINE"
);
}
);
width = 1239;
}
);
unicode = 004C;
},
{
color = 6;
glyphname = M;
lastChange = "2013-03-08 11:27:28 -0500";
layers = (
{
anchors = (
{
name = _top;
position = "{798.785, 1358.13}";
}
);
layerId = "6B6936E6-7670-4A82-900D-EAF583C971AF";
name = Regular;
paths = (
{
closed = 1;
nodes = (
"180 1493 LINE",
"481 1493 LINE",
"852 607 LINE",
"1245 1493 LINE",
"1526 1493 LINE",
"1556 0 LINE",
"1299 0 LINE",
"1339 1311 LINE",
"974 237 LINE",
"731 237 LINE",
"366 1311 LINE",
"406 0 LINE",
"150 0 LINE"
);
}
);
width = 1706;
}
);
unicode = 004D;
},
{
color = 6;
glyphname = N;
lastChange = "2013-03-08 11:08:54 -0500";
layers = (
{
anchors = (
{
name = _;
position = "{737, 0}";
},
{
name = top;
position = "{737, 1493}";
}
);
layerId = "6B6936E6-7670-4A82-900D-EAF583C971AF";
name = Regular;
paths = (
{
closed = 1;
nodes = (
"190 1463 LINE",
"442 1463 LINE",
"1084 284 LINE",
"1114 1493 LINE",
"1300 1493 LINE",
"1300 0 LINE",
"1008 0 LINE",
"346 1249 LINE",
"406 0 LINE",
"150 0 LINE"
);
}
);
width = 1450;
}
);
unicode = 004E;
},
{
color = 6;
glyphname = O;
lastChange = "2013-03-08 11:01:48 -0500";
layers = (
{
anchors = (
{
name = horn;
position = "{1397, 1120}";
},
{
name = top;
position = "{841, 1493}";
}
);
layerId = "6B6936E6-7670-4A82-900D-EAF583C971AF";
name = Regular;
paths = (
{
closed = 1;
nodes = (
"549 1356 OFFCURVE",
"363 1122 OFFCURVE",
"363 745 CURVE SMOOTH",
"363 436 OFFCURVE",
"549 355 OFFCURVE",
"842 355 CURVE SMOOTH",
"1135 355 OFFCURVE",
"1319 436 OFFCURVE",
"1319 745 CURVE SMOOTH",
"1319 1122 OFFCURVE",
"1135 1356 OFFCURVE",
"842 1356 CURVE SMOOTH"
);
},
{
closed = 1;
nodes = (
"1261 1520 OFFCURVE",
"1532 1217 OFFCURVE",
"1532 745 CURVE SMOOTH",
"1532 274 OFFCURVE",
"1261 -29 OFFCURVE",
"842 -29 CURVE SMOOTH",
"422 -29 OFFCURVE",
"150 273 OFFCURVE",
"150 745 CURVE SMOOTH",
"150 1217 OFFCURVE",
"422 1520 OFFCURVE",
"842 1520 CURVE SMOOTH"
);
}
);
width = 1682;
}
);
unicode = 004F;
},
{
color = 6;
glyphname = P;
lastChange = "2012-11-09 12:32:30 -0500";
layers = (
{
layerId = "6B6936E6-7670-4A82-900D-EAF583C971AF";
name = Regular;
paths = (
{
closed = 1;
nodes = (
"422 1407 LINE",
"402 846 LINE",
"675 846 LINE SMOOTH",
"876 846 OFFCURVE",
"991 947 OFFCURVE",
"991 1127 CURVE SMOOTH",
"991 1306 OFFCURVE",
"876 1407 OFFCURVE",
"675 1407 CURVE SMOOTH"
);
},
{
closed = 1;
nodes = (
"210 1493 LINE",
"656 1493 LINE SMOOTH",
"991 1493 OFFCURVE",
"1164 1339 OFFCURVE",
"1164 1047 CURVE SMOOTH",
"1164 752 OFFCURVE",
"991 580 OFFCURVE",
"656 580 CURVE SMOOTH",
"412 580 LINE",
"392 0 LINE",
"150 0 LINE"
);
}
);
width = 1314;
}
);
unicode = 0050;
},
{
color = 6;
glyphname = Q;
lastChange = "2012-11-09 12:32:30 -0500";
layers = (
{
layerId = "6B6936E6-7670-4A82-900D-EAF583C971AF";
name = Regular;
paths = (
{
closed = 1;
nodes = (
"549 1356 OFFCURVE",
"363 1122 OFFCURVE",
"363 745 CURVE SMOOTH",
"363 436 OFFCURVE",
"592 368 OFFCURVE",
"712 355 CURVE",
"806 341 LINE",
"889 480 LINE",
"968 444 OFFCURVE",
"1048 420 OFFCURVE",
"1131 409 CURVE",
"1256 478 OFFCURVE",
"1319 590 OFFCURVE",
"1319 745 CURVE SMOOTH",
"1319 1122 OFFCURVE",
"1135 1356 OFFCURVE",
"842 1356 CURVE SMOOTH"
);
},
{
closed = 1;
nodes = (
"1601 -264 LINE",
"1127 -264 LINE",
"916 -25 LINE",
"872 -28 OFFCURVE",
"853 -29 OFFCURVE",
"832 -29 CURVE SMOOTH",
"425 -29 OFFCURVE",
"150 274 OFFCURVE",
"150 745 CURVE SMOOTH",
"150 1217 OFFCURVE",
"422 1520 OFFCURVE",
"842 1520 CURVE SMOOTH",
"1261 1520 OFFCURVE",
"1532 1217 OFFCURVE",
"1532 745 CURVE SMOOTH",
"1532 398 OFFCURVE",
"1402 218 OFFCURVE",
"1285 87 CURVE"
);
}
);
width = 1751;
}
);
unicode = 0051;
},
{
color = 6;
glyphname = R;
lastChange = "2012-11-09 12:32:30 -0500";
layers = (
{
anchors = (
{
name = bottom;
position = "{642, 0}";
},
{
name = top;
position = "{642, 1493}";
}
);
layerId = "6B6936E6-7670-4A82-900D-EAF583C971AF";
name = Regular;
paths = (
{
closed = 1;
nodes = (
"945 671 OFFCURVE",
"1025 576 OFFCURVE",
"1108 408 CURVE SMOOTH",
"1313 0 LINE",
"1026 0 LINE",
"875 383 LINE",
"776 583 OFFCURVE",
"702 631 OFFCURVE",
"542 631 CURVE SMOOTH",
"392 631 LINE",
"392 0 LINE",
"150 0 LINE",
"150 1493 LINE",
"606 1493 LINE SMOOTH",
"907 1493 OFFCURVE",
"1084 1351 OFFCURVE",
"1084 1063 CURVE SMOOTH",
"1084 875 OFFCURVE",
"998 748 OFFCURVE",
"858 700 CURVE"
);
},
{
closed = 1;
nodes = (
"372 1387 LINE",
"372 837 LINE",
"626 837 LINE SMOOTH",
"781 837 OFFCURVE",
"941 942 OFFCURVE",
"941 1063 CURVE SMOOTH",
"941 1318 OFFCURVE",
"781 1387 OFFCURVE",
"626 1387 CURVE SMOOTH"
);
}
);
width = 1463;
}
);
unicode = 0052;
},
{
color = 6;
glyphname = S;
lastChange = "2012-11-09 12:32:30 -0500";
layers = (
{
anchors = (
{
name = bottom;
position = "{657, 0}";
},
{
name = top;
position = "{657, 1493}";
}
);
layerId = "6B6936E6-7670-4A82-900D-EAF583C971AF";
name = Regular;
paths = (
{
closed = 1;
nodes = (
"1111 1247 LINE",
"958 1320 OFFCURVE",
"824 1356 OFFCURVE",
"697 1356 CURVE SMOOTH",
"477 1356 OFFCURVE",
"353 1267 OFFCURVE",
"353 1110 CURVE SMOOTH",
"353 978 OFFCURVE",
"417 920 OFFCURVE",
"638 879 CURVE SMOOTH",
"760 854 LINE SMOOTH",
"1061 797 OFFCURVE",
"1201 655 OFFCURVE",
"1201 412 CURVE SMOOTH",
"1201 123 OFFCURVE",
"1004 -29 OFFCURVE",
"629 -29 CURVE SMOOTH",
"488 -29 OFFCURVE",
"327 3 OFFCURVE",
"156 66 CURVE",
"156 384 LINE",
"320 292 OFFCURVE",
"477 245 OFFCURVE",
"629 245 CURVE SMOOTH",
"860 245 OFFCURVE",
"990 359 OFFCURVE",
"990 447 CURVE SMOOTH",
"990 527 OFFCURVE",
"906 621 OFFCURVE",
"701 662 CURVE SMOOTH",
"578 686 LINE SMOOTH",
"277 746 OFFCURVE",
"150 866 OFFCURVE",
"150 1094 CURVE SMOOTH",
"150 1358 OFFCURVE",
"347 1520 OFFCURVE",
"674 1520 CURVE SMOOTH",
"814 1520 OFFCURVE",
"959 1495 OFFCURVE",
"1111 1444 CURVE"
);
}
);
width = 1351;
}
);
unicode = 0053;
},
{
color = 6;
glyphname = T;
lastChange = "2012-11-09 12:32:30 -0500";
layers = (
{
anchors = (
{
name = bottom;
position = "{781, 0}";
},
{
name = center;
position = "{781, 747}";
},
{
name = top;
position = "{781, 1493}";
}
);
layerId = "6B6936E6-7670-4A82-900D-EAF583C971AF";
name = Regular;
paths = (
{
closed = 1;
nodes = (
"150 1493 LINE",
"1413 1493 LINE",
"1413 1323 LINE",
"883 1343 LINE",
"923 0 LINE",
"640 0 LINE",
"680 1343 LINE",
"150 1323 LINE"
);
}
);
width = 1563;
}
);
unicode = 0054;
},
{
color = 6;
glyphname = U;
lastChange = "2013-03-08 11:03:24 -0500";
layers = (
{
anchors = (
{
name = horn;
position = "{1245, 1257}";
},
{
name = ogonek;
position = "{738, 0}";
},
{
name = top;
position = "{721, 1493}";
}
);
layerId = "6B6936E6-7670-4A82-900D-EAF583C971AF";
name = Regular;
paths = (
{
closed = 1;
nodes = (
"150 1493 LINE",
"363 1493 LINE",
"343 726 LINE SMOOTH",
"335 406 OFFCURVE",
"462 275 OFFCURVE",
"722 275 CURVE SMOOTH",
"981 275 OFFCURVE",
"1107 406 OFFCURVE",
"1099 726 CURVE SMOOTH",
"1080 1493 LINE",
"1293 1493 LINE",
"1293 561 LINE SMOOTH",
"1293 172 OFFCURVE",
"1098 -29 OFFCURVE",
"722 -29 CURVE SMOOTH",
"345 -29 OFFCURVE",
"150 172 OFFCURVE",
"150 561 CURVE SMOOTH"
);
}
);
width = 1443;
}
);
unicode = 0055;
},
{
color = 6;
glyphname = V;
lastChange = "2012-11-09 12:32:30 -0500";
layers = (
{
layerId = "6B6936E6-7670-4A82-900D-EAF583C971AF";
name = Regular;
paths = (
{
closed = 1;
nodes = (
"670 0 LINE",
"150 1493 LINE",
"361 1493 LINE",
"834 376 LINE",
"1308 1493 LINE",
"1518 1493 LINE",
"999 0 LINE"
);
}
);
width = 1668;
}
);
unicode = 0056;
},
{
color = 6;
glyphname = W;
lastChange = "2012-11-09 12:32:30 -0500";
layers = (
{
anchors = (
{
name = top;
position = "{1090, 1493}";
}
);
layerId = "6B6936E6-7670-4A82-900D-EAF583C971AF";
name = Regular;
paths = (
{
closed = 1;
nodes = (
"150 1493 LINE",
"344 1493 LINE",
"648 421 LINE",
"1001 1113 LINE",
"1178 1113 LINE",
"1502 401 LINE",
"1845 1493 LINE",
"2040 1493 LINE",
"1665 0 LINE",
"1371 0 LINE",
"1096 806 LINE",
"798 0 LINE",
"484 0 LINE"
);
}
);
width = 2190;
}
);
unicode = 0057;
},
{
color = 6;
glyphname = X;
lastChange = "2012-11-09 12:32:30 -0500";
layers = (
{
layerId = "6B6936E6-7670-4A82-900D-EAF583C971AF";
name = Regular;
paths = (
{
closed = 1;
nodes = (
"218 1493 LINE",
"435 1493 LINE",
"806 858 LINE",
"1179 1493 LINE",
"1396 1493 LINE",
"936 696 LINE",
"1428 0 LINE",
"1101 0 LINE",
"791 535 LINE",
"478 0 LINE",
"150 0 LINE",
"663 697 LINE"
);
}
);
width = 1578;
}
);
unicode = 0058;
},
{
color = 6;
glyphname = Y;
lastChange = "2012-11-09 12:32:30 -0500";
layers = (
{
anchors = (
{
name = top;
position = "{778, 1493}";
}
);
layerId = "6B6936E6-7670-4A82-900D-EAF583C971AF";
name = Regular;
paths = (
{
closed = 1;
nodes = (
"150 1493 LINE",
"367 1493 LINE",
"781 729 LINE",
"1192 1493 LINE",
"1409 1493 LINE",
"911 511 LINE",
"911 0 LINE",
"638 0 LINE",
"638 511 LINE"
);
}
);
width = 1559;
}
);
unicode = 0059;
},
{
color = 6;
glyphname = Z;
lastChange = "2012-11-09 12:32:30 -0500";
layers = (
{
anchors = (
{
name = top;
position = "{804, 1493}";
}
);
layerId = "6B6936E6-7670-4A82-900D-EAF583C971AF";
name = Regular;
paths = (
{
closed = 1;
nodes = (
"173 1493 LINE",
"1346 1493 LINE",
"1346 1339 LINE",
"402 300 LINE",
"1369 300 LINE",
"1369 0 LINE",
"150 0 LINE",
"150 284 LINE",
"1094 1323 LINE",
"173 1323 LINE"
);
}
);
width = 1519;
}
);
unicode = 005A;
},
{
glyphname = bracketleft;
lastChange = "2012-10-19 18:30:24 -0500";
layers = (
{
layerId = "6B6936E6-7670-4A82-900D-EAF583C971AF";
name = Regular;
paths = (
{
closed = 1;
nodes = (
"150 1556 LINE",
"574 1556 LINE",
"574 1413 LINE",
"334 1413 LINE",
"334 -47 LINE",
"574 -47 LINE",
"574 -270 LINE",
"150 -270 LINE"
);
}
);
width = 674;
}
);
unicode = 005B;
},
{
glyphname = backslash;
lastChange = "2012-10-19 18:30:30 -0500";
layers = (
{
layerId = "6B6936E6-7670-4A82-900D-EAF583C971AF";
name = Regular;
paths = (
{
closed = 1;
nodes = (
"320 1487 LINE",
"781 -214 LINE",
"571 -206 LINE",
"150 1492 LINE"
);
}
);
width = 931;
}
);
unicode = 005C;
},
{
glyphname = bracketright;
lastChange = "2012-10-19 18:30:39 -0500";
layers = (
{
layerId = "6B6936E6-7670-4A82-900D-EAF583C971AF";
name = Regular;
paths = (
{
closed = 1;
nodes = (
"524 1556 LINE",
"524 -270 LINE",
"100 -270 LINE",
"100 -57 LINE",
"339 -57 LINE",
"339 1413 LINE",
"100 1413 LINE",
"100 1556 LINE"
);
}
);
width = 674;
}
);
unicode = 005D;
},
{
glyphname = asciicircum;
lastChange = "2012-10-19 18:30:45 -0500";
layers = (
{
layerId = "6B6936E6-7670-4A82-900D-EAF583C971AF";
name = Regular;
paths = (
{
closed = 1;
nodes = (
"869 1493 LINE",
"1432 936 LINE",
"1121 936 LINE",
"791 1391 LINE",
"461 936 LINE",
"150 936 LINE",
"713 1493 LINE"
);
}
);
width = 1582;
}
);
unicode = 005E;
},
{
glyphname = underscore;
lastChange = "2012-10-19 18:30:52 -0500";
layers = (
{
hints = (
{
horizontal = 1;
place = "{-443.000000, 180.000000}";
}
);
layerId = "6B6936E6-7670-4A82-900D-EAF583C971AF";
name = Regular;
paths = (
{
closed = 1;
nodes = (
"1214 -264 LINE",
"1214 -443 LINE",
"150 -443 LINE",
"150 -264 LINE"
);
}
);
width = 1364;
}
);
unicode = 005F;
},
{
glyphname = grave;
lastChange = "2013-03-08 11:25:32 -0500";
layers = (
{
anchors = (
{
name = _top;
position = "{480, 815}";
}
);
layerId = "6B6936E6-7670-4A82-900D-EAF583C971AF";
name = Regular;
paths = (
{
closed = 1;
nodes = (
"347 1718 LINE",
"629 1344 LINE",
"356 1344 LINE",
"150 1718 LINE"
);
}
);
width = 779;
}
);
unicode = 0060;
},
{
color = 7;
glyphname = a;
lastChange = "2013-06-15 02:57:19 -0500";
layers = (
{
anchors = (
{
name = ogonek;
position = "{1003, 60}";
},
{
name = top;
position = "{651, 1120}";
}
);
layerId = "6B6936E6-7670-4A82-900D-EAF583C971AF";
name = Regular;
paths = (
{
closed = 1;
nodes = (
"643 572 LINE SMOOTH",
"374 572 OFFCURVE",
"305 515 OFFCURVE",
"304 376 CURVE",
"324 263 OFFCURVE",
"420 251 OFFCURVE",
"553 251 CURVE SMOOTH",
"738 251 OFFCURVE",
"809 291 OFFCURVE",
"809 531 CURVE SMOOTH",
"809 572 LINE"
);
},
{
closed = 1;
nodes = (
"1096 0 LINE",
"912 0 LINE",
"912 160 LINE",
"828 37 OFFCURVE",
"706 -29 OFFCURVE",
"525 -29 CURVE SMOOTH",
"296 -29 OFFCURVE",
"150 110 OFFCURVE",
"150 326 CURVE SMOOTH",
"150 578 OFFCURVE",
"319 707 OFFCURVE",
"654 707 CURVE",
"912 707 LINE",
"912 725 LINE SMOOTH",
"912 894 OFFCURVE",
"809 998 OFFCURVE",
"594 1011 CURVE",
"466 1011 OFFCURVE",
"344 980 OFFCURVE",
"232 919 CURVE",
"232 1069 LINE",
"367 1121 OFFCURVE",
"493 1147 OFFCURVE",
"613 1147 CURVE SMOOTH",
"937 1147 OFFCURVE",
"1096 980 OFFCURVE",
"1096 639 CURVE SMOOTH"
);
}
);
width = 1246;
}
);
leftKerningGroup = Round;
unicode = 0061;
},
{
color = 7;
glyphname = b;
lastChange = "2012-11-09 12:32:36 -0500";
layers = (
{
anchors = (
{
name = "new anchor";
position = "{189, 307}";
}
);
hints = (
{
place = "{203.000000, 133.000000}";
}
);
layerId = "6B6936E6-7670-4A82-900D-EAF583C971AF";
name = Regular;
paths = (
{
closed = 1;
nodes = (
"1003 369 OFFCURVE",
"900 311 OFFCURVE",
"736 299 CURVE",
"468 299 OFFCURVE",
"450 385 OFFCURVE",
"423 592 CURVE",
"423 863 OFFCURVE",
"541 1016 OFFCURVE",
"736 1016 CURVE SMOOTH",
"931 1016 OFFCURVE",
"1027 860 OFFCURVE",
"1035 601 CURVE"
);
},
{
closed = 1;
nodes = (
"259 203 LINE",
"312 56 OFFCURVE",
"400 -29 OFFCURVE",
"693 -29 CURVE SMOOTH",
"965 -29 OFFCURVE",
"1152 207 OFFCURVE",
"1152 559 CURVE SMOOTH",
"1152 911 OFFCURVE",
"965 1147 OFFCURVE",
"693 1147 CURVE SMOOTH",
"529 1147 OFFCURVE",
"412 1103 OFFCURVE",
"335 970 CURVE",
"355 1556 LINE",
"170 1556 LINE",
"208 911 OFFCURVE",
"218 289 OFFCURVE",
"259 203 CURVE",
"259 203 LINE"
);
}
);
width = 1302;
}
);
rightKerningGroup = RoundRight;
unicode = 0062;
},
{
color = 7;
glyphname = c;
lastChange = "2013-01-02 13:07:20 -0500";
layers = (
{
anchors = (
{
name = bottom;
position = "{635, 0}";
},
{
name = top;
position = "{635, 1120}";
}
);
layerId = "6B6936E6-7670-4A82-900D-EAF583C971AF";
name = Regular;
paths = (
{
closed = 1;
nodes = (
"1036 915 LINE",
"932 972 OFFCURVE",
"828 1001 OFFCURVE",
"721 1001 CURVE SMOOTH",
"482 1001 OFFCURVE",
"354 832 OFFCURVE",
"354 559 CURVE",
"373 367 OFFCURVE",
"474 301 OFFCURVE",
"713 288 CURVE",
"820 288 OFFCURVE",
"928 275 OFFCURVE",
"1032 332 CURVE",
"1036 43 LINE",
"933 -5 OFFCURVE",
"825 -29 OFFCURVE",
"701 -29 CURVE SMOOTH",
"364 -29 OFFCURVE",
"150 199 OFFCURVE",
"150 559 CURVE SMOOTH",
"150 924 OFFCURVE",
"364 1147 OFFCURVE",
"713 1147 CURVE SMOOTH",
"826 1147 OFFCURVE",
"935 1124 OFFCURVE",
"1036 1077 CURVE"
);
}
);
width = 1186;
}
);
leftKerningGroup = Round;
unicode = 0063;
},
{
color = 7;
glyphname = d;
lastChange = "2013-10-11 19:43:05 -0500";
layers = (
{
anchors = (
{
name = center;
position = "{754, 560}";
},
{
name = top;
position = "{608, 1147}";
}
);
layerId = "6B6936E6-7670-4A82-900D-EAF583C971AF";
name = Regular;
paths = (
{
closed = 1;
nodes = (
"987 1556 LINE",
"1171 1556 LINE",
"1151 0 LINE",
"967 0 LINE",
"967 168 LINE",
"890 35 OFFCURVE",
"773 -29 OFFCURVE",
"608 -29 CURVE SMOOTH",
"337 -29 OFFCURVE",
"150 207 OFFCURVE",
"150 559 CURVE SMOOTH",
"150 911 OFFCURVE",
"337 1147 OFFCURVE",
"608 1147 CURVE SMOOTH",
"773 1147 OFFCURVE",
"890 1083 OFFCURVE",
"967 950 CURVE"
);
},
{
closed = 1;
nodes = (
"313 384 OFFCURVE",
"395 306 OFFCURVE",
"590 306 CURVE SMOOTH",
"785 306 OFFCURVE",
"878 346 OFFCURVE",
"885 593 CURVE SMOOTH",
"878 864 OFFCURVE",
"790 1013 OFFCURVE",
"595 1013 CURVE SMOOTH",
"400 1013 OFFCURVE",
"282 850 OFFCURVE",
"282 579 CURVE"
);
}
);
width = 1321;
}
);
leftKerningGroup = Round;
unicode = 0064;
},
{
color = 7;
glyphname = e;
lastChange = "2013-03-08 11:05:06 -0500";
layers = (
{
anchors = (
{
name = _hook;
position = "{709.211, 1104.35}";
},
{
name = bottom;
position = "{673, 0}";
},
{
name = ogonek;
position = "{875, -14}";
},
{
name = top;
position = "{673, 1120}";
}
);
layerId = "6B6936E6-7670-4A82-900D-EAF583C971AF";
name = Regular;
paths = (
{
closed = 1;
nodes = (
"1178 606 LINE",
"342 606 LINE",
"346 307 OFFCURVE",
"494 257 OFFCURVE",
"738 244 CURVE",
"879 244 OFFCURVE",
"1011 242 OFFCURVE",
"1142 311 CURVE",
"1146 57 LINE",
"1013 1 OFFCURVE",
"875 -29 OFFCURVE",
"731 -29 CURVE",
"375 -16 OFFCURVE",
"150 194 OFFCURVE",
"150 549 CURVE",
"163 916 OFFCURVE",
"363 1147 OFFCURVE",
"700 1147 CURVE",
"1000 1134 OFFCURVE",
"1153 996 OFFCURVE",
"1178 676 CURVE"
);
},
{
closed = 1;
nodes = (
"1018 767 LINE",
"997 892 OFFCURVE",
"882 1050 OFFCURVE",
"701 1050 CURVE SMOOTH",
"496 1050 OFFCURVE",
"362 901 OFFCURVE",
"362 766 CURVE"
);
}
);
width = 1328;
}
);
leftKerningGroup = Round;
unicode = 0065;
},
{
color = 7;
glyphname = f;
lastChange = "2012-11-09 12:32:36 -0500";
layers = (
{
layerId = "6B6936E6-7670-4A82-900D-EAF583C971AF";
name = Regular;
paths = (
{
closed = 1;
nodes = (
"803 1516 LINE",
"803 1363 LINE",
"637 1383 LINE",
"545 1383 OFFCURVE",
"511 1358 OFFCURVE",
"511 1219 CURVE",
"521 1120 LINE",
"814 1120 LINE",
"814 937 LINE",
"521 937 LINE",
"551 0 LINE",
"286 0 LINE",
"316 937 LINE",
"150 937 LINE",
"150 1120 LINE",
"316 1120 LINE",
"326 1198 LINE",
"326 1447 OFFCURVE",
"467 1536 OFFCURVE",
"639 1536 CURVE"
);
}
);
width = 964;
}
);
unicode = 0066;
},
{
color = 7;
glyphname = g;
lastChange = "2013-10-11 19:44:56 -0500";
layers = (
{
anchors = (
{
name = comma;
position = "{615, -536}";
},
{
name = top;
position = "{682, 1120}";
}
);
layerId = "6B6936E6-7670-4A82-900D-EAF583C971AF";
name = Regular;
paths = (
{
closed = 1;
nodes = (
"887 851 OFFCURVE",
"772 1004 OFFCURVE",
"573 1004 CURVE SMOOTH",
"376 1004 OFFCURVE",
"260 851 OFFCURVE",
"260 584 CURVE",
"287 319 OFFCURVE",
"362 298 OFFCURVE",
"559 298 CURVE SMOOTH",
"758 298 OFFCURVE",
"887 319 OFFCURVE",
"887 584 CURVE SMOOTH"
);
},
{
closed = 1;
nodes = (
"1141 139 LINE SMOOTH",
"1125 -376 OFFCURVE",
"964 -536 OFFCURVE",
"615 -536 CURVE SMOOTH",
"486 -536 OFFCURVE",
"373 -517 OFFCURVE",
"265 -477 CURVE",
"265 -149 LINE",
"373 -208 OFFCURVE",
"477 -235 OFFCURVE",
"586 -235 CURVE SMOOTH",
"827 -235 OFFCURVE",
"930 -26 OFFCURVE",
"957 106 CURVE",
"957 167 LINE",
"894 75 OFFCURVE",
"773 0 OFFCURVE",
"608 0 CURVE SMOOTH",
"333 0 OFFCURVE",
"150 228 OFFCURVE",
"150 573 CURVE SMOOTH",
"150 920 OFFCURVE",
"333 1147 OFFCURVE",
"608 1147 CURVE SMOOTH",
"773 1147 OFFCURVE",
"891 1082 OFFCURVE",
"967 950 CURVE",
"987 1120 LINE",
"1171 1120 LINE"
);
}
);
width = 1321;
}
);
unicode = 0067;
},
{
color = 7;
glyphname = h;
lastChange = "2013-10-11 19:47:32 -0500";
layers = (
{
anchors = (
{
name = center;
position = "{548, 560}";
},
{
name = top;
position = "{548, 1120}";
}
);
layerId = "6B6936E6-7670-4A82-900D-EAF583C971AF";
name = Regular;
paths = (
{
closed = 1;
nodes = (
"1128 0 LINE",
"894 0 LINE",
"924 670 LINE SMOOTH",
"935 925 OFFCURVE",
"841 1007 OFFCURVE",
"676 1007 CURVE SMOOTH",
"477 1007 OFFCURVE",
"355 852 OFFCURVE",
"355 633 CURVE SMOOTH",
"375 0 LINE",
"150 0 LINE",
"190 1556 LINE",
"375 1556 LINE",
"355 946 LINE",
"443 1081 OFFCURVE",
"561 1147 OFFCURVE",
"717 1147 CURVE SMOOTH",
"974 1147 OFFCURVE",
"1108 985 OFFCURVE",
"1108 676 CURVE SMOOTH"
);
}
);
width = 1278;
}
);
unicode = 0068;
},
{
color = 7;
glyphname = i;
lastChange = "2013-10-11 19:42:04 -0500";
layers = (
{
layerId = "6B6936E6-7670-4A82-900D-EAF583C971AF";
name = Regular;
paths = (
{
closed = 1;
nodes = (
"177 393 OFFCURVE",
"183 767 OFFCURVE",
"180 1120 CURVE",
"344 1120 LINE",
"332 785 OFFCURVE",
"342 408 OFFCURVE",
"384 0 CURVE",
"150 0 LINE"
);
},
{
closed = 1;
nodes = (
"180 1556 LINE",
"344 1556 LINE",
"354 1323 LINE",
"170 1323 LINE"
);
}
);
width = 534;
}
);
unicode = 0069;
},
{
color = 7;
glyphname = j;
lastChange = "2012-11-09 12:32:36 -0500";
layers = (
{
layerId = "6B6936E6-7670-4A82-900D-EAF583C971AF";
name = Regular;
paths = (
{
closed = 1;
nodes = (
"367 1115 LINE",
"541 1112 LINE",
"501 -28 LINE SMOOTH",
"496 -313 OFFCURVE",
"391 -449 OFFCURVE",
"150 -458 CURVE",
"50 -456 LINE",
"55 -180 LINE",
"134 -181 LINE",
"274 -170 OFFCURVE",
"308 -139 OFFCURVE",
"319 95 CURVE SMOOTH"
);
},
{
closed = 1;
nodes = (
"410 1556 LINE",
"574 1556 LINE",
"584 1323 LINE",
"400 1323 LINE"
);
}
);
width = 734;
}
);
unicode = 006A;
},
{
color = 7;
glyphname = k;
lastChange = "2012-12-04 09:57:49 -0500";
layers = (
{
anchors = (
{
name = bottom;
position = "{537, 0}";
}
);
layerId = "6B6936E6-7670-4A82-900D-EAF583C971AF";
name = Regular;
paths = (
{
closed = 1;
nodes = (
"190 1556 LINE",
"375 1556 LINE",
"365 677 LINE",
"744 1120 LINE",
"979 1120 LINE",
"555 596 LINE",
"1174 0 LINE",
"794 0 LINE",
"365 527 LINE",
"395 0 LINE",
"150 0 LINE"
);
}
);
width = 1324;
}
);
unicode = 006B;
},
{
color = 7;
glyphname = l;
lastChange = "2013-04-23 05:59:13 -0500";
layers = (
{
anchors = (
{
name = bottom;
position = "{235, 0}";
},
{
name = dot;
position = "{449, 831}";
},
{
name = top;
position = "{289, 1403}";
},
{
name = topright;
position = "{527, 1313}";
}
);
layerId = "6B6936E6-7670-4A82-900D-EAF583C971AF";
name = Regular;
paths = (
{
closed = 1;
nodes = (
"157 519 OFFCURVE",
"173 947 OFFCURVE",
"200 1466 CURVE",
"374 1466 LINE",
"351 1023 OFFCURVE",
"337 671 OFFCURVE",
"334 228 CURVE",
"550 227 LINE",
"550 0 LINE",
"150 0 LINE"
);
}
);
width = 700;
}
);
unicode = 006C;
},
{
color = 7;
glyphname = m;
lastChange = "2013-10-11 19:46:32 -0500";
layers = (
{
layerId = "6B6936E6-7670-4A82-900D-EAF583C971AF";
name = Regular;
paths = (
{
closed = 1;
nodes = (
"1171 1070 OFFCURVE",
"1277 1147 OFFCURVE",
"1450 1147 CURVE SMOOTH",
"1683 1147 OFFCURVE",
"1815 977 OFFCURVE",
"1815 676 CURVE SMOOTH",
"1835 0 LINE",
"1560 0 LINE",
"1630 700 LINE",
"1630 915 OFFCURVE",
"1585 1017 OFFCURVE",
"1429 1017 CURVE SMOOTH",
"1238 1017 OFFCURVE",
"1140 852 OFFCURVE",
"1130 633 CURVE SMOOTH",
"1100 0 LINE",
"845 0 LINE",
"935 710 LINE",
"935 926 OFFCURVE",
"861 1027 OFFCURVE",
"702 1027 CURVE SMOOTH",
"514 1027 OFFCURVE",
"385 850 OFFCURVE",
"385 633 CURVE SMOOTH",
"405 0 LINE",
"150 0 LINE",
"200 1120 LINE",
"385 1120 LINE",
"365 946 LINE",
"449 1083 OFFCURVE",
"564 1147 OFFCURVE",
"725 1147 CURVE SMOOTH",
"888 1147 OFFCURVE",
"1024 1062 OFFCURVE",
"1079 905 CURVE"
);
}
);
width = 1985;
}
);
unicode = 006D;
},
{
color = 7;
glyphname = n;
lastChange = "2012-11-09 12:32:36 -0500";
layers = (
{
anchors = (
{
name = bottom;
position = "{635, 0}";
},
{
name = top;
position = "{635, 1120}";
}
);
layerId = "6B6936E6-7670-4A82-900D-EAF583C971AF";
name = Regular;
paths = (
{
closed = 1;
nodes = (
"1158 0 LINE",
"894 0 LINE",
"934 680 LINE",
"934 892 OFFCURVE",
"871 997 OFFCURVE",
"706 997 CURVE SMOOTH",
"481 997 OFFCURVE",
"375 862 OFFCURVE",
"375 643 CURVE",
"405 0 LINE",
"150 0 LINE",
"180 1130 LINE",
"365 1130 LINE",
"365 996 LINE",
"453 1064 OFFCURVE",
"571 1147 OFFCURVE",
"727 1147 CURVE SMOOTH",
"984 1147 OFFCURVE",
"1115 985 OFFCURVE",
"1128 676 CURVE SMOOTH"
);
}
);
width = 1308;
}
);
unicode = 006E;
},
{
color = 7;
glyphname = o;
lastChange = "2013-03-08 11:04:44 -0500";
layers = (
{
anchors = (
{
name = _;
position = "{678, 1120}";
},
{
name = horn;
position = "{1054.81, 803.447}";
},
{
name = top;
position = "{664, 1120}";
}
);
layerId = "6B6936E6-7670-4A82-900D-EAF583C971AF";
name = Regular;
paths = (
{
closed = 1;
nodes = (
"467 1011 OFFCURVE",
"344 851 OFFCURVE",
"344 591 CURVE SMOOTH",
"344 330 OFFCURVE",
"465 289 OFFCURVE",
"664 289 CURVE SMOOTH",
"860 289 OFFCURVE",
"983 331 OFFCURVE",
"983 591 CURVE SMOOTH",
"983 848 OFFCURVE",
"860 1011 OFFCURVE",
"664 1011 CURVE SMOOTH"
);
},
{
closed = 1;
nodes = (
"984 1147 OFFCURVE",
"1178 927 OFFCURVE",
"1178 559 CURVE SMOOTH",
"1178 192 OFFCURVE",
"984 -29 OFFCURVE",
"664 -29 CURVE SMOOTH",
"343 -29 OFFCURVE",
"150 192 OFFCURVE",
"150 559 CURVE SMOOTH",
"150 927 OFFCURVE",
"343 1147 OFFCURVE",
"664 1147 CURVE SMOOTH"
);
}
);
width = 1328;
}
);
leftKerningGroup = Round;
rightKerningGroup = RoundRight;
unicode = 006F;
},
{
color = 7;
glyphname = p;
lastChange = "2012-12-03 12:19:27 -0500";
layers = (
{
hints = (
{
place = "{289.000000, 235.000000}";
},
{
horizontal = 1;
place = "{1018.000000, 128.000000}";
},
{
horizontal = 1;
place = "{-6.707031, 286.000000}";
},
{
place = "{1150.000000, 129.000000}";
}
);
layerId = "6B6936E6-7670-4A82-900D-EAF583C971AF";
name = Regular;
paths = (
{
closed = 1;
nodes = (
"385 -426 LINE",
"150 -426 LINE",
"239 260 LINE",
"239 1103 LINE",
"424 1103 LINE",
"393 950 LINE",
"470 1083 OFFCURVE",
"587 1147 OFFCURVE",
"751 1147 CURVE SMOOTH",
"1023 1147 OFFCURVE",
"1210 911 OFFCURVE",
"1210 559 CURVE SMOOTH",
"1210 207 OFFCURVE",
"1023 -29 OFFCURVE",
"751 -29 CURVE SMOOTH",
"587 -29 OFFCURVE",
"470 35 OFFCURVE",
"393 168 CURVE"
);
},
{
closed = 1;
nodes = (
"1092 862 OFFCURVE",
"974 1025 OFFCURVE",
"779 1025 CURVE SMOOTH",
"584 1025 OFFCURVE",
"466 862 OFFCURVE",
"466 591 CURVE SMOOTH",
"466 320 OFFCURVE",
"594 274 OFFCURVE",
"789 274 CURVE SMOOTH",
"984 274 OFFCURVE",
"1092 320 OFFCURVE",
"1092 591 CURVE SMOOTH"
);
}
);
width = 1360;
}
);
rightKerningGroup = RoundRight;
unicode = 0070;
},
{
color = 7;
glyphname = q;
lastChange = "2012-11-09 12:32:36 -0500";
layers = (
{
associatedMasterId = "6B6936E6-7670-4A82-900D-EAF583C971AF";
layerId = "550EFC85-22CC-4D43-B167-1DAEAAA2FB65";
name = "Regular May 31 12, 16:28";
paths = (
{
closed = 1;
nodes = (
"322 314 OFFCURVE",
"435 278 OFFCURVE",
"630 278 CURVE SMOOTH",
"825 278 OFFCURVE",
"949 314 OFFCURVE",
"949 585 CURVE SMOOTH",
"949 856 OFFCURVE",
"830 1019 OFFCURVE",
"635 1019 CURVE SMOOTH",
"440 1019 OFFCURVE",
"322 856 OFFCURVE",
"322 585 CURVE SMOOTH"
);
},
{
closed = 1;
nodes = (
"1017 168 LINE",
"940 35 OFFCURVE",
"823 -29 OFFCURVE",
"658 -29 CURVE SMOOTH",
"387 -29 OFFCURVE",
"200 207 OFFCURVE",
"200 559 CURVE SMOOTH",
"200 911 OFFCURVE",
"387 1147 OFFCURVE",
"658 1147 CURVE SMOOTH",
"823 1147 OFFCURVE",
"940 1083 OFFCURVE",
"1017 950 CURVE",
"1047 1120 LINE",
"1225 1120 LINE",
"1148 -242 LINE SMOOTH",
"1141 -426 LINE",
"971 -426 LINE"
);
}
);
width = 1470;
},
{
layerId = "6B6936E6-7670-4A82-900D-EAF583C971AF";
name = Regular;
paths = (
{
closed = 1;
nodes = (
"272 314 OFFCURVE",
"385 278 OFFCURVE",
"580 278 CURVE SMOOTH",
"775 278 OFFCURVE",
"899 314 OFFCURVE",
"899 585 CURVE SMOOTH",
"899 856 OFFCURVE",
"780 1019 OFFCURVE",
"585 1019 CURVE SMOOTH",
"390 1019 OFFCURVE",
"272 856 OFFCURVE",
"272 585 CURVE SMOOTH"
);
},
{
closed = 1;
nodes = (
"967 168 LINE",
"890 35 OFFCURVE",
"773 -29 OFFCURVE",
"608 -29 CURVE SMOOTH",
"337 -29 OFFCURVE",
"150 207 OFFCURVE",
"150 559 CURVE SMOOTH",
"150 911 OFFCURVE",
"337 1147 OFFCURVE",
"608 1147 CURVE SMOOTH",
"773 1147 OFFCURVE",
"890 1083 OFFCURVE",
"967 950 CURVE",
"997 1120 LINE",
"1175 1120 LINE",
"1112 -66 LINE",
"1338 -282 LINE SMOOTH",
"1171 -423 LINE",
"911 -426 LINE"
);
}
);
width = 1488;
}
);
leftKerningGroup = Round;
unicode = 0071;
},
{
color = 7;
glyphname = r;
lastChange = "2012-11-09 12:32:36 -0500";
layers = (
{
anchors = (
{
name = bottom;
position = "{402, 0}";
},
{
name = top;
position = "{402, 1120}";
}
);
layerId = "6B6936E6-7670-4A82-900D-EAF583C971AF";
name = Regular;
paths = (
{
closed = 1;
nodes = (
"829 928 LINE",
"788 952 OFFCURVE",
"750 953 OFFCURVE",
"691 953 CURVE SMOOTH",
"483 953 OFFCURVE",
"398 800 OFFCURVE",
"398 560 CURVE",
"438 0 LINE",
"150 0 LINE",
"234 463 OFFCURVE",
"243 631 OFFCURVE",
"228 1110 CURVE",
"398 1110 LINE",
"398 996 LINE",
"435 1025 OFFCURVE",
"568 1127 OFFCURVE",
"745 1127 CURVE SMOOTH",
"770 1127 OFFCURVE",
"791 1124 OFFCURVE",
"828 1117 CURVE"
);
}
);
width = 979;
}
);
unicode = 0072;
},
{
color = 7;
glyphname = s;
lastChange = "2012-11-09 12:32:36 -0500";
layers = (
{
anchors = (
{
name = bottom;
position = "{561, 0}";
},
{
name = top;
position = "{561, 1120}";
}
);
layerId = "6B6936E6-7670-4A82-900D-EAF583C971AF";
name = Regular;
paths = (
{
closed = 1;
nodes = (
"946 933 LINE",
"842 986 OFFCURVE",
"730 1013 OFFCURVE",
"610 1013 CURVE SMOOTH",
"427 1013 OFFCURVE",
"326 947 OFFCURVE",
"326 835 CURVE SMOOTH",
"326 736 OFFCURVE",
"385 689 OFFCURVE",
"582 645 CURVE SMOOTH",
"645 631 LINE SMOOTH",
"906 575 OFFCURVE",
"1006 492 OFFCURVE",
"1006 309 CURVE SMOOTH",
"1006 101 OFFCURVE",
"831 -29 OFFCURVE",
"543 -29 CURVE SMOOTH",
"423 -29 OFFCURVE",
"294 -6 OFFCURVE",
"150 41 CURVE",
"150 311 LINE",
"286 240 OFFCURVE",
"418 205 OFFCURVE",
"547 205 CURVE SMOOTH",
"720 205 OFFCURVE",
"797 259 OFFCURVE",
"797 355 CURVE",
"775 395 OFFCURVE",
"756 424 OFFCURVE",
"740 443 CURVE SMOOTH",
"724 461 OFFCURVE",
"659 482 OFFCURVE",
"545 507 CURVE SMOOTH",
"481 522 LINE SMOOTH",
"253 570 OFFCURVE",
"158 644 OFFCURVE",
"158 817 CURVE SMOOTH",
"158 1028 OFFCURVE",
"313 1147 OFFCURVE",
"588 1147 CURVE SMOOTH",
"724 1147 OFFCURVE",
"845 1127 OFFCURVE",
"946 1087 CURVE"
);
}
);
width = 1156;
}
);
unicode = 0073;
},
{
color = 7;
glyphname = t;
lastChange = "2013-05-13 21:37:09 -0500";
layers = (
{
anchors = (
{
name = bottom;
position = "{578, 0}";
},
{
name = caron;
position = "{656, 1262}";
},
{
name = center;
position = "{485, 560}";
},
{
name = circumflexbelowcomb;
position = "{595, -51}";
},
{
name = top;
position = "{389, 1353}";
}
);
layerId = "6B6936E6-7670-4A82-900D-EAF583C971AF";
name = Regular;
paths = (
{
closed = 1;
nodes = (
"490 1398 LINE",
"480 1120 LINE",
"739 1120 LINE",
"739 977 LINE",
"480 977 LINE",
"470 489 LINE SMOOTH",
"470 306 OFFCURVE",
"507 274 OFFCURVE",
"660 274 CURVE SMOOTH",
"849 274 LINE",
"849 0 LINE",
"660 0 LINE SMOOTH",
"376 0 OFFCURVE",
"275 89 OFFCURVE",
"275 369 CURVE SMOOTH",
"285 977 LINE",
"150 977 LINE",
"150 1120 LINE",
"285 1120 LINE SMOOTH",
"295 1398 LINE"
);
}
);
width = 999;
}
);
unicode = 0074;
},
{
color = 7;
glyphname = u;
lastChange = "2013-03-08 11:03:38 -0500";
layers = (
{
anchors = (
{
name = horn;
position = "{1050, 913}";
},
{
name = ogonek;
position = "{992, 10}";
},
{
name = top;
position = "{631, 1120}";
}
);
layerId = "6B6936E6-7670-4A82-900D-EAF583C971AF";
name = Regular;
paths = (
{
closed = 1;
nodes = (
"150 1120 LINE",
"304 1120 LINE",
"304 609 LINE",
"317 397 OFFCURVE",
"387 291 OFFCURVE",
"552 291 CURVE SMOOTH",
"751 291 OFFCURVE",
"861 426 OFFCURVE",
"874 645 CURVE",
"894 1120 LINE",
"1098 1120 LINE",
"1078 0 LINE",
"894 0 LINE",
"904 172 LINE",
"815 36 OFFCURVE",
"699 -29 OFFCURVE",
"543 -29 CURVE SMOOTH",
"286 -29 OFFCURVE",
"150 134 OFFCURVE",
"150 442 CURVE SMOOTH"
);
}
);
width = 1248;
}
);
unicode = 0075;
},
{
color = 7;
glyphname = v;
lastChange = "2012-11-09 12:32:36 -0500";
layers = (
{
layerId = "6B6936E6-7670-4A82-900D-EAF583C971AF";
name = Regular;
paths = (
{
closed = 1;
nodes = (
"150 1120 LINE",
"345 1120 LINE",
"695 300 LINE",
"1045 1120 LINE",
"1240 1120 LINE",
"830 0 LINE",
"560 0 LINE"
);
}
);
width = 1390;
}
);
unicode = 0076;
},
{
color = 7;
glyphname = w;
lastChange = "2013-10-11 19:42:35 -0500";
layers = (
{
anchors = (
{
name = top;
position = "{902, 1120}";
}
);
layerId = "6B6936E6-7670-4A82-900D-EAF583C971AF";
name = Regular;
paths = (
{
closed = 1;
nodes = (
"150 1120 LINE",
"334 1120 LINE",
"564 336 LINE",
"773 750 LINE",
"1030 750 LINE",
"1240 336 LINE",
"1469 1120 LINE",
"1653 1120 LINE",
"1360 0 LINE",
"1103 0 LINE",
"902 508 LINE",
"690 0 LINE",
"443 0 LINE"
);
}
);
width = 1803;
}
);
unicode = 0077;
},
{
color = 7;
glyphname = x;
lastChange = "2012-11-09 12:32:36 -0500";
layers = (
{
layerId = "6B6936E6-7670-4A82-900D-EAF583C971AF";
name = Regular;
paths = (
{
closed = 1;
nodes = (
"1235 1120 LINE",
"840 525 LINE",
"1276 0 LINE",
"979 0 LINE",
"723 390 LINE",
"447 0 LINE",
"150 0 LINE",
"595 536 LINE",
"207 1120 LINE",
"404 1120 LINE",
"711 661 LINE",
"1048 1120 LINE"
);
}
);
width = 1426;
}
);
leftKerningGroup = Round;
unicode = 0078;
},
{
color = 7;
glyphname = y;
lastChange = "2013-10-11 19:46:43 -0500";
layers = (
{
anchors = (
{
name = top;
position = "{607, 1120}";
}
);
layerId = "6B6936E6-7670-4A82-900D-EAF583C971AF";
name = Regular;
paths = (
{
closed = 1;
nodes = (
"768 -104 LINE",
"637 -397 OFFCURVE",
"543 -446 OFFCURVE",
"378 -446 CURVE SMOOTH",
"211 -446 LINE",
"211 -202 LINE",
"339 -202 LINE SMOOTH",
"440 -202 OFFCURVE",
"482 -151 OFFCURVE",
"550 -66 CURVE",
"629 93 LINE",
"150 1120 LINE",
"345 1120 LINE",
"741 469 LINE",
"1045 1120 LINE",
"1240 1120 LINE"
);
}
);
width = 1390;
}
);
unicode = 0079;
},
{
color = 7;
glyphname = z;
lastChange = "2012-11-09 12:32:36 -0500";
layers = (
{
anchors = (
{
name = top;
position = "{651, 1120}";
}
);
layerId = "6B6936E6-7670-4A82-900D-EAF583C971AF";
name = Regular;
paths = (
{
closed = 1;
nodes = (
"195 1120 LINE",
"1059 1120 LINE",
"1059 952 LINE",
"427 247 LINE",
"1049 247 LINE",
"1049 0 LINE",
"150 0 LINE",
"150 268 LINE",
"862 983 LINE",
"195 983 LINE"
);
}
);
width = 1209;
}
);
unicode = 007A;
},
{
glyphname = braceleft;
lastChange = "2012-10-19 18:31:11 -0500";
layers = (
{
layerId = "6B6936E6-7670-4A82-900D-EAF583C971AF";
name = Regular;
paths = (
{
closed = 1;
nodes = (
"928 -144 LINE",
"926 -348 LINE",
"864 -347 LINE SMOOTH",
"532 -340 OFFCURVE",
"460 -265 OFFCURVE",
"452 30 CURVE",
"456 268 LINE",
"447 469 OFFCURVE",
"400 536 OFFCURVE",
"211 540 CURVE SMOOTH",
"150 541 LINE",
"152 684 LINE",
"213 683 LINE",
"404 692 OFFCURVE",
"464 743 OFFCURVE",
"468 942 CURVE SMOOTH",
"472 1182 LINE SMOOTH",
"477 1477 OFFCURVE",
"565 1535 OFFCURVE",
"897 1543 CURVE",
"959 1542 LINE",
"956 1399 LINE",
"888 1400 LINE",
"687 1391 OFFCURVE",
"661 1363 OFFCURVE",
"657 1175 CURVE SMOOTH",
"653 927 LINE SMOOTH",
"649 718 OFFCURVE",
"594 638 OFFCURVE",
"446 607 CURVE",
"594 568 OFFCURVE",
"632 479 OFFCURVE",
"641 298 CURVE",
"637 50 LINE",
"648 -85 OFFCURVE",
"672 -139 OFFCURVE",
"860 -143 CURVE SMOOTH"
);
}
);
width = 1059;
}
);
unicode = 007B;
},
{
glyphname = bar;
lastChange = "2012-10-19 21:43:21 -0500";
layers = (
{
layerId = "6B6936E6-7670-4A82-900D-EAF583C971AF";
name = Regular;
paths = (
{
closed = 1;
nodes = (
"370 527 LINE",
"340 -483 LINE",
"150 -483 LINE",
"240 1565 LINE",
"410 1565 LINE"
);
}
);
width = 510;
}
);
unicode = 007C;
},
{
glyphname = braceright;
lastChange = "2012-05-22 21:38:30 -0500";
layers = (
{
layerId = "6B6936E6-7670-4A82-900D-EAF583C971AF";
name = Regular;
paths = (
{
closed = 1;
nodes = (
"117 -180 LINE",
"187 -180 LINE SMOOTH",
"374 -180 OFFCURVE",
"412 -142 OFFCURVE",
"412 49 CURVE SMOOTH",
"412 297 LINE SMOOTH",
"412 492 OFFCURVE",
"465 576 OFFCURVE",
"613 612 CURVE",
"465 645 OFFCURVE",
"412 727 OFFCURVE",
"412 936 CURVE SMOOTH",
"412 1184 LINE SMOOTH",
"412 1373 OFFCURVE",
"374 1413 OFFCURVE",
"187 1413 CURVE SMOOTH",
"117 1413 LINE",
"117 1556 LINE",
"180 1556 LINE SMOOTH",
"512 1556 OFFCURVE",
"596 1483 OFFCURVE",
"596 1188 CURVE SMOOTH",
"596 948 LINE SMOOTH",
"596 749 OFFCURVE",
"657 684 OFFCURVE",
"846 684 CURVE SMOOTH",
"908 684 LINE",
"908 541 LINE",
"846 541 LINE SMOOTH",
"657 541 OFFCURVE",
"596 475 OFFCURVE",
"596 274 CURVE SMOOTH",
"596 35 LINE SMOOTH",
"596 -260 OFFCURVE",
"512 -334 OFFCURVE",
"180 -334 CURVE SMOOTH",
"117 -334 LINE"
);
}
);
width = 911;
}
);
unicode = 007D;
},
{
glyphname = asciitilde;
lastChange = "2012-10-19 18:31:31 -0500";
layers = (
{
layerId = "6B6936E6-7670-4A82-900D-EAF583C971AF";
name = Regular;
paths = (
{
closed = 1;
nodes = (
"1432 659 LINE",
"1292 554 OFFCURVE",
"1180 462 OFFCURVE",
"1051 462 CURVE SMOOTH",
"978 462 OFFCURVE",
"892 492 OFFCURVE",
"795 551 CURVE",
"788 554 OFFCURVE",
"782 556 OFFCURVE",
"779 557 CURVE",
"774 559 OFFCURVE",
"767 562 OFFCURVE",
"757 565 CURVE",
"654 620 OFFCURVE",
"571 647 OFFCURVE",
"508 647 CURVE SMOOTH",
"391 647 OFFCURVE",
"281 548 OFFCURVE",
"150 437 CURVE",
"150 645 LINE",
"290 750 OFFCURVE",
"402 793 OFFCURVE",
"531 793 CURVE SMOOTH",
"604 793 OFFCURVE",
"690 773 OFFCURVE",
"788 733 CURVE SMOOTH",
"801 728 OFFCURVE",
"806 726 OFFCURVE",
"825 719 CURVE SMOOTH",
"928 678 OFFCURVE",
"1011 657 OFFCURVE",
"1074 657 CURVE SMOOTH",
"1189 657 OFFCURVE",
"1295 705 OFFCURVE",
"1432 817 CURVE"
);
}
);
width = 1582;
}
);
unicode = 007E;
},
{
glyphname = exclamdown;
lastChange = "2012-10-19 18:31:42 -0500";
layers = (
{
layerId = "6B6936E6-7670-4A82-900D-EAF583C971AF";
name = Regular;
paths = (
{
closed = 1;
nodes = (
"393 1259 LINE",
"150 1259 LINE",
"180 1533 LINE",
"363 1533 LINE"
);
},
{
closed = 1;
nodes = (
"451 4 LINE",
"188 -4 LINE",
"174 651 LINE",
"183 1008 LINE",
"385 1015 LINE",
"417 659 LINE"
);
}
);
width = 601;
}
);
unicode = 00A1;
},
{
glyphname = cent;
lastChange = "2012-10-19 18:31:49 -0500";
layers = (
{
layerId = "6B6936E6-7670-4A82-900D-EAF583C971AF";
name = Regular;
paths = (
{
closed = 1;
nodes = (
"664 1008 LINE",
"468 988 OFFCURVE",
"350 827 OFFCURVE",
"345 555 CURVE SMOOTH",
"342 362 OFFCURVE",
"455 229 OFFCURVE",
"650 202 CURVE"
);
},
{
closed = 1;
nodes = (
"1044 919 LINE",
"947 976 OFFCURVE",
"858 1005 OFFCURVE",
"767 1010 CURVE",
"752 196 LINE",
"845 201 OFFCURVE",
"936 228 OFFCURVE",
"1033 277 CURVE",
"1028 27 LINE",
"941 -10 OFFCURVE",
"851 -32 OFFCURVE",
"748 -40 CURVE",
"743 -324 LINE",
"641 -322 LINE",
"646 -34 LINE",
"326 -2 OFFCURVE",
"145 216 OFFCURVE",
"150 559 CURVE SMOOTH",
"157 903 OFFCURVE",
"344 1112 OFFCURVE",
"667 1136 CURVE",
"672 1423 LINE",
"774 1421 LINE",
"770 1134 LINE",
"867 1127 OFFCURVE",
"957 1104 OFFCURVE",
"1046 1061 CURVE"
);
}
);
width = 1196;
}
);
unicode = 00A2;
},
{
glyphname = sterling;
lastChange = "2012-10-19 18:31:55 -0500";
layers = (
{
layerId = "6B6936E6-7670-4A82-900D-EAF583C971AF";
name = Regular;
paths = (
{
closed = 1;
nodes = (
"1158 1261 LINE",
"1058 1317 OFFCURVE",
"968 1347 OFFCURVE",
"887 1348 CURVE",
"690 1337 OFFCURVE",
"621 1268 OFFCURVE",
"613 985 CURVE SMOOTH",
"607 770 LINE",
"998 763 LINE",
"995 640 LINE",
"604 647 LINE",
"592 212 LINE",
"1149 203 LINE",
"1143 -17 LINE",
"150 0 LINE",
"156 220 LINE",
"392 216 LINE",
"404 651 LINE",
"205 654 LINE",
"208 777 LINE",
"407 774 LINE",
"414 1012 LINE SMOOTH",
"423 1360 OFFCURVE",
"563 1500 OFFCURVE",
"874 1508 CURVE",
"954 1507 OFFCURVE",
"1059 1483 OFFCURVE",
"1163 1443 CURVE"
);
}
);
width = 1313;
}
);
unicode = 00A3;
},
{
glyphname = currency;
lastChange = "2012-12-25 11:05:27 -0500";
layers = (
{
layerId = "6B6936E6-7670-4A82-900D-EAF583C971AF";
name = Regular;
paths = (
{
closed = 1;
nodes = (
"1154 1202 LINE",
"1268 1087 LINE",
"1062 881 LINE",
"1111 802 OFFCURVE",
"1135 724 OFFCURVE",
"1135 641 CURVE SMOOTH",
"1135 557 OFFCURVE",
"1110 482 OFFCURVE",
"1057 406 CURVE",
"1266 199 LINE",
"1152 86 LINE",
"945 293 LINE",
"866 240 OFFCURVE",
"790 215 OFFCURVE",
"709 215 CURVE SMOOTH",
"632 215 OFFCURVE",
"551 240 OFFCURVE",
"470 289 CURVE",
"263 82 LINE",
"150 197 LINE",
"357 403 LINE",
"308 486 OFFCURVE",
"283 564 OFFCURVE",
"283 641 CURVE SMOOTH",
"283 726 OFFCURVE",
"308 802 OFFCURVE",
"359 877 CURVE",
"152 1083 LINE",
"267 1198 LINE",
"474 991 LINE",
"547 1043 OFFCURVE",
"624 1067 OFFCURVE",
"709 1067 CURVE SMOOTH",
"789 1067 OFFCURVE",
"866 1044 OFFCURVE",
"947 993 CURVE"
);
},
{
closed = 1;
nodes = (
"978 792 OFFCURVE",
"861 909 OFFCURVE",
"709 909 CURVE SMOOTH",
"560 909 OFFCURVE",
"439 792 OFFCURVE",
"439 643 CURVE SMOOTH",
"439 491 OFFCURVE",
"558 449 OFFCURVE",
"709 449 CURVE SMOOTH",
"860 449 OFFCURVE",
"978 492 OFFCURVE",
"978 643 CURVE SMOOTH"
);
}
);
width = 1418;
}
);
unicode = 00A4;
},
{
glyphname = yen;
lastChange = "2012-10-19 22:09:08 -0500";
layers = (
{
layerId = "6B6936E6-7670-4A82-900D-EAF583C971AF";
name = Regular;
paths = (
{
closed = 1;
nodes = (
"1253 415 LINE",
"840 415 LINE",
"860 0 LINE",
"599 0 LINE",
"629 415 LINE",
"213 415 LINE",
"213 578 LINE",
"629 578 LINE",
"629 629 LINE",
"525 784 LINE",
"193 784 LINE",
"193 907 LINE",
"457 907 LINE",
"150 1493 LINE",
"360 1493 LINE",
"729 793 LINE",
"1096 1493 LINE",
"1307 1493 LINE",
"989 907 LINE",
"1253 907 LINE",
"1253 784 LINE",
"922 784 LINE",
"838 629 LINE",
"838 578 LINE",
"1253 578 LINE"
);
}
);
width = 1457;
}
);
unicode = 00A5;
},
{
glyphname = brokenbar;
lastChange = "2012-10-19 21:42:22 -0500";
layers = (
{
layerId = "6B6936E6-7670-4A82-900D-EAF583C971AF";
name = Regular;
paths = (
{
closed = 1;
nodes = (
"340 -483 LINE",
"150 -483 LINE",
"200 526 LINE",
"370 526 LINE"
);
},
{
closed = 1;
nodes = (
"201 633 LINE",
"240 1565 LINE",
"410 1565 LINE",
"371 633 LINE"
);
}
);
width = 470;
}
);
unicode = 00A6;
},
{
glyphname = section;
lastChange = "2012-10-19 18:32:18 -0500";
layers = (
{
layerId = "6B6936E6-7670-4A82-900D-EAF583C971AF";
name = Regular;
paths = (
{
closed = 1;
nodes = (
"353 899 OFFCURVE",
"312 839 OFFCURVE",
"312 778 CURVE SMOOTH",
"312 727 OFFCURVE",
"335 680 OFFCURVE",
"382 636 CURVE SMOOTH",
"428 591 OFFCURVE",
"534 524 OFFCURVE",
"701 434 CURVE",
"785 494 OFFCURVE",
"826 555 OFFCURVE",
"826 616 CURVE SMOOTH",
"826 666 OFFCURVE",
"802 714 OFFCURVE",
"755 759 CURVE SMOOTH",
"707 804 OFFCURVE",
"601 871 OFFCURVE",
"437 960 CURVE"
);
},
{
closed = 1;
nodes = (
"887 1298 LINE",
"776 1350 OFFCURVE",
"680 1376 OFFCURVE",
"605 1376 CURVE SMOOTH",
"476 1376 OFFCURVE",
"400 1320 OFFCURVE",
"400 1225 CURVE SMOOTH",
"400 1165 OFFCURVE",
"469 1097 OFFCURVE",
"606 1020 CURVE SMOOTH",
"623 1010 OFFCURVE",
"637 1002 OFFCURVE",
"646 997 CURVE SMOOTH",
"787 918 OFFCURVE",
"879 852 OFFCURVE",
"923 801 CURVE SMOOTH",
"966 750 OFFCURVE",
"988 690 OFFCURVE",
"988 623 CURVE SMOOTH",
"988 503 OFFCURVE",
"927 411 OFFCURVE",
"803 340 CURVE",
"886 271 OFFCURVE",
"922 200 OFFCURVE",
"922 115 CURVE SMOOTH",
"922 -74 OFFCURVE",
"776 -195 OFFCURVE",
"545 -195 CURVE SMOOTH",
"448 -195 OFFCURVE",
"347 -176 OFFCURVE",
"230 -137 CURVE",
"230 77 LINE",
"346 25 OFFCURVE",
"446 -1 OFFCURVE",
"523 -1 CURVE SMOOTH",
"659 -1 OFFCURVE",
"738 28 OFFCURVE",
"738 129 CURVE SMOOTH",
"738 184 OFFCURVE",
"664 252 OFFCURVE",
"517 334 CURVE SMOOTH",
"492 348 LINE SMOOTH",
"349 428 OFFCURVE",
"257 494 OFFCURVE",
"214 545 CURVE SMOOTH",
"171 596 OFFCURVE",
"150 655 OFFCURVE",
"150 723 CURVE SMOOTH",
"150 844 OFFCURVE",
"213 941 OFFCURVE",
"334 1006 CURVE",
"255 1065 OFFCURVE",
"216 1139 OFFCURVE",
"216 1231 CURVE SMOOTH",
"216 1404 OFFCURVE",
"361 1520 OFFCURVE",
"582 1520 CURVE SMOOTH",
"679 1520 OFFCURVE",
"782 1501 OFFCURVE",
"887 1462 CURVE"
);
}
);
width = 1138;
}
);
unicode = 00A7;
},
{
glyphname = dieresis;
lastChange = "2012-10-19 18:32:26 -0500";
layers = (
{
anchors = (
{
name = _top;
position = "{469, 1120}";
}
);
layerId = "6B6936E6-7670-4A82-900D-EAF583C971AF";
name = Regular;
paths = (
{
closed = 1;
nodes = (
"569 1567 LINE",
"787 1567 LINE",
"787 1350 LINE",
"569 1350 LINE"
);
},
{
closed = 1;
nodes = (
"150 1567 LINE",
"368 1567 LINE",
"368 1350 LINE",
"150 1350 LINE"
);
}
);
width = 937;
}
);
unicode = 00A8;
},
{
glyphname = copyright;
lastChange = "2012-10-19 18:32:30 -0500";
layers = (
{
layerId = "6B6936E6-7670-4A82-900D-EAF583C971AF";
name = Regular;
paths = (
{
closed = 1;
nodes = (
"1094 1485 OFFCURVE",
"1270 1411 OFFCURVE",
"1415 1266 CURVE SMOOTH",
"1560 1121 OFFCURVE",
"1632 946 OFFCURVE",
"1632 741 CURVE SMOOTH",
"1632 538 OFFCURVE",
"1560 364 OFFCURVE",
"1415 219 CURVE SMOOTH",
"1270 74 OFFCURVE",
"1094 0 OFFCURVE",
"891 0 CURVE SMOOTH",
"688 0 OFFCURVE",
"512 74 OFFCURVE",
"367 219 CURVE SMOOTH",
"222 364 OFFCURVE",
"150 538 OFFCURVE",
"150 741 CURVE SMOOTH",
"150 946 OFFCURVE",
"222 1121 OFFCURVE",
"367 1266 CURVE SMOOTH",
"512 1411 OFFCURVE",
"688 1485 OFFCURVE",
"891 1485 CURVE SMOOTH"
);
},
{
closed = 1;
nodes = (
"716 1382 OFFCURVE",
"565 1319 OFFCURVE",
"440 1194 CURVE SMOOTH",
"315 1069 OFFCURVE",
"250 914 OFFCURVE",
"250 741 CURVE SMOOTH",
"250 569 OFFCURVE",
"315 433 OFFCURVE",
"440 321 CURVE",
"565 236 OFFCURVE",
"716 182 OFFCURVE",
"891 182 CURVE SMOOTH",
"1067 182 OFFCURVE",
"1219 236 OFFCURVE",
"1344 321 CURVE",
"1468 418 OFFCURVE",
"1530 566 OFFCURVE",
"1530 741 CURVE SMOOTH",
"1530 918 OFFCURVE",
"1467 1070 OFFCURVE",
"1344 1194 CURVE SMOOTH",
"1219 1319 OFFCURVE",
"1067 1382 OFFCURVE",
"891 1382 CURVE SMOOTH"
);
},
{
closed = 1;
nodes = (
"1190 1038 LINE",
"1102 1082 OFFCURVE",
"1016 1103 OFFCURVE",
"928 1103 CURVE SMOOTH",
"729 1103 OFFCURVE",
"612 950 OFFCURVE",
"612 741 CURVE SMOOTH",
"612 609 OFFCURVE",
"731 468 OFFCURVE",
"938 468 CURVE SMOOTH",
"1023 468 OFFCURVE",
"1102 488 OFFCURVE",
"1190 533 CURVE",
"1190 346 LINE",
"1101 307 OFFCURVE",
"1009 289 OFFCURVE",
"916 289 CURVE SMOOTH",
"628 289 OFFCURVE",
"449 464 OFFCURVE",
"449 741 CURVE SMOOTH",
"449 1020 OFFCURVE",
"628 1192 OFFCURVE",
"916 1192 CURVE SMOOTH",
"1013 1192 OFFCURVE",
"1103 1173 OFFCURVE",
"1190 1137 CURVE"
);
}
);
width = 1782;
}
);
unicode = 00A9;
},
{
glyphname = ordfeminine;
lastChange = "2012-10-19 18:32:34 -0500";
layers = (
{
layerId = "6B6936E6-7670-4A82-900D-EAF583C971AF";
name = Regular;
paths = (
{
closed = 1;
nodes = (
"174 592 LINE",
"862 592 LINE",
"862 469 LINE",
"174 469 LINE"
);
},
{
closed = 1;
nodes = (
"860 717 LINE",
"711 717 LINE",
"711 829 LINE",
"652 745 OFFCURVE",
"554 698 OFFCURVE",
"430 698 CURVE SMOOTH",
"259 698 OFFCURVE",
"150 795 OFFCURVE",
"150 946 CURVE SMOOTH",
"150 1126 OFFCURVE",
"278 1219 OFFCURVE",
"529 1219 CURVE SMOOTH",
"711 1219 LINE",
"711 1223 LINE SMOOTH",
"711 1344 OFFCURVE",
"633 1405 OFFCURVE",
"477 1405 CURVE SMOOTH",
"394 1405 OFFCURVE",
"302 1382 OFFCURVE",
"211 1337 CURVE",
"211 1464 LINE",
"308 1501 OFFCURVE",
"406 1520 OFFCURVE",
"498 1520 CURVE SMOOTH",
"742 1520 OFFCURVE",
"860 1404 OFFCURVE",
"860 1165 CURVE SMOOTH"
);
},
{
closed = 1;
nodes = (
"574 1169 LINE SMOOTH",
"467 1169 OFFCURVE",
"392 1158 OFFCURVE",
"350 1136 CURVE SMOOTH",
"308 1113 OFFCURVE",
"287 1076 OFFCURVE",
"287 1023 CURVE SMOOTH",
"287 938 OFFCURVE",
"358 882 OFFCURVE",
"467 882 CURVE SMOOTH",
"606 882 OFFCURVE",
"701 988 OFFCURVE",
"701 1140 CURVE SMOOTH",
"701 1169 LINE"
);
}
);
width = 1012;
}
);
unicode = 00AA;
},
{
glyphname = guillemotleft;
lastChange = "2012-10-19 18:32:41 -0500";
layers = (
{
layerId = "6B6936E6-7670-4A82-900D-EAF583C971AF";
name = Regular;
paths = (
{
closed = 1;
nodes = (
"1111 1026 LINE",
"1105 835 LINE",
"794 577 LINE",
"1086 299 LINE",
"1038 70 LINE",
"584 504 LINE",
"628 624 LINE"
);
},
{
closed = 1;
nodes = (
"678 1041 LINE",
"671 850 LINE",
"361 593 LINE",
"652 314 LINE",
"604 85 LINE",
"150 519 LINE",
"194 639 LINE"
);
}
);
width = 1261;
}
);
unicode = 00AB;
},
{
glyphname = logicalnot;
lastChange = "2012-10-19 18:32:50 -0500";
layers = (
{
layerId = "6B6936E6-7670-4A82-900D-EAF583C971AF";
name = Regular;
paths = (
{
closed = 1;
nodes = (
"150 862 LINE",
"1432 862 LINE",
"1462 287 LINE",
"1214 287 LINE",
"1264 692 LINE",
"150 672 LINE"
);
}
);
width = 1612;
}
);
unicode = 00AC;
},
{
glyphname = registered;
lastChange = "2012-10-19 18:33:00 -0500";
layers = (
{
layerId = "6B6936E6-7670-4A82-900D-EAF583C971AF";
name = Regular;
paths = (
{
closed = 1;
nodes = (
"716 1382 OFFCURVE",
"565 1324 OFFCURVE",
"440 1208 CURVE SMOOTH",
"315 1092 OFFCURVE",
"250 950 OFFCURVE",
"250 790 CURVE SMOOTH",
"250 630 OFFCURVE",
"315 490 OFFCURVE",
"440 374 CURVE SMOOTH",
"565 258 OFFCURVE",
"716 199 OFFCURVE",
"891 199 CURVE SMOOTH",
"1067 199 OFFCURVE",
"1219 258 OFFCURVE",
"1344 374 CURVE SMOOTH",
"1468 489 OFFCURVE",
"1530 629 OFFCURVE",
"1530 790 CURVE SMOOTH",
"1530 953 OFFCURVE",
"1467 1093 OFFCURVE",
"1344 1208 CURVE SMOOTH",
"1219 1324 OFFCURVE",
"1067 1382 OFFCURVE",
"891 1382 CURVE SMOOTH"
);
},
{
closed = 1;
nodes = (
"1094 1485 OFFCURVE",
"1270 1411 OFFCURVE",
"1415 1266 CURVE SMOOTH",
"1560 1121 OFFCURVE",
"1632 946 OFFCURVE",
"1632 741 CURVE SMOOTH",
"1632 538 OFFCURVE",
"1560 364 OFFCURVE",
"1415 219 CURVE SMOOTH",
"1270 74 OFFCURVE",
"1094 0 OFFCURVE",
"891 0 CURVE SMOOTH",
"688 0 OFFCURVE",
"512 74 OFFCURVE",
"367 219 CURVE SMOOTH",
"222 364 OFFCURVE",
"150 538 OFFCURVE",
"150 741 CURVE SMOOTH",
"150 946 OFFCURVE",
"222 1121 OFFCURVE",
"367 1266 CURVE SMOOTH",
"512 1411 OFFCURVE",
"688 1485 OFFCURVE",
"891 1485 CURVE SMOOTH"
);
},
{
closed = 1;
nodes = (
"791 1121 LINE",
"791 845 LINE",
"914 845 LINE SMOOTH",
"1061 845 OFFCURVE",
"1111 882 OFFCURVE",
"1111 982 CURVE SMOOTH",
"1111 1083 OFFCURVE",
"1059 1121 OFFCURVE",
"914 1121 CURVE SMOOTH"
);
},
{
closed = 1;
nodes = (
"871 1174 LINE SMOOTH",
"1106 1174 OFFCURVE",
"1221 1095 OFFCURVE",
"1221 934 CURVE SMOOTH",
"1221 819 OFFCURVE",
"1148 742 OFFCURVE",
"1020 719 CURVE",
"1036 714 OFFCURVE",
"1055 698 OFFCURVE",
"1078 673 CURVE",
"1100 647 OFFCURVE",
"1126 610 OFFCURVE",
"1157 561 CURVE SMOOTH",
"1294 338 LINE",
"1122 338 LINE",
"993 547 LINE SMOOTH",
"954 611 OFFCURVE",
"922 652 OFFCURVE",
"898 669 CURVE SMOOTH",
"873 686 OFFCURVE",
"856 694 OFFCURVE",
"847 694 CURVE SMOOTH",
"791 694 LINE",
"791 338 LINE",
"586 338 LINE",
"586 1174 LINE"
);
}
);
width = 1782;
}
);
unicode = 00AE;
},
{
glyphname = macron;
lastChange = "2013-05-13 21:37:16 -0500";
layers = (
{
anchors = (
{
name = _top;
position = "{449, 1201}";
}
);
layerId = "6B6936E6-7670-4A82-900D-EAF583C971AF";
name = Regular;
paths = (
{
closed = 1;
nodes = (
"150 1526 LINE",
"748 1526 LINE",
"748 1378 LINE",
"150 1378 LINE"
);
}
);
width = 898;
}
);
unicode = 00AF;
},
{
glyphname = degree;
lastChange = "2012-10-19 18:33:11 -0500";
layers = (
{
layerId = "6B6936E6-7670-4A82-900D-EAF583C971AF";
name = Regular;
paths = (
{
closed = 1;
nodes = (
"360 1441 OFFCURVE",
"277 1364 OFFCURVE",
"277 1267 CURVE SMOOTH",
"277 1171 OFFCURVE",
"360 1096 OFFCURVE",
"467 1096 CURVE SMOOTH",
"574 1096 OFFCURVE",
"657 1171 OFFCURVE",
"657 1267 CURVE SMOOTH",
"657 1363 OFFCURVE",
"572 1441 OFFCURVE",
"467 1441 CURVE SMOOTH"
);
},
{
closed = 1;
nodes = (
"552 1520 OFFCURVE",
"635 1486 OFFCURVE",
"692 1425 CURVE",
"753 1365 OFFCURVE",
"784 1288 OFFCURVE",
"784 1200 CURVE SMOOTH",
"784 1024 OFFCURVE",
"644 885 OFFCURVE",
"465 885 CURVE SMOOTH",
"285 885 OFFCURVE",
"150 1020 OFFCURVE",
"150 1200 CURVE SMOOTH",
"150 1379 OFFCURVE",
"290 1520 OFFCURVE",
"467 1520 CURVE SMOOTH"
);
}
);
width = 934;
}
);
unicode = 00B0;
},
{
glyphname = plusminus;
lastChange = "2012-10-19 18:33:18 -0500";
layers = (
{
layerId = "6B6936E6-7670-4A82-900D-EAF583C971AF";
name = Regular;
paths = (
{
closed = 1;
nodes = (
"875 1284 LINE",
"875 897 LINE",
"1432 897 LINE",
"1432 727 LINE",
"875 727 LINE",
"875 340 LINE",
"707 340 LINE",
"707 727 LINE",
"150 727 LINE",
"150 897 LINE",
"707 897 LINE",
"707 1284 LINE"
);
},
{
closed = 1;
nodes = (
"150 190 LINE",
"1432 190 LINE",
"1432 0 LINE",
"150 0 LINE"
);
}
);
width = 1582;
}
);
unicode = 00B1;
},
{
glyphname = twosuperior;
lastChange = "2012-10-19 18:33:24 -0500";
layers = (
{
layerId = "6B6936E6-7670-4A82-900D-EAF583C971AF";
name = Regular;
paths = (
{
closed = 1;
nodes = (
"748 833 LINE",
"748 668 LINE",
"150 668 LINE",
"150 829 LINE",
"173 850 OFFCURVE",
"205 879 OFFCURVE",
"247 916 CURVE SMOOTH",
"476 1119 OFFCURVE",
"591 1201 OFFCURVE",
"591 1264 CURVE SMOOTH",
"591 1352 OFFCURVE",
"515 1411 OFFCURVE",
"402 1411 CURVE SMOOTH",
"333 1411 OFFCURVE",
"252 1388 OFFCURVE",
"156 1341 CURVE",
"156 1464 LINE",
"259 1501 OFFCURVE",
"347 1520 OFFCURVE",
"423 1520 CURVE SMOOTH",
"616 1520 OFFCURVE",
"742 1424 OFFCURVE",
"742 1280 CURVE SMOOTH",
"742 1187 OFFCURVE",
"632 1097 OFFCURVE",
"411 908 CURVE SMOOTH",
"374 876 OFFCURVE",
"345 851 OFFCURVE",
"324 833 CURVE"
);
}
);
width = 898;
}
);
unicode = 00B2;
},
{
glyphname = threesuperior;
lastChange = "2012-10-19 18:33:31 -0500";
layers = (
{
layerId = "6B6936E6-7670-4A82-900D-EAF583C971AF";
name = Regular;
paths = (
{
closed = 1;
nodes = (
"699 1096 OFFCURVE",
"769 1020 OFFCURVE",
"769 911 CURVE SMOOTH",
"769 746 OFFCURVE",
"638 653 OFFCURVE",
"402 653 CURVE SMOOTH",
"326 653 OFFCURVE",
"243 667 OFFCURVE",
"150 694 CURVE",
"159 859 LINE",
"228 823 OFFCURVE",
"308 806 OFFCURVE",
"397 806 CURVE SMOOTH",
"542 806 OFFCURVE",
"617 818 OFFCURVE",
"617 911 CURVE SMOOTH",
"617 1010 OFFCURVE",
"542 1061 OFFCURVE",
"398 1061 CURVE SMOOTH",
"312 1061 LINE",
"312 1169 LINE",
"406 1169 LINE SMOOTH",
"531 1169 OFFCURVE",
"597 1212 OFFCURVE",
"597 1292 CURVE SMOOTH",
"597 1369 OFFCURVE",
"529 1411 OFFCURVE",
"402 1411 CURVE SMOOTH",
"349 1411 OFFCURVE",
"287 1401 OFFCURVE",
"179 1370 CURVE",
"179 1485 LINE",
"276 1508 OFFCURVE",
"362 1520 OFFCURVE",
"435 1520 CURVE SMOOTH",
"627 1520 OFFCURVE",
"748 1435 OFFCURVE",
"748 1303 CURVE SMOOTH",
"748 1211 OFFCURVE",
"685 1144 OFFCURVE",
"576 1120 CURVE"
);
}
);
width = 919;
}
);
unicode = 00B3;
},
{
glyphname = acute;
lastChange = "2013-03-08 11:24:52 -0500";
layers = (
{
anchors = (
{
name = _top;
position = "{232, 812}";
}
);
layerId = "6B6936E6-7670-4A82-900D-EAF583C971AF";
name = Regular;
paths = (
{
closed = 1;
nodes = (
"462 1738 LINE",
"683 1738 LINE",
"320 1320 LINE",
"150 1320 LINE"
);
}
);
width = 833;
}
);
unicode = 00B4;
},
{
glyphname = mu;
lastChange = "2012-11-02 20:28:51 -0500";
layers = (
{
layerId = "6B6936E6-7670-4A82-900D-EAF583C971AF";
name = Regular;
paths = (
{
closed = 1;
nodes = (
"170 -426 LINE",
"150 1120 LINE",
"334 1130 LINE",
"344 634 LINE SMOOTH",
"344 441 OFFCURVE",
"437 341 OFFCURVE",
"617 341 CURVE SMOOTH",
"814 341 OFFCURVE",
"914 453 OFFCURVE",
"914 677 CURVE SMOOTH",
"924 1120 LINE",
"1108 1120 LINE",
"1098 258 LINE SMOOTH",
"1098 218 OFFCURVE",
"1135 196 OFFCURVE",
"1210 191 CURVE",
"1216 191 OFFCURVE",
"1224 193 OFFCURVE",
"1235 197 CURVE",
"1246 200 OFFCURVE",
"1260 206 OFFCURVE",
"1279 214 CURVE",
"1279 66 LINE",
"1252 51 OFFCURVE",
"1219 31 OFFCURVE",
"1182 7 CURVE SMOOTH",
"1144 -17 OFFCURVE",
"1113 -29 OFFCURVE",
"1090 -29 CURVE SMOOTH",
"998 -29 OFFCURVE",
"944 22 OFFCURVE",
"924 129 CURVE",
"857 24 OFFCURVE",
"762 -29 OFFCURVE",
"631 -29 CURVE SMOOTH",
"495 -29 OFFCURVE",
"400 23 OFFCURVE",
"344 127 CURVE",
"354 -426 LINE"
);
}
);
width = 1429;
}
);
unicode = 00B5;
},
{
glyphname = paragraph;
lastChange = "2012-10-19 18:34:02 -0500";
layers = (
{
layerId = "6B6936E6-7670-4A82-900D-EAF583C971AF";
name = Regular;
paths = (
{
closed = 1;
nodes = (
"1063 1493 LINE",
"1283 -197 LINE",
"922 -197 LINE",
"932 1370 LINE",
"742 1370 LINE",
"742 -197 LINE",
"420 -197 LINE",
"490 649 LINE",
"350 672 OFFCURVE",
"150 826 OFFCURVE",
"150 1071 CURVE SMOOTH",
"150 1324 OFFCURVE",
"338 1493 OFFCURVE",
"625 1493 CURVE SMOOTH"
);
}
);
width = 1433;
}
);
unicode = 00B6;
},
{
glyphname = periodcentered;
lastChange = "2013-04-23 05:59:28 -0500";
layers = (
{
anchors = (
{
name = _dot;
position = "{125, 770}";
}
);
layerId = "6B6936E6-7670-4A82-900D-EAF583C971AF";
name = Regular;
paths = (
{
closed = 1;
nodes = (
"150 838 LINE",
"361 838 LINE",
"361 584 LINE",
"150 584 LINE"
);
}
);
width = 511;
}
);
unicode = 00B7;
},
{
glyphname = cedilla;
lastChange = "2012-10-19 18:34:13 -0500";
layers = (
{
anchors = (
{
name = _bottom;
position = "{357, 0}";
}
);
layerId = "6B6936E6-7670-4A82-900D-EAF583C971AF";
name = Regular;
paths = (
{
closed = 1;
nodes = (
"455 0 LINE",
"528 -83 OFFCURVE",
"564 -151 OFFCURVE",
"564 -215 CURVE SMOOTH",
"564 -334 OFFCURVE",
"483 -395 OFFCURVE",
"326 -395 CURVE SMOOTH",
"265 -395 OFFCURVE",
"207 -387 OFFCURVE",
"150 -371 CURVE",
"150 -240 LINE",
"195 -263 OFFCURVE",
"242 -272 OFFCURVE",
"305 -272 CURVE SMOOTH",
"384 -272 OFFCURVE",
"424 -239 OFFCURVE",
"424 -178 CURVE SMOOTH",
"424 -138 OFFCURVE",
"396 -81 OFFCURVE",
"336 0 CURVE"
);
}
);
width = 714;
}
);
unicode = 00B8;
},
{
glyphname = onesuperior;
lastChange = "2012-10-19 18:34:19 -0500";
layers = (
{
layerId = "6B6936E6-7670-4A82-900D-EAF583C971AF";
name = Regular;
paths = (
{
closed = 1;
nodes = (
"169 852 LINE",
"373 852 LINE",
"373 1389 LINE",
"150 1348 LINE",
"150 1464 LINE",
"380 1503 LINE",
"517 1503 LINE",
"517 852 LINE",
"722 852 LINE",
"722 668 LINE",
"169 668 LINE"
);
}
);
width = 872;
}
);
unicode = 00B9;
},
{
glyphname = ordmasculine;
lastChange = "2012-10-19 18:34:26 -0500";
layers = (
{
layerId = "6B6936E6-7670-4A82-900D-EAF583C971AF";
name = Regular;
paths = (
{
closed = 1;
nodes = (
"193 592 LINE",
"881 592 LINE",
"881 469 LINE",
"193 469 LINE"
);
},
{
closed = 1;
nodes = (
"776 1520 OFFCURVE",
"922 1363 OFFCURVE",
"922 1108 CURVE SMOOTH",
"922 853 OFFCURVE",
"776 698 OFFCURVE",
"537 698 CURVE SMOOTH",
"298 698 OFFCURVE",
"150 855 OFFCURVE",
"150 1108 CURVE SMOOTH",
"150 1363 OFFCURVE",
"298 1520 OFFCURVE",
"537 1520 CURVE SMOOTH"
);
},
{
closed = 1;
nodes = (
"397 1442 OFFCURVE",
"306 1344 OFFCURVE",
"306 1191 CURVE SMOOTH",
"306 1040 OFFCURVE",
"398 943 OFFCURVE",
"537 943 CURVE SMOOTH",
"677 943 OFFCURVE",
"767 1040 OFFCURVE",
"767 1191 CURVE SMOOTH",
"767 1346 OFFCURVE",
"678 1442 OFFCURVE",
"537 1442 CURVE SMOOTH"
);
}
);
width = 1072;
}
);
unicode = 00BA;
},
{
glyphname = guillemotright;
lastChange = "2012-10-19 18:34:32 -0500";
layers = (
{
layerId = "6B6936E6-7670-4A82-900D-EAF583C971AF";
name = Regular;
paths = (
{
closed = 1;
nodes = (
"188 1083 LINE",
"635 641 LINE",
"668 517 LINE",
"178 124 LINE",
"150 357 LINE",
"465 609 LINE",
"178 892 LINE"
);
},
{
closed = 1;
nodes = (
"621 1060 LINE",
"1068 618 LINE",
"1101 494 LINE",
"611 101 LINE",
"583 334 LINE",
"898 586 LINE",
"611 869 LINE"
);
}
);
width = 1251;
}
);
unicode = 00BB;
},
{
glyphname = onequarter;
lastChange = "2012-10-19 18:34:38 -0500";
layers = (
{
layerId = "6B6936E6-7670-4A82-900D-EAF583C971AF";
name = Regular;
paths = (
{
closed = 1;
nodes = (
"169 778 LINE",
"373 778 LINE",
"373 1389 LINE",
"150 1348 LINE",
"150 1464 LINE",
"380 1503 LINE",
"517 1503 LINE",
"517 778 LINE",
"722 778 LINE",
"722 668 LINE",
"169 668 LINE"
);
},
{
closed = 1;
nodes = (
"1431 1520 LINE",
"1591 1520 LINE",
"659 -29 LINE",
"499 -29 LINE"
);
},
{
closed = 1;
nodes = (
"1543 716 LINE",
"1234 297 LINE",
"1543 297 LINE"
);
},
{
closed = 1;
nodes = (
"1521 837 LINE",
"1687 837 LINE",
"1687 297 LINE",
"1822 297 LINE",
"1822 188 LINE",
"1687 188 LINE",
"1687 2 LINE",
"1543 2 LINE",
"1543 188 LINE",
"1129 188 LINE",
"1129 309 LINE"
);
}
);
width = 1972;
}
);
unicode = 00BC;
},
{
glyphname = onehalf;
lastChange = "2012-10-19 18:34:47 -0500";
layers = (
{
layerId = "6B6936E6-7670-4A82-900D-EAF583C971AF";
name = Regular;
paths = (
{
closed = 1;
nodes = (
"169 778 LINE",
"373 778 LINE",
"373 1389 LINE",
"150 1348 LINE",
"150 1464 LINE",
"380 1503 LINE",
"517 1503 LINE",
"517 778 LINE",
"722 778 LINE",
"722 668 LINE",
"169 668 LINE"
);
},
{
closed = 1;
nodes = (
"1381 1520 LINE",
"1541 1520 LINE",
"609 -29 LINE",
"449 -29 LINE"
);
},
{
closed = 1;
nodes = (
"1831 116 LINE",
"1831 2 LINE",
"1233 2 LINE",
"1233 112 LINE",
"1256 133 OFFCURVE",
"1288 162 OFFCURVE",
"1330 199 CURVE SMOOTH",
"1559 402 OFFCURVE",
"1674 535 OFFCURVE",
"1674 598 CURVE SMOOTH",
"1674 686 OFFCURVE",
"1598 745 OFFCURVE",
"1485 745 CURVE SMOOTH",
"1416 745 OFFCURVE",
"1335 722 OFFCURVE",
"1239 675 CURVE",
"1239 798 LINE",
"1342 835 OFFCURVE",
"1430 854 OFFCURVE",
"1506 854 CURVE SMOOTH",
"1699 854 OFFCURVE",
"1825 758 OFFCURVE",
"1825 614 CURVE SMOOTH",
"1825 521 OFFCURVE",
"1715 380 OFFCURVE",
"1494 191 CURVE SMOOTH",
"1457 159 OFFCURVE",
"1428 134 OFFCURVE",
"1407 116 CURVE"
);
}
);
width = 1981;
}
);
unicode = 00BD;
},
{
glyphname = threequarters;
lastChange = "2012-10-19 18:34:53 -0500";
layers = (
{
layerId = "6B6936E6-7670-4A82-900D-EAF583C971AF";
name = Regular;
paths = (
{
closed = 1;
nodes = (
"699 1096 OFFCURVE",
"769 1020 OFFCURVE",
"769 911 CURVE SMOOTH",
"769 746 OFFCURVE",
"638 653 OFFCURVE",
"402 653 CURVE SMOOTH",
"326 653 OFFCURVE",
"243 667 OFFCURVE",
"150 694 CURVE",
"150 815 LINE",
"219 779 OFFCURVE",
"299 762 OFFCURVE",
"388 762 CURVE SMOOTH",
"533 762 OFFCURVE",
"617 818 OFFCURVE",
"617 911 CURVE SMOOTH",
"617 1010 OFFCURVE",
"542 1061 OFFCURVE",
"398 1061 CURVE SMOOTH",
"312 1061 LINE",
"312 1169 LINE",
"406 1169 LINE SMOOTH",
"531 1169 OFFCURVE",
"597 1212 OFFCURVE",
"597 1292 CURVE SMOOTH",
"597 1369 OFFCURVE",
"529 1411 OFFCURVE",
"402 1411 CURVE SMOOTH",
"349 1411 OFFCURVE",
"287 1401 OFFCURVE",
"179 1370 CURVE",
"179 1485 LINE",
"276 1508 OFFCURVE",
"362 1520 OFFCURVE",
"435 1520 CURVE SMOOTH",
"627 1520 OFFCURVE",
"748 1435 OFFCURVE",
"748 1303 CURVE SMOOTH",
"748 1211 OFFCURVE",
"685 1144 OFFCURVE",
"576 1120 CURVE"
);
},
{
closed = 1;
nodes = (
"1459 1520 LINE",
"1619 1520 LINE",
"687 -29 LINE",
"527 -29 LINE"
);
},
{
closed = 1;
nodes = (
"1531 716 LINE",
"1222 297 LINE",
"1531 297 LINE"
);
},
{
closed = 1;
nodes = (
"1509 837 LINE",
"1675 837 LINE",
"1675 297 LINE",
"1810 297 LINE",
"1810 188 LINE",
"1675 188 LINE",
"1675 2 LINE",
"1531 2 LINE",
"1531 188 LINE",
"1117 188 LINE",
"1117 309 LINE"
);
}
);
width = 1960;
}
);
unicode = 00BE;
},
{
glyphname = questiondown;
lastChange = "2012-10-19 18:34:58 -0500";
layers = (
{
layerId = "6B6936E6-7670-4A82-900D-EAF583C971AF";
name = Regular;
paths = (
{
closed = 1;
nodes = (
"507 1092 LINE",
"667 1092 LINE",
"667 936 LINE SMOOTH",
"667 801 OFFCURVE",
"645 781 OFFCURVE",
"552 678 CURVE",
"462 590 LINE SMOOTH",
"385 519 OFFCURVE",
"353 459 OFFCURVE",
"353 394 CURVE SMOOTH",
"353 275 OFFCURVE",
"448 195 OFFCURVE",
"593 195 CURVE SMOOTH",
"697 195 OFFCURVE",
"819 243 OFFCURVE",
"947 332 CURVE",
"947 84 LINE",
"822 8 OFFCURVE",
"695 -29 OFFCURVE",
"558 -29 CURVE SMOOTH",
"313 -29 OFFCURVE",
"150 112 OFFCURVE",
"150 324 CURVE SMOOTH",
"150 425 OFFCURVE",
"193 508 OFFCURVE",
"312 623 CURVE SMOOTH",
"400 709 LINE SMOOTH",
"464 772 OFFCURVE",
"483 801 OFFCURVE",
"494 834 CURVE SMOOTH",
"503 862 OFFCURVE",
"507 897 OFFCURVE",
"507 969 CURVE SMOOTH"
);
},
{
closed = 1;
nodes = (
"703 1239 LINE",
"501 1239 LINE",
"501 1493 LINE",
"703 1493 LINE"
);
}
);
width = 1097;
}
);
unicode = 00BF;
},
{
glyphname = AE;
lastChange = "2012-05-22 21:38:30 -0500";
layers = (
{
anchors = (
{
name = top;
position = "{1087, 1493}";
}
);
layerId = "6B6936E6-7670-4A82-900D-EAF583C971AF";
name = Regular;
paths = (
{
closed = 1;
nodes = (
"1940 1493 LINE",
"1940 1323 LINE",
"1199 1323 LINE",
"1199 711 LINE",
"1910 711 LINE",
"1910 541 LINE",
"1199 541 LINE",
"1199 260 LINE",
"1959 260 LINE",
"1959 0 LINE",
"996 0 LINE",
"996 263 LINE",
"468 263 LINE",
"478 0 LINE",
"103 0 LINE",
"728 1493 LINE"
);
},
{
closed = 1;
nodes = (
"867 1335 LINE",
"537 431 LINE",
"996 431 LINE",
"996 1335 LINE"
);
}
);
width = 2173;
}
);
unicode = 00C6;
},
{
glyphname = Eth;
lastChange = "2012-12-03 12:19:47 -0500";
layers = (
{
layerId = "6B6936E6-7670-4A82-900D-EAF583C971AF";
name = Regular;
paths = (
{
closed = 1;
nodes = (
"335 1493 LINE",
"751 1493 LINE SMOOTH",
"1328 1493 OFFCURVE",
"1590 1260 OFFCURVE",
"1590 748 CURVE SMOOTH",
"1590 233 OFFCURVE",
"1327 0 OFFCURVE",
"751 0 CURVE SMOOTH",
"335 0 LINE",
"335 700 LINE",
"134 700 LINE",
"134 844 LINE",
"335 844 LINE"
);
},
{
closed = 1;
nodes = (
"538 1327 LINE",
"538 844 LINE",
"874 844 LINE",
"874 700 LINE",
"538 700 LINE",
"538 306 LINE",
"781 306 LINE SMOOTH",
"1193 306 OFFCURVE",
"1377 345 OFFCURVE",
"1377 748 CURVE SMOOTH",
"1377 1148 OFFCURVE",
"1193 1327 OFFCURVE",
"781 1327 CURVE SMOOTH"
);
}
);
width = 1771;
}
);
unicode = 00D0;
},
{
glyphname = multiply;
lastChange = "2012-10-19 18:35:46 -0500";
layers = (
{
layerId = "6B6936E6-7670-4A82-900D-EAF583C971AF";
name = Regular;
paths = (
{
closed = 1;
nodes = (
"1255 1050 LINE",
"868 661 LINE",
"1245 284 LINE",
"1076 113 LINE",
"697 492 LINE",
"318 113 LINE",
"150 284 LINE",
"526 661 LINE",
"170 1020 LINE",
"338 1191 LINE",
"697 832 LINE",
"1086 1221 LINE"
);
}
);
width = 1405;
}
);
unicode = 00D7;
},
{
glyphname = Thorn;
lastChange = "2012-10-19 18:36:23 -0500";
layers = (
{
layerId = "6B6936E6-7670-4A82-900D-EAF583C971AF";
name = Regular;
paths = (
{
closed = 1;
nodes = (
"150 1493 LINE",
"352 1493 LINE",
"352 1229 LINE",
"606 1229 LINE SMOOTH",
"941 1229 OFFCURVE",
"1114 1077 OFFCURVE",
"1114 784 CURVE SMOOTH",
"1114 491 OFFCURVE",
"941 338 OFFCURVE",
"606 338 CURVE SMOOTH",
"352 338 LINE",
"352 0 LINE",
"150 0 LINE"
);
},
{
closed = 1;
nodes = (
"352 1063 LINE",
"352 504 LINE",
"606 504 LINE SMOOTH",
"794 504 OFFCURVE",
"901 605 OFFCURVE",
"901 784 CURVE SMOOTH",
"901 963 OFFCURVE",
"795 1063 OFFCURVE",
"606 1063 CURVE SMOOTH"
);
}
);
width = 1264;
}
);
unicode = 00DE;
},
{
glyphname = germandbls;
lastChange = "2012-05-22 21:38:30 -0500";
layers = (
{
layerId = "6B6936E6-7670-4A82-900D-EAF583C971AF";
name = Regular;
paths = (
{
closed = 1;
nodes = (
"273 1137 LINE",
"273 1404 OFFCURVE",
"439 1556 OFFCURVE",
"730 1556 CURVE SMOOTH",
"1007 1556 OFFCURVE",
"1156 1399 OFFCURVE",
"1160 1100 CURVE",
"959 1089 OFFCURVE",
"841 1009 OFFCURVE",
"841 881 CURVE SMOOTH",
"841 818 OFFCURVE",
"877 767 OFFCURVE",
"964 711 CURVE SMOOTH",
"1021 674 LINE SMOOTH",
"1242 533 OFFCURVE",
"1283 459 OFFCURVE",
"1283 326 CURVE SMOOTH",
"1283 97 OFFCURVE",
"1128 -29 OFFCURVE",
"847 -29 CURVE SMOOTH",
"762 -29 OFFCURVE",
"671 -12 OFFCURVE",
"574 20 CURVE",
"574 264 LINE",
"681 224 OFFCURVE",
"772 205 OFFCURVE",
"859 205 CURVE SMOOTH",
"1014 205 OFFCURVE",
"1095 250 OFFCURVE",
"1095 331 CURVE SMOOTH",
"1095 360 OFFCURVE",
"1085 388 OFFCURVE",
"1066 416 CURVE SMOOTH",
"1046 444 OFFCURVE",
"1002 479 OFFCURVE",
"935 520 CURVE",
"853 575 LINE",
"792 654 OFFCURVE",
"720 739 OFFCURVE",
"720 860 CURVE SMOOTH",
"720 1029 OFFCURVE",
"780 1149 OFFCURVE",
"1048 1188 CURVE",
"944 1432 OFFCURVE",
"877 1443 OFFCURVE",
"726 1443 CURVE SMOOTH",
"553 1443 OFFCURVE",
"467 1361 OFFCURVE",
"440 1133 CURVE",
"490 0 LINE",
"213 0 LINE"
);
}
);
width = 1422;
}
);
unicode = 00DF;
},
{
glyphname = ae;
lastChange = "2012-10-19 22:03:36 -0500";
layers = (
{
anchors = (
{
name = top;
position = "{1109, 1120}";
}
);
layerId = "6B6936E6-7670-4A82-900D-EAF583C971AF";
name = Regular;
paths = (
{
closed = 1;
nodes = (
"1819 720 LINE",
"1818 865 OFFCURVE",
"1699 1045 OFFCURVE",
"1516 1045 CURVE SMOOTH",
"1312 1045 OFFCURVE",
"1183 875 OFFCURVE",
"1164 719 CURVE"
);
},
{
closed = 1;
nodes = (
"1195 1083 OFFCURVE",
"1338 1147 OFFCURVE",
"1514 1147 CURVE SMOOTH",
"1815 1147 OFFCURVE",
"2004 919 OFFCURVE",
"2004 666 CURVE SMOOTH",
"2004 576 LINE",
"1158 576 LINE",
"1174 401 OFFCURVE",
"1313 245 OFFCURVE",
"1557 245 CURVE SMOOTH",
"1696 245 OFFCURVE",
"1828 280 OFFCURVE",
"1961 351 CURVE",
"1961 87 LINE",
"1828 31 OFFCURVE",
"1688 -29 OFFCURVE",
"1547 -29 CURVE SMOOTH",
"1324 -29 OFFCURVE",
"1158 52 OFFCURVE",
"1055 211 CURVE",
"958 51 OFFCURVE",
"814 -29 OFFCURVE",
"623 -29 CURVE SMOOTH",
"371 -29 OFFCURVE",
"224 102 OFFCURVE",
"224 326 CURVE SMOOTH",
"224 658 OFFCURVE",
"393 767 OFFCURVE",
"728 767 CURVE SMOOTH",
"986 767 LINE",
"986 785 LINE SMOOTH",
"986 874 OFFCURVE",
"869 1031 OFFCURVE",
"668 1031 CURVE SMOOTH",
"540 1031 OFFCURVE",
"418 1000 OFFCURVE",
"306 939 CURVE",
"306 1069 LINE",
"441 1121 OFFCURVE",
"567 1147 OFFCURVE",
"687 1147 CURVE SMOOTH",
"876 1147 OFFCURVE",
"1024 1080 OFFCURVE",
"1096 963 CURVE"
);
},
{
closed = 1;
nodes = (
"803 623 LINE SMOOTH",
"506 623 OFFCURVE",
"408 590 OFFCURVE",
"408 395 CURVE SMOOTH",
"408 291 OFFCURVE",
"500 225 OFFCURVE",
"648 225 CURVE SMOOTH",
"852 225 OFFCURVE",
"986 334 OFFCURVE",
"986 590 CURVE SMOOTH",
"986 623 LINE"
);
}
);
width = 2218;
}
);
unicode = 00E6;
},
{
glyphname = igrave;
lastChange = "2012-10-19 22:00:43 -0500";
layers = (
{
layerId = "6B6936E6-7670-4A82-900D-EAF583C971AF";
name = Regular;
paths = (
{
closed = 1;
nodes = (
"451 1120 LINE",
"635 1120 LINE",
"635 0 LINE",
"451 0 LINE"
);
},
{
closed = 1;
nodes = (
"347 1638 LINE",
"629 1264 LINE",
"356 1264 LINE",
"150 1638 LINE"
);
}
);
width = 785;
}
);
unicode = 00EC;
},
{
glyphname = iacute;
lastChange = "2012-10-19 22:00:26 -0500";
layers = (
{
layerId = "6B6936E6-7670-4A82-900D-EAF583C971AF";
name = Regular;
paths = (
{
closed = 1;
nodes = (
"259 1120 LINE",
"443 1120 LINE",
"443 0 LINE",
"259 0 LINE"
);
},
{
closed = 1;
nodes = (
"462 1638 LINE",
"683 1638 LINE",
"320 1220 LINE",
"150 1220 LINE"
);
}
);
width = 833;
}
);
unicode = 00ED;
},
{
glyphname = icircumflex;
lastChange = "2012-10-19 22:00:10 -0500";
layers = (
{
layerId = "6B6936E6-7670-4A82-900D-EAF583C971AF";
name = Regular;
paths = (
{
closed = 1;
nodes = (
"432 1120 LINE",
"616 1120 LINE",
"616 0 LINE",
"432 0 LINE"
);
},
{
closed = 1;
nodes = (
"395 1638 LINE",
"543 1638 LINE",
"788 1262 LINE",
"649 1262 LINE",
"469 1507 LINE",
"289 1262 LINE",
"150 1262 LINE"
);
}
);
width = 938;
}
);
unicode = 00EE;
},
{
glyphname = idieresis;
lastChange = "2012-10-19 21:59:07 -0500";
layers = (
{
layerId = "6B6936E6-7670-4A82-900D-EAF583C971AF";
name = Regular;
paths = (
{
closed = 1;
nodes = (
"375 1120 LINE",
"559 1120 LINE",
"559 0 LINE",
"375 0 LINE"
);
},
{
closed = 1;
nodes = (
"569 1567 LINE",
"787 1567 LINE",
"787 1350 LINE",
"569 1350 LINE"
);
},
{
closed = 1;
nodes = (
"150 1567 LINE",
"368 1567 LINE",
"368 1350 LINE",
"150 1350 LINE"
);
}
);
width = 937;
}
);
unicode = 00EF;
},
{
glyphname = eth;
lastChange = "2012-10-19 22:05:52 -0500";
layers = (
{
layerId = "6B6936E6-7670-4A82-900D-EAF583C971AF";
name = Regular;
paths = (
{
closed = 1;
nodes = (
"808 938 OFFCURVE",
"751 948 OFFCURVE",
"696 948 CURVE SMOOTH",
"473 948 OFFCURVE",
"344 797 OFFCURVE",
"344 537 CURVE SMOOTH",
"344 286 OFFCURVE",
"469 275 OFFCURVE",
"664 275 CURVE SMOOTH",
"857 275 OFFCURVE",
"983 286 OFFCURVE",
"983 537 CURVE SMOOTH",
"983 700 OFFCURVE",
"947 824 OFFCURVE",
"875 915 CURVE"
);
},
{
closed = 1;
nodes = (
"938 1141 LINE SMOOTH",
"1106 950 OFFCURVE",
"1178 768 OFFCURVE",
"1178 537 CURVE SMOOTH",
"1178 197 OFFCURVE",
"971 -29 OFFCURVE",
"664 -29 CURVE SMOOTH",
"356 -29 OFFCURVE",
"150 197 OFFCURVE",
"150 537 CURVE SMOOTH",
"150 870 OFFCURVE",
"352 1098 OFFCURVE",
"647 1098 CURVE SMOOTH",
"671 1098 OFFCURVE",
"703 1095 OFFCURVE",
"759 1088 CURVE",
"600 1268 LINE",
"281 1161 LINE",
"248 1260 LINE",
"529 1352 LINE",
"348 1556 LINE",
"576 1556 LINE",
"703 1411 LINE",
"1036 1522 LINE",
"1069 1425 LINE",
"774 1327 LINE"
);
}
);
width = 1328;
}
);
unicode = 00F0;
},
{
glyphname = divide;
lastChange = "2012-10-19 22:05:10 -0500";
layers = (
{
layerId = "6B6936E6-7670-4A82-900D-EAF583C971AF";
name = Regular;
paths = (
{
closed = 1;
nodes = (
"668 1185 LINE",
"964 1185 LINE",
"964 889 LINE",
"668 889 LINE"
);
},
{
closed = 1;
nodes = (
"668 345 LINE",
"964 345 LINE",
"964 50 LINE",
"668 50 LINE"
);
},
{
closed = 1;
nodes = (
"150 727 LINE",
"1482 727 LINE",
"1482 507 LINE",
"150 507 LINE"
);
}
);
width = 1632;
}
);
unicode = 00F7;
},
{
glyphname = oslash;
lastChange = "2012-05-22 21:38:30 -0500";
layers = (
{
anchors = (
{
name = top;
position = "{705, 1120}";
}
);
layerId = "6B6936E6-7670-4A82-900D-EAF583C971AF";
name = Regular;
paths = (
{
closed = 1;
nodes = (
"496 209 LINE",
"551 153 OFFCURVE",
"618 127 OFFCURVE",
"705 127 CURVE SMOOTH",
"901 127 OFFCURVE",
"1024 292 OFFCURVE",
"1024 559 CURVE SMOOTH",
"1024 664 OFFCURVE",
"1011 740 OFFCURVE",
"983 801 CURVE"
);
},
{
closed = 1;
nodes = (
"912 909 LINE",
"856 964 OFFCURVE",
"788 991 OFFCURVE",
"705 991 CURVE SMOOTH",
"504 991 OFFCURVE",
"385 826 OFFCURVE",
"385 545 CURVE SMOOTH",
"385 449 OFFCURVE",
"397 378 OFFCURVE",
"424 317 CURVE"
);
},
{
closed = 1;
nodes = (
"299 166 LINE",
"227 269 OFFCURVE",
"191 400 OFFCURVE",
"191 559 CURVE SMOOTH",
"191 927 OFFCURVE",
"384 1147 OFFCURVE",
"705 1147 CURVE SMOOTH",
"829 1147 OFFCURVE",
"935 1113 OFFCURVE",
"1024 1044 CURVE",
"1163 1212 LINE",
"1258 1133 LINE",
"1112 954 LINE",
"1183 851 OFFCURVE",
"1219 719 OFFCURVE",
"1219 559 CURVE SMOOTH",
"1219 192 OFFCURVE",
"1025 -29 OFFCURVE",
"705 -29 CURVE SMOOTH",
"577 -29 OFFCURVE",
"469 6 OFFCURVE",
"385 74 CURVE",
"246 -94 LINE",
"150 -16 LINE"
);
}
);
width = 1410;
}
);
unicode = 00F8;
},
{
glyphname = thorn;
lastChange = "2012-05-22 21:38:30 -0500";
layers = (
{
layerId = "6B6936E6-7670-4A82-900D-EAF583C971AF";
name = Regular;
paths = (
{
closed = 1;
nodes = (
"460 -426 LINE",
"275 -426 LINE",
"275 1556 LINE",
"460 1556 LINE",
"460 950 LINE",
"537 1083 OFFCURVE",
"654 1147 OFFCURVE",
"818 1147 CURVE SMOOTH",
"1090 1147 OFFCURVE",
"1277 911 OFFCURVE",
"1277 559 CURVE SMOOTH",
"1277 207 OFFCURVE",
"1090 -29 OFFCURVE",
"818 -29 CURVE SMOOTH",
"654 -29 OFFCURVE",
"537 35 OFFCURVE",
"460 168 CURVE"
);
},
{
closed = 1;
nodes = (
"1086 830 OFFCURVE",
"968 993 OFFCURVE",
"773 993 CURVE SMOOTH",
"578 993 OFFCURVE",
"460 830 OFFCURVE",
"460 559 CURVE SMOOTH",
"460 288 OFFCURVE",
"578 125 OFFCURVE",
"773 125 CURVE SMOOTH",
"968 125 OFFCURVE",
"1086 288 OFFCURVE",
"1086 559 CURVE SMOOTH"
);
}
);
width = 1278;
}
);
unicode = 00FE;
},
{
glyphname = dcroat;
lastChange = "2012-10-19 22:04:48 -0500";
layers = (
{
layerId = "6B6936E6-7670-4A82-900D-EAF583C971AF";
name = Regular;
paths = (
{
closed = 1;
nodes = (
"967 1284 LINE",
"641 1284 LINE",
"641 1409 LINE",
"967 1409 LINE",
"967 1556 LINE",
"1151 1556 LINE",
"1151 1409 LINE",
"1305 1409 LINE",
"1305 1284 LINE",
"1151 1284 LINE",
"1151 0 LINE",
"967 0 LINE",
"967 168 LINE",
"890 35 OFFCURVE",
"773 -29 OFFCURVE",
"608 -29 CURVE SMOOTH",
"337 -29 OFFCURVE",
"150 207 OFFCURVE",
"150 559 CURVE SMOOTH",
"150 911 OFFCURVE",
"337 1147 OFFCURVE",
"608 1147 CURVE SMOOTH",
"773 1147 OFFCURVE",
"890 1083 OFFCURVE",
"967 950 CURVE"
);
},
{
closed = 1;
nodes = (
"340 358 OFFCURVE",
"458 211 OFFCURVE",
"653 211 CURVE SMOOTH",
"848 211 OFFCURVE",
"967 358 OFFCURVE",
"967 602 CURVE SMOOTH",
"967 846 OFFCURVE",
"848 993 OFFCURVE",
"653 993 CURVE SMOOTH",
"458 993 OFFCURVE",
"340 846 OFFCURVE",
"340 602 CURVE SMOOTH"
);
}
);
width = 1455;
}
);
unicode = 0111;
},
{
glyphname = dotlessi;
lastChange = "2012-12-05 10:56:53 -0500";
layers = (
{
anchors = (
{
name = ogonek;
position = "{270, 31}";
},
{
name = top;
position = "{239, 1120}";
}
);
layerId = "6B6936E6-7670-4A82-900D-EAF583C971AF";
name = Regular;
paths = (
{
closed = 1;
nodes = (
"177 393 OFFCURVE",
"183 767 OFFCURVE",
"180 1120 CURVE",
"344 1120 LINE",
"332 785 OFFCURVE",
"342 408 OFFCURVE",
"384 0 CURVE",
"150 0 LINE"
);
}
);
width = 534;
}
);
unicode = 0131;
},
{
glyphname = Lslash;
lastChange = "2012-10-19 22:01:17 -0500";
layers = (
{
layerId = "6B6936E6-7670-4A82-900D-EAF583C971AF";
name = Regular;
paths = (
{
closed = 1;
nodes = (
"375 1493 LINE",
"578 1493 LINE",
"578 877 LINE",
"891 1096 LINE",
"971 985 LINE",
"578 711 LINE",
"578 170 LINE",
"1305 170 LINE",
"1305 0 LINE",
"375 0 LINE",
"375 571 LINE",
"227 465 LINE",
"150 575 LINE",
"375 733 LINE"
);
}
);
width = 1455;
}
);
unicode = 0141;
},
{
glyphname = lslash;
lastChange = "2012-12-03 12:20:45 -0500";
layers = (
{
layerId = "6B6936E6-7670-4A82-900D-EAF583C971AF";
name = Regular;
paths = (
{
closed = 1;
nodes = (
"217 1556 LINE",
"401 1556 LINE",
"401 954 LINE",
"526 1044 LINE",
"602 938 LINE",
"401 797 LINE",
"401 0 LINE",
"217 0 LINE",
"217 666 LINE",
"94 578 LINE",
"20 684 LINE",
"217 825 LINE"
);
}
);
width = 618;
}
);
unicode = 0142;
},
{
glyphname = OE;
lastChange = "2012-05-22 21:38:30 -0500";
layers = (
{
anchors = (
{
name = top;
position = "{1167, 1493}";
}
);
layerId = "6B6936E6-7670-4A82-900D-EAF583C971AF";
name = Regular;
paths = (
{
closed = 1;
nodes = (
"2121 1493 LINE",
"2121 1363 LINE",
"1379 1363 LINE",
"1379 951 LINE",
"2110 951 LINE",
"2110 781 LINE",
"1379 781 LINE",
"1379 280 LINE",
"2139 280 LINE",
"2139 0 LINE",
"1074 0 LINE SMOOTH",
"497 0 OFFCURVE",
"194 257 OFFCURVE",
"194 748 CURVE SMOOTH",
"194 1235 OFFCURVE",
"497 1493 OFFCURVE",
"1074 1493 CURVE SMOOTH"
);
},
{
closed = 1;
nodes = (
"1177 1363 LINE",
"1048 1363 LINE SMOOTH",
"620 1363 OFFCURVE",
"407 1185 OFFCURVE",
"407 748 CURVE SMOOTH",
"407 509 OFFCURVE",
"620 280 OFFCURVE",
"1048 280 CURVE SMOOTH",
"1177 280 LINE"
);
}
);
width = 2334;
}
);
unicode = 0152;
},
{
glyphname = oe;
lastChange = "2012-12-03 12:20:55 -0500";
layers = (
{
anchors = (
{
name = top;
position = "{1153, 1120}";
}
);
layerId = "6B6936E6-7670-4A82-900D-EAF583C971AF";
name = Regular;
paths = (
{
closed = 1;
nodes = (
"1909 800 LINE",
"1906 883 OFFCURVE",
"1789 1041 OFFCURVE",
"1606 1041 CURVE SMOOTH",
"1402 1041 OFFCURVE",
"1273 890 OFFCURVE",
"1254 799 CURVE"
);
},
{
closed = 1;
nodes = (
"2094 666 LINE",
"1248 666 LINE",
"1264 213 OFFCURVE",
"1403 187 OFFCURVE",
"1647 187 CURVE SMOOTH",
"1788 187 OFFCURVE",
"1920 222 OFFCURVE",
"2051 291 CURVE",
"2051 57 LINE",
"1918 1 OFFCURVE",
"1778 -29 OFFCURVE",
"1637 -29 CURVE SMOOTH",
"1424 -29 OFFCURVE",
"1262 45 OFFCURVE",
"1154 190 CURVE",
"1059 43 OFFCURVE",
"921 -29 OFFCURVE",
"734 -29 CURVE SMOOTH",
"413 -29 OFFCURVE",
"220 192 OFFCURVE",
"220 559 CURVE SMOOTH",
"220 927 OFFCURVE",
"413 1147 OFFCURVE",
"734 1147 CURVE SMOOTH",
"921 1147 OFFCURVE",
"1063 1072 OFFCURVE",
"1151 928 CURVE",
"1255 1071 OFFCURVE",
"1413 1147 OFFCURVE",
"1604 1147 CURVE SMOOTH",
"1905 1147 OFFCURVE",
"2094 889 OFFCURVE",
"2094 756 CURVE SMOOTH"
);
},
{
closed = 1;
nodes = (
"537 1021 OFFCURVE",
"414 870 OFFCURVE",
"414 623 CURVE SMOOTH",
"414 376 OFFCURVE",
"535 225 OFFCURVE",
"734 225 CURVE SMOOTH",
"930 225 OFFCURVE",
"1053 378 OFFCURVE",
"1053 623 CURVE SMOOTH",
"1053 867 OFFCURVE",
"930 1021 OFFCURVE",
"734 1021 CURVE SMOOTH"
);
}
);
width = 2306;
}
);
unicode = 0153;
},
{
glyphname = florin;
lastChange = "2012-10-19 18:36:34 -0500";
layers = (
{
layerId = "6B6936E6-7670-4A82-900D-EAF583C971AF";
name = Regular;
paths = (
{
closed = 1;
nodes = (
"1401 1376 LINE",
"1350 1415 OFFCURVE",
"1298 1433 OFFCURVE",
"1239 1433 CURVE SMOOTH",
"1111 1433 OFFCURVE",
"1037 1355 OFFCURVE",
"1004 1179 CURVE SMOOTH",
"944 848 LINE",
"1231 868 LINE",
"1231 725 LINE",
"914 705 LINE",
"847 220 LINE SMOOTH",
"759 -414 OFFCURVE",
"603 -426 OFFCURVE",
"355 -426 CURVE SMOOTH",
"278 -426 OFFCURVE",
"213 -412 OFFCURVE",
"150 -383 CURVE",
"210 -67 LINE",
"279 -111 OFFCURVE",
"343 -133 OFFCURVE",
"406 -133 CURVE SMOOTH",
"535 -133 OFFCURVE",
"601 -51 OFFCURVE",
"646 170 CURVE",
"723 705 LINE",
"475 685 LINE",
"475 828 LINE",
"754 848 LINE",
"817 1178 LINE SMOOTH",
"865 1422 OFFCURVE",
"1001 1556 OFFCURVE",
"1202 1556 CURVE SMOOTH",
"1273 1556 OFFCURVE",
"1340 1544 OFFCURVE",
"1401 1520 CURVE"
);
}
);
width = 1551;
}
);
unicode = 0192;
},
{
glyphname = circumflex;
lastChange = "2013-03-08 11:25:11 -0500";
layers = (
{
anchors = (
{
name = _top;
position = "{469, 1155}";
}
);
layerId = "6B6936E6-7670-4A82-900D-EAF583C971AF";
name = Regular;
paths = (
{
closed = 1;
nodes = (
"395 1638 LINE",
"543 1638 LINE",
"788 1262 LINE",
"649 1262 LINE",
"469 1507 LINE",
"289 1262 LINE",
"150 1262 LINE"
);
}
);
width = 938;
}
);
unicode = 02C6;
},
{
glyphname = caron;
lastChange = "2012-10-19 18:36:44 -0500";
layers = (
{
anchors = (
{
name = _top;
position = "{469, 1120}";
}
);
layerId = "6B6936E6-7670-4A82-900D-EAF583C971AF";
name = Regular;
paths = (
{
closed = 1;
nodes = (
"395 1262 LINE",
"150 1638 LINE",
"289 1638 LINE",
"469 1393 LINE",
"649 1638 LINE",
"788 1638 LINE",
"543 1262 LINE"
);
}
);
width = 938;
}
);
unicode = 02C7;
},
{
glyphname = breve;
lastChange = "2013-03-08 11:20:47 -0500";
layers = (
{
anchors = (
{
name = _top;
position = "{463, 1175}";
}
);
layerId = "6B6936E6-7670-4A82-900D-EAF583C971AF";
name = Regular;
paths = (
{
closed = 1;
nodes = (
"268 1608 LINE",
"283 1508 OFFCURVE",
"347 1458 OFFCURVE",
"463 1458 CURVE SMOOTH",
"578 1458 OFFCURVE",
"641 1507 OFFCURVE",
"658 1608 CURVE",
"776 1608 LINE",
"763 1417 OFFCURVE",
"656 1321 OFFCURVE",
"463 1321 CURVE SMOOTH",
"270 1321 OFFCURVE",
"163 1417 OFFCURVE",
"150 1608 CURVE"
);
}
);
width = 926;
}
);
unicode = 02D8;
},
{
glyphname = dotaccent;
lastChange = "2012-10-19 18:36:54 -0500";
layers = (
{
anchors = (
{
name = _top;
position = "{252, 1120}";
}
);
layerId = "6B6936E6-7670-4A82-900D-EAF583C971AF";
name = Regular;
paths = (
{
closed = 1;
nodes = (
"150 1552 LINE",
"354 1552 LINE",
"354 1348 LINE",
"150 1348 LINE"
);
}
);
width = 504;
}
);
unicode = 02D9;
},
{
glyphname = ring;
lastChange = "2012-10-19 18:36:59 -0500";
layers = (
{
anchors = (
{
name = _top;
position = "{424, 1120}";
}
);
layerId = "6B6936E6-7670-4A82-900D-EAF583C971AF";
name = Regular;
paths = (
{
closed = 1;
nodes = (
"576 1608 OFFCURVE",
"509 1675 OFFCURVE",
"424 1675 CURVE SMOOTH",
"337 1675 OFFCURVE",
"272 1609 OFFCURVE",
"272 1524 CURVE SMOOTH",
"272 1437 OFFCURVE",
"337 1372 OFFCURVE",
"424 1372 CURVE SMOOTH",
"509 1372 OFFCURVE",
"576 1439 OFFCURVE",
"576 1524 CURVE SMOOTH"
);
},
{
closed = 1;
nodes = (
"698 1371 OFFCURVE",
"577 1249 OFFCURVE",
"424 1249 CURVE SMOOTH",
"271 1249 OFFCURVE",
"150 1371 OFFCURVE",
"150 1524 CURVE SMOOTH",
"150 1677 OFFCURVE",
"271 1798 OFFCURVE",
"424 1798 CURVE SMOOTH",
"577 1798 OFFCURVE",
"698 1677 OFFCURVE",
"698 1524 CURVE SMOOTH"
);
}
);
width = 848;
}
);
unicode = 02DA;
},
{
glyphname = ogonek;
lastChange = "2012-12-05 10:43:57 -0500";
layers = (
{
anchors = (
{
name = _ogonek;
position = "{310, 0}";
}
);
layerId = "6B6936E6-7670-4A82-900D-EAF583C971AF";
name = Regular;
paths = (
{
closed = 1;
nodes = (
"377 0 LINE",
"317 -81 OFFCURVE",
"289 -139 OFFCURVE",
"289 -180 CURVE SMOOTH",
"289 -241 OFFCURVE",
"326 -272 OFFCURVE",
"398 -272 CURVE SMOOTH",
"441 -272 OFFCURVE",
"482 -262 OFFCURVE",
"523 -242 CURVE",
"523 -375 LINE",
"472 -388 OFFCURVE",
"427 -395 OFFCURVE",
"387 -395 CURVE SMOOTH",
"224 -395 OFFCURVE",
"150 -339 OFFCURVE",
"150 -215 CURVE SMOOTH",
"150 -151 OFFCURVE",
"185 -83 OFFCURVE",
"258 0 CURVE"
);
}
);
width = 673;
}
);
unicode = 02DB;
},
{
glyphname = tilde;
lastChange = "2013-03-08 11:22:08 -0500";
layers = (
{
anchors = (
{
name = _top;
position = "{480, 819}";
}
);
layerId = "6B6936E6-7670-4A82-900D-EAF583C971AF";
name = Regular;
paths = (
{
closed = 1;
nodes = (
"419 1425 LINE SMOOTH",
"390 1452 OFFCURVE",
"368 1464 OFFCURVE",
"351 1464 CURVE SMOOTH",
"326 1464 OFFCURVE",
"307 1452 OFFCURVE",
"295 1428 CURVE SMOOTH",
"283 1403 OFFCURVE",
"276 1364 OFFCURVE",
"275 1309 CURVE",
"150 1309 LINE",
"153 1489 OFFCURVE",
"224 1591 OFFCURVE",
"345 1591 CURVE SMOOTH",
"396 1591 OFFCURVE",
"435 1574 OFFCURVE",
"484 1530 CURVE",
"541 1475 LINE SMOOTH",
"570 1448 OFFCURVE",
"592 1436 OFFCURVE",
"609 1436 CURVE SMOOTH",
"634 1436 OFFCURVE",
"653 1448 OFFCURVE",
"665 1473 CURVE SMOOTH",
"677 1497 OFFCURVE",
"684 1536 OFFCURVE",
"685 1591 CURVE",
"810 1591 LINE",
"807 1411 OFFCURVE",
"736 1309 OFFCURVE",
"615 1309 CURVE SMOOTH",
"564 1309 OFFCURVE",
"525 1326 OFFCURVE",
"476 1370 CURVE"
);
}
);
width = 960;
}
);
unicode = 02DC;
},
{
glyphname = hungarumlaut;
lastChange = "2012-10-19 18:37:14 -0500";
layers = (
{
anchors = (
{
name = _top;
position = "{501, 1120}";
}
);
layerId = "6B6936E6-7670-4A82-900D-EAF583C971AF";
name = Regular;
paths = (
{
closed = 1;
nodes = (
"674 1638 LINE",
"852 1638 LINE",
"604 1262 LINE",
"469 1262 LINE"
);
},
{
closed = 1;
nodes = (
"340 1638 LINE",
"510 1638 LINE",
"287 1262 LINE",
"150 1262 LINE"
);
}
);
width = 1002;
}
);
unicode = 02DD;
},
{
glyphname = pi;
lastChange = "2012-12-03 12:21:06 -0500";
layers = (
{
layerId = "6B6936E6-7670-4A82-900D-EAF583C971AF";
name = Regular;
paths = (
{
closed = 1;
nodes = (
"1340 923 LINE",
"1158 923 LINE",
"1053 426 LINE SMOOTH",
"1043 377 OFFCURVE",
"1036 337 OFFCURVE",
"1031 306 CURVE SMOOTH",
"1026 275 OFFCURVE",
"1023 253 OFFCURVE",
"1023 238 CURVE SMOOTH",
"1023 161 OFFCURVE",
"1052 131 OFFCURVE",
"1125 131 CURVE SMOOTH",
"1148 131 OFFCURVE",
"1176 134 OFFCURVE",
"1225 141 CURVE",
"1195 -70 LINE",
"1155 -81 OFFCURVE",
"1119 -86 OFFCURVE",
"1084 -86 CURVE SMOOTH",
"927 -86 OFFCURVE",
"795 53 OFFCURVE",
"795 186 CURVE SMOOTH",
"795 217 OFFCURVE",
"799 256 OFFCURVE",
"806 304 CURVE SMOOTH",
"813 352 OFFCURVE",
"834 430 OFFCURVE",
"870 537 CURVE",
"980 923 LINE",
"654 923 LINE",
"490 0 LINE",
"199 0 LINE",
"474 923 LINE",
"433 923 LINE SMOOTH",
"361 923 OFFCURVE",
"322 885 OFFCURVE",
"310 780 CURVE",
"150 780 LINE",
"187 1001 OFFCURVE",
"266 1071 OFFCURVE",
"486 1071 CURVE SMOOTH",
"1375 1071 LINE"
);
}
);
width = 1525;
}
);
unicode = 03C0;
},
{
glyphname = endash;
lastChange = "2012-10-19 18:37:28 -0500";
layers = (
{
layerId = "6B6936E6-7670-4A82-900D-EAF583C971AF";
name = Regular;
paths = (
{
closed = 1;
nodes = (
"150 633 LINE",
"1174 633 LINE",
"1174 489 LINE",
"150 489 LINE"
);
}
);
width = 1324;
}
);
unicode = 2013;
},
{
glyphname = emdash;
lastChange = "2012-10-19 22:05:33 -0500";
layers = (
{
layerId = "6B6936E6-7670-4A82-900D-EAF583C971AF";
name = Regular;
paths = (
{
closed = 1;
nodes = (
"150 633 LINE",
"2198 633 LINE",
"2198 489 LINE",
"150 489 LINE"
);
}
);
width = 2348;
}
);
unicode = 2014;
},
{
glyphname = quoteleft;
lastChange = "2012-10-19 18:37:38 -0500";
layers = (
{
layerId = "6B6936E6-7670-4A82-900D-EAF583C971AF";
name = Regular;
paths = (
{
closed = 1;
nodes = (
"410 914 LINE",
"150 914 LINE",
"150 1126 LINE",
"351 1519 LINE",
"510 1519 LINE",
"410 1126 LINE"
);
}
);
width = 618;
}
);
unicode = 2018;
},
{
glyphname = quoteright;
lastChange = "2013-05-13 21:36:51 -0500";
layers = (
{
anchors = (
{
name = _caron;
position = "{245, 879}";
}
);
layerId = "6B6936E6-7670-4A82-900D-EAF583C971AF";
name = Regular;
paths = (
{
closed = 1;
nodes = (
"249 1510 LINE",
"505 1510 LINE",
"505 1325 LINE",
"306 939 LINE",
"150 939 LINE",
"249 1325 LINE"
);
}
);
width = 589;
}
);
unicode = 2019;
},
{
glyphname = quotesinglbase;
lastChange = "2012-10-19 22:09:22 -0500";
layers = (
{
layerId = "6B6936E6-7670-4A82-900D-EAF583C971AF";
name = Regular;
paths = (
{
closed = 1;
nodes = (
"232 254 LINE",
"443 254 LINE",
"443 82 LINE",
"279 -238 LINE",
"150 -238 LINE",
"232 82 LINE"
);
}
);
width = 593;
}
);
unicode = 201A;
},
{
glyphname = quotedblleft;
lastChange = "2012-10-19 18:37:55 -0500";
layers = (
{
layerId = "6B6936E6-7670-4A82-900D-EAF583C971AF";
name = Regular;
paths = (
{
closed = 1;
nodes = (
"412 881 LINE",
"150 881 LINE",
"150 1096 LINE",
"354 1493 LINE",
"514 1493 LINE",
"412 1096 LINE"
);
},
{
closed = 1;
nodes = (
"922 881 LINE",
"660 881 LINE",
"660 1096 LINE",
"864 1493 LINE",
"1024 1493 LINE",
"922 1096 LINE"
);
}
);
width = 1174;
}
);
unicode = 201C;
},
{
glyphname = quotedblright;
lastChange = "2012-10-19 22:09:29 -0500";
layers = (
{
layerId = "6B6936E6-7670-4A82-900D-EAF583C971AF";
name = Regular;
paths = (
{
closed = 1;
nodes = (
"245 1493 LINE",
"491 1493 LINE",
"491 1293 LINE",
"300 921 LINE",
"150 921 LINE",
"245 1293 LINE"
);
},
{
closed = 1;
nodes = (
"722 1493 LINE",
"967 1493 LINE",
"967 1293 LINE",
"776 921 LINE",
"626 921 LINE",
"722 1293 LINE"
);
}
);
width = 1117;
}
);
unicode = 201D;
},
{
glyphname = quotedblbase;
lastChange = "2012-10-19 22:09:41 -0500";
layers = (
{
layerId = "6B6936E6-7670-4A82-900D-EAF583C971AF";
name = Regular;
paths = (
{
closed = 1;
nodes = (
"768 380 LINE",
"1033 380 LINE",
"1033 164 LINE",
"827 -238 LINE",
"665 -238 LINE",
"768 164 LINE"
);
},
{
closed = 1;
nodes = (
"253 380 LINE",
"518 380 LINE",
"518 164 LINE",
"312 -238 LINE",
"150 -238 LINE",
"253 164 LINE"
);
}
);
width = 1183;
}
);
unicode = 201E;
},
{
glyphname = dagger;
lastChange = "2012-10-19 18:38:57 -0500";
layers = (
{
layerId = "6B6936E6-7670-4A82-900D-EAF583C971AF";
name = Regular;
paths = (
{
closed = 1;
nodes = (
"517 1493 LINE",
"693 1493 LINE",
"693 1073 LINE",
"1060 1073 LINE",
"1060 920 LINE",
"693 920 LINE",
"693 -197 LINE",
"517 -197 LINE",
"517 920 LINE",
"150 920 LINE",
"150 1073 LINE",
"517 1073 LINE"
);
}
);
width = 1210;
}
);
unicode = 2020;
},
{
glyphname = daggerdbl;
lastChange = "2012-10-19 18:39:01 -0500";
layers = (
{
layerId = "6B6936E6-7670-4A82-900D-EAF583C971AF";
name = Regular;
paths = (
{
closed = 1;
nodes = (
"1060 153 LINE",
"733 153 LINE",
"753 -197 LINE",
"457 -197 LINE",
"477 153 LINE",
"150 153 LINE",
"150 377 LINE",
"497 377 LINE",
"517 920 LINE",
"150 920 LINE",
"150 1073 LINE",
"517 1073 LINE",
"517 1493 LINE",
"693 1493 LINE",
"693 1073 LINE",
"1060 1073 LINE",
"1060 920 LINE",
"693 920 LINE",
"713 377 LINE",
"1060 377 LINE"
);
}
);
width = 1210;
}
);
unicode = 2021;
},
{
glyphname = bullet;
lastChange = "2012-10-19 18:39:05 -0500";
layers = (
{
layerId = "6B6936E6-7670-4A82-900D-EAF583C971AF";
name = Regular;
paths = (
{
closed = 1;
nodes = (
"150 927 OFFCURVE",
"281 1057 OFFCURVE",
"449 1057 CURVE SMOOTH",
"614 1057 OFFCURVE",
"744 927 OFFCURVE",
"744 762 CURVE SMOOTH",
"744 595 OFFCURVE",
"614 465 OFFCURVE",
"447 465 CURVE SMOOTH",
"280 465 OFFCURVE",
"150 595 OFFCURVE",
"150 762 CURVE SMOOTH"
);
}
);
width = 894;
}
);
unicode = 2022;
},
{
glyphname = ellipsis;
lastChange = "2012-10-19 18:39:09 -0500";
layers = (
{
layerId = "6B6936E6-7670-4A82-900D-EAF583C971AF";
name = Regular;
paths = (
{
closed = 1;
nodes = (
"832 364 LINE",
"1154 364 LINE",
"1154 0 LINE",
"832 0 LINE"
);
},
{
closed = 1;
nodes = (
"1513 364 LINE",
"1836 364 LINE",
"1836 0 LINE",
"1513 0 LINE"
);
},
{
closed = 1;
nodes = (
"150 364 LINE",
"473 364 LINE",
"473 0 LINE",
"150 0 LINE"
);
}
);
width = 1986;
}
);
unicode = 2026;
},
{
glyphname = perthousand;
lastChange = "2012-10-19 18:39:13 -0500";
layers = (
{
layerId = "6B6936E6-7670-4A82-900D-EAF583C971AF";
name = Regular;
paths = (
{
closed = 1;
nodes = (
"2213 657 OFFCURVE",
"2142 582 OFFCURVE",
"2142 457 CURVE SMOOTH",
"2142 333 OFFCURVE",
"2213 257 OFFCURVE",
"2329 257 CURVE SMOOTH",
"2442 257 OFFCURVE",
"2513 333 OFFCURVE",
"2513 457 CURVE SMOOTH",
"2513 581 OFFCURVE",
"2442 657 OFFCURVE",
"2329 657 CURVE SMOOTH"
);
},
{
closed = 1;
nodes = (
"2540 784 OFFCURVE",
"2673 626 OFFCURVE",
"2673 377 CURVE SMOOTH",
"2673 128 OFFCURVE",
"2538 -29 OFFCURVE",
"2329 -29 CURVE SMOOTH",
"2116 -29 OFFCURVE",
"1983 128 OFFCURVE",
"1983 377 CURVE SMOOTH",
"1983 628 OFFCURVE",
"2117 784 OFFCURVE",
"2329 784 CURVE SMOOTH"
);
},
{
closed = 1;
nodes = (
"705 1520 OFFCURVE",
"840 1363 OFFCURVE",
"840 1114 CURVE SMOOTH",
"840 862 OFFCURVE",
"706 707 OFFCURVE",
"494 707 CURVE SMOOTH",
"282 707 OFFCURVE",
"150 863 OFFCURVE",
"150 1114 CURVE SMOOTH",
"150 1362 OFFCURVE",
"283 1520 OFFCURVE",
"494 1520 CURVE SMOOTH"
);
},
{
closed = 1;
nodes = (
"1397 1520 LINE",
"1557 1520 LINE",
"623 -29 LINE",
"393 -29 LINE"
);
},
{
closed = 1;
nodes = (
"379 1393 OFFCURVE",
"309 1311 OFFCURVE",
"309 1175 CURVE SMOOTH",
"309 1038 OFFCURVE",
"378 957 OFFCURVE",
"494 957 CURVE SMOOTH",
"610 957 OFFCURVE",
"680 1038 OFFCURVE",
"680 1175 CURVE SMOOTH",
"680 1310 OFFCURVE",
"609 1393 OFFCURVE",
"494 1393 CURVE SMOOTH"
);
},
{
closed = 1;
nodes = (
"1737 784 OFFCURVE",
"1870 626 OFFCURVE",
"1870 377 CURVE SMOOTH",
"1870 128 OFFCURVE",
"1735 -29 OFFCURVE",
"1526 -29 CURVE SMOOTH",
"1313 -29 OFFCURVE",
"1180 128 OFFCURVE",
"1180 377 CURVE SMOOTH",
"1180 628 OFFCURVE",
"1314 784 OFFCURVE",
"1526 784 CURVE SMOOTH"
);
},
{
closed = 1;
nodes = (
"1410 657 OFFCURVE",
"1340 582 OFFCURVE",
"1340 457 CURVE SMOOTH",
"1340 333 OFFCURVE",
"1410 257 OFFCURVE",
"1526 257 CURVE SMOOTH",
"1639 257 OFFCURVE",
"1710 333 OFFCURVE",
"1710 457 CURVE SMOOTH",
"1710 581 OFFCURVE",
"1639 657 OFFCURVE",
"1526 657 CURVE SMOOTH"
);
}
);
width = 2823;
}
);
unicode = 2030;
},
{
glyphname = guilsinglleft;
lastChange = "2012-10-19 18:39:22 -0500";
layers = (
{
layerId = "6B6936E6-7670-4A82-900D-EAF583C971AF";
name = Regular;
paths = (
{
closed = 1;
nodes = (
"619 1059 LINE",
"619 868 LINE",
"318 600 LINE",
"619 332 LINE",
"619 141 LINE",
"150 559 LINE",
"150 641 LINE"
);
}
);
width = 769;
}
);
unicode = 2039;
},
{
glyphname = guilsinglright;
lastChange = "2012-10-19 18:39:18 -0500";
layers = (
{
layerId = "6B6936E6-7670-4A82-900D-EAF583C971AF";
name = Regular;
paths = (
{
closed = 1;
nodes = (
"150 1059 LINE",
"619 641 LINE",
"619 559 LINE",
"150 141 LINE",
"150 332 LINE",
"451 600 LINE",
"150 868 LINE"
);
}
);
width = 769;
}
);
unicode = 203A;
},
{
glyphname = fraction;
lastChange = "2012-10-19 22:10:35 -0500";
layers = (
{
layerId = "6B6936E6-7670-4A82-900D-EAF583C971AF";
name = Regular;
paths = (
{
closed = 1;
nodes = (
"1082 1520 LINE",
"1242 1520 LINE",
"310 -29 LINE",
"150 -29 LINE"
);
}
);
width = 1392;
}
);
unicode = 2044;
},
{
glyphname = trademark;
lastChange = "2012-10-19 18:39:35 -0500";
layers = (
{
layerId = "6B6936E6-7670-4A82-900D-EAF583C971AF";
name = Regular;
paths = (
{
closed = 1;
nodes = (
"963 1493 LINE",
"1127 1167 LINE",
"1301 1493 LINE",
"1471 1493 LINE",
"1491 915 LINE",
"1318 915 LINE",
"1348 1399 LINE",
"1173 966 LINE",
"1078 966 LINE",
"895 1399 LINE",
"925 915 LINE",
"751 915 LINE",
"791 1493 LINE"
);
},
{
closed = 1;
nodes = (
"668 1493 LINE",
"668 1399 LINE",
"465 1399 LINE",
"495 915 LINE",
"321 915 LINE",
"351 1399 LINE",
"150 1399 LINE",
"150 1493 LINE"
);
}
);
width = 1641;
}
);
unicode = 2122;
},
{
glyphname = Omega;
lastChange = "2012-11-02 20:27:00 -0500";
layers = (
{
anchors = (
{
name = topleft;
position = "{-32, 1493}";
}
);
layerId = "6B6936E6-7670-4A82-900D-EAF583C971AF";
name = Regular;
paths = (
{
closed = 1;
nodes = (
"1559 238 LINE",
"1559 0 LINE",
"959 0 LINE",
"959 238 LINE",
"1195 314 OFFCURVE",
"1334 540 OFFCURVE",
"1334 809 CURVE SMOOTH",
"1334 1196 OFFCURVE",
"1142 1389 OFFCURVE",
"854 1389 CURVE SMOOTH",
"566 1389 OFFCURVE",
"373 1194 OFFCURVE",
"373 809 CURVE SMOOTH",
"373 540 OFFCURVE",
"513 314 OFFCURVE",
"750 238 CURVE",
"750 0 LINE",
"150 0 LINE",
"150 238 LINE",
"469 238 LINE",
"258 423 OFFCURVE",
"166 554 OFFCURVE",
"166 799 CURVE SMOOTH",
"166 1223 OFFCURVE",
"447 1511 OFFCURVE",
"854 1511 CURVE SMOOTH",
"1258 1511 OFFCURVE",
"1542 1221 OFFCURVE",
"1542 809 CURVE SMOOTH",
"1542 550 OFFCURVE",
"1454 426 OFFCURVE",
"1239 238 CURVE"
);
}
);
width = 1709;
}
);
unicode = 2126;
},
{
glyphname = partialdiff;
lastChange = "2012-10-19 18:39:42 -0500";
layers = (
{
layerId = "6B6936E6-7670-4A82-900D-EAF583C971AF";
name = Regular;
paths = (
{
closed = 1;
nodes = (
"822 737 OFFCURVE",
"832 846 OFFCURVE",
"832 946 CURVE SMOOTH",
"832 1118 OFFCURVE",
"783 1206 OFFCURVE",
"687 1206 CURVE",
"564 1199 OFFCURVE",
"496 1183 OFFCURVE",
"485 1158 CURVE SMOOTH",
"474 1133 OFFCURVE",
"456 1120 OFFCURVE",
"432 1120 CURVE SMOOTH",
"384 1120 OFFCURVE",
"368 1124 OFFCURVE",
"368 1165 CURVE SMOOTH",
"368 1248 OFFCURVE",
"478 1325 OFFCURVE",
"613 1325 CURVE SMOOTH",
"853 1325 OFFCURVE",
"1007 1103 OFFCURVE",
"1007 752 CURVE SMOOTH",
"1007 305 OFFCURVE",
"789 -25 OFFCURVE",
"505 -25 CURVE SMOOTH",
"302 -25 OFFCURVE",
"150 137 OFFCURVE",
"150 354 CURVE SMOOTH",
"150 618 OFFCURVE",
"317 809 OFFCURVE",
"533 809 CURVE SMOOTH",
"668 809 OFFCURVE",
"751 750 OFFCURVE",
"802 621 CURVE"
);
},
{
closed = 1;
nodes = (
"714 670 OFFCURVE",
"647 744 OFFCURVE",
"530 744 CURVE SMOOTH",
"370 744 OFFCURVE",
"254 582 OFFCURVE",
"254 346 CURVE SMOOTH",
"254 213 OFFCURVE",
"319 141 OFFCURVE",
"438 141 CURVE SMOOTH",
"598 141 OFFCURVE",
"714 306 OFFCURVE",
"714 538 CURVE SMOOTH"
);
}
);
width = 1157;
}
);
unicode = 2202;
},
{
glyphname = Delta;
lastChange = "2012-11-02 20:29:22 -0500";
layers = (
{
layerId = "6B6936E6-7670-4A82-900D-EAF583C971AF";
name = Regular;
paths = (
{
closed = 1;
nodes = (
"840 1382 LINE",
"422 298 LINE",
"1258 298 LINE"
);
},
{
closed = 1;
nodes = (
"729 1473 LINE",
"953 1473 LINE",
"1532 0 LINE",
"150 0 LINE"
);
}
);
width = 1682;
}
);
unicode = 2206;
},
{
glyphname = product;
lastChange = "2012-10-19 21:40:13 -0500";
layers = (
{
layerId = "6B6936E6-7670-4A82-900D-EAF583C971AF";
name = Regular;
paths = (
{
closed = 1;
nodes = (
"130 1473 LINE",
"1367 1473 LINE",
"1457 -393 LINE",
"1147 -393 LINE",
"1127 1268 LINE",
"369 1268 LINE",
"459 -393 LINE",
"150 -393 LINE"
);
}
);
width = 1537;
}
);
unicode = 220F;
},
{
glyphname = summation;
lastChange = "2012-10-19 22:09:15 -0500";
layers = (
{
layerId = "6B6936E6-7670-4A82-900D-EAF583C971AF";
name = Regular;
paths = (
{
closed = 1;
nodes = (
"180 1473 LINE",
"1438 1473 LINE",
"1438 1320 LINE",
"479 1320 LINE",
"1351 563 LINE",
"457 -121 LINE",
"1464 -121 LINE",
"1464 -393 LINE",
"150 -393 LINE",
"150 -164 LINE",
"1075 557 LINE",
"180 1336 LINE"
);
}
);
width = 1614;
}
);
unicode = 2211;
},
{
glyphname = minus;
lastChange = "2012-10-19 18:40:05 -0500";
layers = (
{
layerId = "6B6936E6-7670-4A82-900D-EAF583C971AF";
name = Regular;
paths = (
{
closed = 1;
nodes = (
"150 727 LINE",
"1432 727 LINE",
"1432 557 LINE",
"150 557 LINE"
);
}
);
width = 1582;
}
);
unicode = 2212;
},
{
glyphname = middot.001;
lastChange = "2012-10-19 18:40:12 -0500";
layers = (
{
layerId = "6B6936E6-7670-4A82-900D-EAF583C971AF";
name = Regular;
paths = (
{
closed = 1;
nodes = (
"150 911 LINE",
"422 911 LINE",
"422 584 LINE",
"150 584 LINE"
);
}
);
width = 572;
}
);
unicode = 2219;
},
{
glyphname = radical;
lastChange = "2012-10-19 18:40:16 -0500";
layers = (
{
layerId = "6B6936E6-7670-4A82-900D-EAF583C971AF";
name = Regular;
paths = (
{
closed = 1;
nodes = (
"1205 1661 LINE",
"1394 1661 LINE",
"1394 1565 LINE",
"1279 1565 LINE",
"685 -41 LINE",
"619 -41 LINE",
"300 842 LINE",
"175 797 LINE",
"150 877 LINE",
"433 975 LINE",
"689 266 LINE"
);
}
);
width = 1544;
}
);
unicode = 221A;
},
{
glyphname = infinity;
lastChange = "2012-10-19 18:40:20 -0500";
layers = (
{
layerId = "6B6936E6-7670-4A82-900D-EAF583C971AF";
name = Regular;
paths = (
{
closed = 1;
nodes = (
"909 532 OFFCURVE",
"999 471 OFFCURVE",
"1111 471 CURVE SMOOTH",
"1246 471 OFFCURVE",
"1340 571 OFFCURVE",
"1340 711 CURVE SMOOTH",
"1340 846 OFFCURVE",
"1252 946 OFFCURVE",
"1133 946 CURVE SMOOTH",
"1024 946 OFFCURVE",
"943 865 OFFCURVE",
"844 649 CURVE"
);
},
{
closed = 1;
nodes = (
"657 763 OFFCURVE",
"568 912 OFFCURVE",
"455 912 CURVE SMOOTH",
"319 912 OFFCURVE",
"226 815 OFFCURVE",
"226 674 CURVE SMOOTH",
"226 539 OFFCURVE",
"314 439 OFFCURVE",
"433 439 CURVE SMOOTH",
"542 439 OFFCURVE",
"625 431 OFFCURVE",
"722 646 CURVE"
);
},
{
closed = 1;
nodes = (
"700 303 OFFCURVE",
"597 221 OFFCURVE",
"472 221 CURVE SMOOTH",
"291 221 OFFCURVE",
"150 389 OFFCURVE",
"150 610 CURVE SMOOTH",
"150 843 OFFCURVE",
"272 1001 OFFCURVE",
"451 1001 CURVE SMOOTH",
"578 1001 OFFCURVE",
"675 921 OFFCURVE",
"771 737 CURVE",
"862 921 OFFCURVE",
"965 1006 OFFCURVE",
"1094 1006 CURVE SMOOTH",
"1273 1006 OFFCURVE",
"1416 837 OFFCURVE",
"1416 614 CURVE SMOOTH",
"1416 381 OFFCURVE",
"1294 225 OFFCURVE",
"1115 225 CURVE SMOOTH",
"990 225 OFFCURVE",
"898 298 OFFCURVE",
"793 483 CURVE"
);
}
);
width = 1566;
}
);
unicode = 221E;
},
{
glyphname = integral;
lastChange = "2012-10-19 22:10:17 -0500";
layers = (
{
layerId = "6B6936E6-7670-4A82-900D-EAF583C971AF";
name = Regular;
paths = (
{
closed = 1;
nodes = (
"485 -262 OFFCURVE",
"525 -33 OFFCURVE",
"534 426 CURVE SMOOTH",
"535 498 OFFCURVE",
"536 553 OFFCURVE",
"537 591 CURVE SMOOTH",
"545 934 OFFCURVE",
"581 1180 OFFCURVE",
"644 1328 CURVE SMOOTH",
"707 1476 OFFCURVE",
"806 1550 OFFCURVE",
"941 1550 CURVE SMOOTH",
"1048 1550 OFFCURVE",
"1121 1488 OFFCURVE",
"1121 1401 CURVE SMOOTH",
"1121 1329 OFFCURVE",
"1075 1284 OFFCURVE",
"1002 1284 CURVE SMOOTH",
"946 1284 OFFCURVE",
"908 1310 OFFCURVE",
"892 1357 CURVE",
"888 1367 OFFCURVE",
"885 1384 OFFCURVE",
"882 1408 CURVE SMOOTH",
"879 1432 OFFCURVE",
"872 1444 OFFCURVE",
"861 1444 CURVE SMOOTH",
"790 1444 OFFCURVE",
"749 1238 OFFCURVE",
"740 825 CURVE SMOOTH",
"737 696 OFFCURVE",
"735 595 OFFCURVE",
"732 522 CURVE SMOOTH",
"721 203 OFFCURVE",
"684 -26 OFFCURVE",
"621 -164 CURVE SMOOTH",
"558 -302 OFFCURVE",
"461 -371 OFFCURVE",
"330 -371 CURVE SMOOTH",
"225 -371 OFFCURVE",
"150 -310 OFFCURVE",
"150 -223 CURVE SMOOTH",
"150 -148 OFFCURVE",
"198 -104 OFFCURVE",
"279 -104 CURVE SMOOTH",
"323 -104 OFFCURVE",
"355 -124 OFFCURVE",
"375 -161 CURVE SMOOTH",
"382 -173 OFFCURVE",
"387 -193 OFFCURVE",
"390 -220 CURVE SMOOTH",
"393 -248 OFFCURVE",
"401 -262 OFFCURVE",
"414 -262 CURVE SMOOTH"
);
}
);
width = 1271;
}
);
unicode = 222B;
},
{
glyphname = approxequal;
lastChange = "2012-10-19 18:40:32 -0500";
layers = (
{
layerId = "6B6936E6-7670-4A82-900D-EAF583C971AF";
name = Regular;
paths = (
{
closed = 1;
nodes = (
"1432 444 LINE",
"1292 340 OFFCURVE",
"1180 297 OFFCURVE",
"1051 297 CURVE SMOOTH",
"978 297 OFFCURVE",
"892 317 OFFCURVE",
"795 356 CURVE SMOOTH",
"788 359 OFFCURVE",
"783 361 OFFCURVE",
"778 363 CURVE",
"774 364 OFFCURVE",
"767 367 OFFCURVE",
"757 371 CURVE",
"654 418 OFFCURVE",
"571 442 OFFCURVE",
"508 442 CURVE SMOOTH",
"391 442 OFFCURVE",
"281 394 OFFCURVE",
"150 282 CURVE",
"150 461 LINE",
"290 565 OFFCURVE",
"402 608 OFFCURVE",
"531 608 CURVE",
"604 601 OFFCURVE",
"690 578 OFFCURVE",
"788 539 CURVE SMOOTH",
"795 536 OFFCURVE",
"801 533 OFFCURVE",
"804 532 CURVE",
"808 531 OFFCURVE",
"815 528 OFFCURVE",
"825 524 CURVE SMOOTH",
"928 483 OFFCURVE",
"1011 463 OFFCURVE",
"1074 463 CURVE SMOOTH",
"1189 463 OFFCURVE",
"1295 510 OFFCURVE",
"1432 623 CURVE"
);
},
{
closed = 1;
nodes = (
"1432 834 LINE",
"1292 729 OFFCURVE",
"1180 686 OFFCURVE",
"1051 686 CURVE SMOOTH",
"978 686 OFFCURVE",
"892 706 OFFCURVE",
"795 745 CURVE SMOOTH",
"788 748 OFFCURVE",
"783 750 OFFCURVE",
"778 752 CURVE",
"774 753 OFFCURVE",
"767 756 OFFCURVE",
"757 760 CURVE",
"654 807 OFFCURVE",
"571 831 OFFCURVE",
"508 831 CURVE SMOOTH",
"391 831 OFFCURVE",
"281 783 OFFCURVE",
"150 672 CURVE",
"150 850 LINE",
"290 954 OFFCURVE",
"402 997 OFFCURVE",
"531 997 CURVE",
"604 990 OFFCURVE",
"690 967 OFFCURVE",
"788 928 CURVE SMOOTH",
"795 925 OFFCURVE",
"800 923 OFFCURVE",
"803 922 CURVE",
"808 920 OFFCURVE",
"815 917 OFFCURVE",
"825 913 CURVE SMOOTH",
"928 872 OFFCURVE",
"1011 852 OFFCURVE",
"1074 852 CURVE SMOOTH",
"1189 852 OFFCURVE",
"1295 899 OFFCURVE",
"1432 1012 CURVE"
);
}
);
width = 1582;
}
);
unicode = 2248;
},
{
glyphname = notequal;
lastChange = "2012-10-19 18:40:35 -0500";
layers = (
{
layerId = "6B6936E6-7670-4A82-900D-EAF583C971AF";
name = Regular;
paths = (
{
closed = 1;
nodes = (
"150 930 LINE",
"922 930 LINE",
"1178 1245 LINE",
"1303 1143 LINE",
"1129 930 LINE",
"1432 930 LINE",
"1432 762 LINE",
"992 762 LINE",
"797 522 LINE",
"1432 522 LINE",
"1432 352 LINE",
"658 352 LINE",
"400 39 LINE",
"275 141 LINE",
"449 352 LINE",
"150 352 LINE",
"150 522 LINE",
"588 522 LINE",
"783 762 LINE",
"150 762 LINE"
);
}
);
width = 1582;
}
);
unicode = 2260;
},
{
glyphname = lessequal;
lastChange = "2012-10-19 18:40:45 -0500";
layers = (
{
layerId = "6B6936E6-7670-4A82-900D-EAF583C971AF";
name = Regular;
paths = (
{
closed = 1;
nodes = (
"1432 1016 LINE",
"472 739 LINE",
"1432 465 LINE",
"1432 287 LINE",
"150 655 LINE",
"150 825 LINE",
"1432 1192 LINE"
);
},
{
closed = 1;
nodes = (
"150 170 LINE",
"1432 170 LINE",
"1432 0 LINE",
"150 0 LINE"
);
}
);
width = 1582;
}
);
unicode = 2264;
},
{
glyphname = greaterequal;
lastChange = "2012-10-19 18:40:50 -0500";
layers = (
{
layerId = "6B6936E6-7670-4A82-900D-EAF583C971AF";
name = Regular;
paths = (
{
closed = 1;
nodes = (
"150 1016 LINE",
"150 1192 LINE",
"1432 825 LINE",
"1432 655 LINE",
"150 287 LINE",
"150 465 LINE",
"1111 739 LINE"
);
},
{
closed = 1;
nodes = (
"1432 170 LINE",
"1432 0 LINE",
"150 0 LINE",
"150 170 LINE"
);
}
);
width = 1582;
}
);
unicode = 2265;
},
{
glyphname = lozenge;
lastChange = "2012-10-19 22:10:02 -0500";
layers = (
{
layerId = "6B6936E6-7670-4A82-900D-EAF583C971AF";
name = Regular;
paths = (
{
closed = 1;
nodes = (
"650 1409 LINE",
"265 592 LINE",
"650 27 LINE",
"1035 592 LINE"
);
},
{
closed = 1;
nodes = (
"650 1653 LINE",
"1150 592 LINE",
"650 -477 LINE",
"150 592 LINE"
);
}
);
width = 1300;
}
);
unicode = 25CA;
},
{
glyphname = fi;
lastChange = "2012-10-19 18:40:57 -0500";
layers = (
{
layerId = "6B6936E6-7670-4A82-900D-EAF583C971AF";
name = Regular;
paths = (
{
closed = 1;
nodes = (
"1211 1120 LINE",
"1241 0 LINE",
"1006 0 LINE",
"1026 987 LINE",
"521 987 LINE",
"551 0 LINE",
"306 0 LINE",
"326 987 LINE",
"150 987 LINE",
"150 1120 LINE",
"326 1120 LINE",
"326 1198 LINE SMOOTH",
"326 1442 OFFCURVE",
"449 1546 OFFCURVE",
"688 1586 CURVE",
"873 1606 LINE",
"873 1453 LINE",
"697 1413 LINE",
"565 1413 OFFCURVE",
"521 1331 OFFCURVE",
"521 1219 CURVE SMOOTH",
"521 1120 LINE"
);
},
{
closed = 1;
nodes = (
"1026 1554 LINE",
"1211 1554 LINE",
"1211 1321 LINE",
"1026 1321 LINE"
);
}
);
width = 1391;
}
);
unicode = FB01;
},
{
glyphname = fl;
lastChange = "2012-10-19 22:06:04 -0500";
layers = (
{
layerId = "6B6936E6-7670-4A82-900D-EAF583C971AF";
name = Regular;
paths = (
{
closed = 1;
nodes = (
"1201 1556 LINE",
"1201 208 LINE",
"1311 210 LINE",
"1312 0 LINE",
"1016 0 LINE",
"1016 1423 LINE",
"687 1423 LINE SMOOTH",
"555 1423 OFFCURVE",
"511 1378 OFFCURVE",
"511 1239 CURVE",
"521 1120 LINE",
"814 1120 LINE",
"814 977 LINE",
"521 977 LINE",
"581 0 LINE",
"286 0 LINE",
"316 977 LINE",
"150 977 LINE",
"150 1120 LINE",
"316 1120 LINE",
"326 1198 LINE",
"326 1447 OFFCURVE",
"437 1556 OFFCURVE",
"689 1556 CURVE SMOOTH"
);
}
);
width = 1462;
}
);
unicode = FB02;
},
{
glyphname = c6459;
lastChange = "2012-10-19 18:41:07 -0500";
layers = (
{
layerId = "6B6936E6-7670-4A82-900D-EAF583C971AF";
name = Regular;
paths = (
{
closed = 1;
nodes = (
"541 1497 LINE",
"744 1497 LINE",
"744 1294 LINE",
"541 1294 LINE"
);
},
{
closed = 1;
nodes = (
"150 1497 LINE",
"353 1497 LINE",
"353 1294 LINE",
"150 1294 LINE"
);
}
);
width = 894;
}
);
},
{
glyphname = c6460;
lastChange = "2012-10-19 18:41:11 -0500";
layers = (
{
layerId = "6B6936E6-7670-4A82-900D-EAF583C971AF";
name = Regular;
paths = (
{
closed = 1;
nodes = (
"346 1526 LINE",
"531 1526 LINE",
"303 1262 LINE",
"150 1262 LINE"
);
}
);
width = 681;
}
);
},
{
glyphname = c6461;
lastChange = "2012-10-19 18:41:14 -0500";
layers = (
{
layerId = "6B6936E6-7670-4A82-900D-EAF583C971AF";
name = Regular;
paths = (
{
closed = 1;
nodes = (
"419 1370 LINE SMOOTH",
"386 1389 OFFCURVE",
"367 1395 OFFCURVE",
"351 1395 CURVE SMOOTH",
"303 1395 OFFCURVE",
"275 1360 OFFCURVE",
"275 1300 CURVE SMOOTH",
"275 1294 LINE",
"150 1294 LINE",
"150 1429 OFFCURVE",
"224 1513 OFFCURVE",
"339 1513 CURVE SMOOTH",
"387 1513 OFFCURVE",
"420 1506 OFFCURVE",
"484 1470 CURVE SMOOTH",
"541 1440 LINE SMOOTH",
"572 1423 OFFCURVE",
"593 1415 OFFCURVE",
"613 1415 CURVE SMOOTH",
"656 1415 OFFCURVE",
"685 1452 OFFCURVE",
"685 1507 CURVE SMOOTH",
"685 1513 LINE",
"810 1513 LINE",
"807 1380 OFFCURVE",
"733 1294 OFFCURVE",
"621 1294 CURVE SMOOTH",
"576 1294 OFFCURVE",
"545 1301 OFFCURVE",
"476 1337 CURVE"
);
}
);
width = 960;
}
);
},
{
glyphname = c6462;
lastChange = "2012-10-19 18:41:23 -0500";
layers = (
{
layerId = "6B6936E6-7670-4A82-900D-EAF583C971AF";
name = Regular;
paths = (
{
closed = 1;
nodes = (
"337 1526 LINE",
"533 1262 LINE",
"380 1262 LINE",
"150 1526 LINE"
);
}
);
width = 683;
}
);
},
{
glyphname = c6463;
lastChange = "2012-10-19 18:41:20 -0500";
layers = (
{
layerId = "6B6936E6-7670-4A82-900D-EAF583C971AF";
name = Regular;
paths = (
{
closed = 1;
nodes = (
"361 1528 LINE",
"549 1528 LINE",
"760 1262 LINE",
"621 1262 LINE",
"455 1440 LINE",
"289 1262 LINE",
"150 1262 LINE"
);
}
);
width = 910;
}
);
},
{
glyphname = c6466;
lastChange = "2012-10-19 18:41:31 -0500";
layers = (
{
layerId = "6B6936E6-7670-4A82-900D-EAF583C971AF";
name = Regular;
paths = (
{
closed = 1;
nodes = (
"361 1262 LINE",
"150 1528 LINE",
"289 1528 LINE",
"455 1350 LINE",
"621 1528 LINE",
"760 1528 LINE",
"549 1262 LINE"
);
}
);
width = 910;
}
);
},
{
glyphname = c6467;
lastChange = "2012-12-03 12:20:36 -0500";
layers = (
{
layerId = "6B6936E6-7670-4A82-900D-EAF583C971AF";
name = Regular;
paths = (
{
closed = 1;
nodes = (
"564 1382 LINE",
"255 963 LINE",
"564 963 LINE"
);
},
{
closed = 1;
nodes = (
"542 1503 LINE",
"708 1503 LINE",
"708 963 LINE",
"843 963 LINE",
"843 854 LINE",
"708 854 LINE",
"708 668 LINE",
"564 668 LINE",
"564 854 LINE",
"150 854 LINE",
"150 975 LINE"
);
}
);
width = 993;
}
);
},
{
glyphname = c6468;
lastChange = "2012-10-19 18:41:40 -0500";
layers = (
{
layerId = "6B6936E6-7670-4A82-900D-EAF583C971AF";
name = Regular;
paths = (
{
closed = 1;
nodes = (
"268 1528 LINE",
"285 1456 OFFCURVE",
"352 1417 OFFCURVE",
"463 1417 CURVE SMOOTH",
"572 1417 OFFCURVE",
"637 1453 OFFCURVE",
"658 1528 CURVE",
"776 1528 LINE",
"763 1369 OFFCURVE",
"654 1286 OFFCURVE",
"463 1286 CURVE SMOOTH",
"271 1286 OFFCURVE",
"163 1368 OFFCURVE",
"150 1528 CURVE"
);
}
);
width = 926;
}
);
},
{
glyphname = c6469;
lastChange = "2012-10-19 18:41:46 -0500";
layers = (
{
layerId = "6B6936E6-7670-4A82-900D-EAF583C971AF";
name = Regular;
paths = (
{
closed = 1;
nodes = (
"150 1499 LINE",
"354 1499 LINE",
"354 1294 LINE",
"150 1294 LINE"
);
}
);
width = 504;
}
);
},
{
glyphname = Hbar;
lastChange = "2013-04-23 05:43:50 -0500";
layers = (
{
components = (
{
name = H;
transform = "{1, 0, 0, 1, 0, 0}";
}
);
layerId = "6B6936E6-7670-4A82-900D-EAF583C971AF";
name = Regular;
paths = (
{
closed = 1;
nodes = (
"46 1254 LINE",
"1410 1254 LINE",
"1420 1110 LINE",
"36 1110 LINE"
);
}
);
width = 1458;
}
);
unicode = 0126;
},
{
glyphname = Eng;
lastChange = "2013-04-23 05:58:16 -0500";
layers = (
{
components = (
{
name = N;
transform = "{1, 0, 0, 1, -1, 0}";
}
);
layerId = "6B6936E6-7670-4A82-900D-EAF583C971AF";
name = Regular;
paths = (
{
closed = 1;
nodes = (
"1032 0 OFFCURVE",
"1013 81 OFFCURVE",
"1037 165 CURVE",
"1299 0 LINE",
"1193 -288 LINE",
"1087 -472 LINE SMOOTH",
"1015 -431 OFFCURVE",
"750 -373 OFFCURVE",
"698 -295 CURVE",
"763 -233 OFFCURVE",
"894 -149 OFFCURVE",
"964 -87 CURVE"
);
}
);
width = 1450;
}
);
unicode = 014A;
},
{
glyphname = hbar;
lastChange = "2013-04-23 05:45:35 -0500";
layers = (
{
components = (
{
name = h;
transform = "{1, 0, 0, 1, 0, 0}";
}
);
layerId = "6B6936E6-7670-4A82-900D-EAF583C971AF";
name = Regular;
paths = (
{
closed = 1;
nodes = (
"74 1393 LINE",
"729 1393 LINE",
"749 1269 LINE",
"44 1269 LINE"
);
}
);
width = 1278;
}
);
unicode = 0127;
},
{
glyphname = eng;
lastChange = "2013-04-23 05:56:40 -0500";
layers = (
{
layerId = "6B6936E6-7670-4A82-900D-EAF583C971AF";
name = Regular;
paths = (
{
closed = 1;
nodes = (
"1138 420 OFFCURVE",
"1142 256 OFFCURVE",
"1142 146 CURVE SMOOTH",
"1142 -42 OFFCURVE",
"1130 -71 OFFCURVE",
"1112 -121 CURVE SMOOTH",
"1072 -233 OFFCURVE",
"780 -330 OFFCURVE",
"776 -330 CURVE SMOOTH",
"715 -330 OFFCURVE",
"607 -170 OFFCURVE",
"638 -110 CURVE SMOOTH",
"662 -63 OFFCURVE",
"915 -21 OFFCURVE",
"916 24 CURVE SMOOTH",
"934 680 LINE",
"934 892 OFFCURVE",
"871 997 OFFCURVE",
"706 997 CURVE SMOOTH",
"481 997 OFFCURVE",
"375 862 OFFCURVE",
"375 643 CURVE",
"405 0 LINE",
"150 0 LINE",
"180 1130 LINE",
"365 1130 LINE",
"365 996 LINE",
"453 1064 OFFCURVE",
"571 1147 OFFCURVE",
"727 1147 CURVE SMOOTH",
"1079 1147 OFFCURVE",
"1128 860 OFFCURVE",
"1128 676 CURVE SMOOTH"
);
}
);
width = 1308;
}
);
unicode = 014B;
},
{
color = 7;
glyphname = y.001;
layers = (
{
anchors = (
{
name = top;
position = "{721, 1120}";
}
);
layerId = "6B6936E6-7670-4A82-900D-EAF583C971AF";
name = Regular;
paths = (
{
closed = 1;
nodes = (
"646 -52 LINE",
"82 -52 OFFCURVE",
"140 467 OFFCURVE",
"140 1120 CURVE",
"335 1120 LINE",
"375 460 OFFCURVE",
"203 233 OFFCURVE",
"692 233 CURVE SMOOTH",
"839 233 OFFCURVE",
"898 515 OFFCURVE",
"955 1120 CURVE",
"1217 1120 LINE",
"1010 -20 OFFCURVE",
"975 -821 OFFCURVE",
"295 -821 CURVE SMOOTH",
"128 -821 LINE",
"128 -503 LINE",
"463 -503 OFFCURVE",
"745 -429 OFFCURVE",
"773 -52 CURVE"
);
}
);
width = 1390;
}
);
},
{
glyphname = euro;
lastChange = "2012-12-05 10:56:05 -0500";
layers = (
{
layerId = "6B6936E6-7670-4A82-900D-EAF583C971AF";
name = Regular;
paths = (
{
closed = 1;
nodes = (
"1317 1215 LINE",
"1196 1355 OFFCURVE",
"1091 1410 OFFCURVE",
"955 1410 CURVE SMOOTH",
"746 1410 OFFCURVE",
"607 1222 OFFCURVE",
"564 973 CURVE",
"1141 973 LINE",
"1086 850 LINE",
"548 850 LINE",
"545 818 OFFCURVE",
"545 792 OFFCURVE",
"545 745 CURVE SMOOTH",
"545 702 OFFCURVE",
"545 675 OFFCURVE",
"548 643 CURVE",
"994 643 LINE",
"938 480 LINE",
"574 480 LINE",
"590 404 OFFCURVE",
"736 221 OFFCURVE",
"945 221 CURVE SMOOTH",
"1081 221 OFFCURVE",
"1182 276 OFFCURVE",
"1317 416 CURVE",
"1317 115 LINE",
"1198 19 OFFCURVE",
"1075 -29 OFFCURVE",
"947 -29 CURVE SMOOTH",
"631 -29 OFFCURVE",
"411 188 OFFCURVE",
"371 480 CURVE",
"150 480 LINE",
"205 643 LINE",
"344 643 LINE",
"344 658 OFFCURVE",
"344 674 OFFCURVE",
"344 690 CURVE",
"343 705 OFFCURVE",
"343 724 OFFCURVE",
"343 745 CURVE SMOOTH",
"343 768 OFFCURVE",
"343 788 OFFCURVE",
"344 804 CURVE",
"344 819 OFFCURVE",
"344 835 OFFCURVE",
"344 850 CURVE",
"150 850 LINE",
"205 973 LINE",
"361 973 LINE",
"414 1316 OFFCURVE",
"632 1520 OFFCURVE",
"947 1520 CURVE SMOOTH",
"1078 1520 OFFCURVE",
"1201 1473 OFFCURVE",
"1317 1378 CURVE"
);
}
);
width = 1467;
}
);
unicode = 20AC;
},
{
glyphname = dotbelowcomb;
lastChange = "2012-12-15 09:05:42 -0500";
layers = (
{
anchors = (
{
name = "_ dotbelowcomb";
position = "{272, 325}";
}
);
layerId = "6B6936E6-7670-4A82-900D-EAF583C971AF";
name = Regular;
paths = (
{
closed = 1;
nodes = (
"186 222 LINE",
"391 222 LINE",
"391 1 LINE",
"186 1 LINE"
);
}
);
width = 600;
}
);
unicode = 0323;
},
{
glyphname = hookabovecomb;
lastChange = "2013-03-08 11:04:16 -0500";
layers = (
{
anchors = (
{
name = hook;
position = "{299, 967}";
}
);
layerId = "6B6936E6-7670-4A82-900D-EAF583C971AF";
name = Regular;
paths = (
{
closed = 1;
nodes = (
"237 1202 OFFCURVE",
"272 1210 OFFCURVE",
"306 1210 CURVE SMOOTH",
"340 1210 OFFCURVE",
"367 1203 OFFCURVE",
"388 1189 CURVE SMOOTH",
"408 1175 OFFCURVE",
"419 1158 OFFCURVE",
"419 1136 CURVE SMOOTH",
"419 1116 OFFCURVE",
"405 1095 OFFCURVE",
"376 1074 CURVE SMOOTH",
"354 1059 LINE SMOOTH",
"343 1050 OFFCURVE",
"337 1045 OFFCURVE",
"335 1042 CURVE",
"333 1036 OFFCURVE",
"332 1028 OFFCURVE",
"332 1018 CURVE",
"274 1018 LINE",
"274 1024 LINE SMOOTH",
"274 1037 OFFCURVE",
"276 1048 OFFCURVE",
"281 1057 CURVE SMOOTH",
"286 1066 OFFCURVE",
"297 1076 OFFCURVE",
"313 1088 CURVE SMOOTH",
"335 1105 LINE SMOOTH",
"350 1116 OFFCURVE",
"358 1128 OFFCURVE",
"358 1141 CURVE SMOOTH",
"358 1154 OFFCURVE",
"339 1169 OFFCURVE",
"293 1169 CURVE SMOOTH",
"263 1169 OFFCURVE",
"233 1160 OFFCURVE",
"200 1143 CURVE",
"200 1185 LINE"
);
}
);
width = 600;
}
);
unicode = 0309;
},
{
glyphname = horncomb;
lastChange = "2013-03-08 11:01:36 -0500";
layers = (
{
anchors = (
{
name = _horn;
position = "{139.065, 985.522}";
}
);
layerId = "6B6936E6-7670-4A82-900D-EAF583C971AF";
name = Regular;
paths = (
{
closed = 1;
nodes = (
"135 986 LINE",
"184 1016 OFFCURVE",
"204 1019 OFFCURVE",
"229 1041 CURVE SMOOTH",
"274 1081 OFFCURVE",
"270 1176 OFFCURVE",
"270 1211 CURVE SMOOTH",
"270 1232 OFFCURVE",
"265 1252 OFFCURVE",
"255 1272 CURVE",
"354 1260 LINE",
"361 1235 OFFCURVE",
"364 1213 OFFCURVE",
"364 1193 CURVE SMOOTH",
"364 1114 OFFCURVE",
"343 1015 OFFCURVE",
"280 961 CURVE SMOOTH",
"235 923 OFFCURVE",
"231 915 OFFCURVE",
"181 891 CURVE"
);
}
);
width = 600;
}
);
unicode = 031B;
},
